<svg width="500" height="500" viewBox="0 0 500 500" fill="none" xmlns="http://www.w3.org/2000/svg">
<path d="M500 382.4H0V382.65H500V382.4Z" fill="#EBEBEB"/>
<path d="M449.9 398.49H416.78V398.74H449.9V398.49Z" fill="#EBEBEB"/>
<path d="M331.22 401.21H322.53V401.46H331.22V401.21Z" fill="#EBEBEB"/>
<path d="M415.78 389.21H396.59V389.46H415.78V389.21Z" fill="#EBEBEB"/>
<path d="M95.65 390.89H52.46V391.14H95.65V390.89Z" fill="#EBEBEB"/>
<path d="M110.89 390.89H104.56V391.14H110.89V390.89Z" fill="#EBEBEB"/>
<path d="M225.15 395.11H131.47V395.36H225.15V395.11Z" fill="#EBEBEB"/>
<path d="M237 337.8H43.91C42.3973 337.797 40.9476 337.195 39.8789 336.124C38.8102 335.054 38.21 333.603 38.21 332.09V60.66C38.2232 59.156 38.8292 57.718 39.8964 56.6582C40.9637 55.5985 42.406 55.0026 43.91 55H237C238.514 55 239.967 55.6016 241.038 56.6724C242.108 57.7433 242.71 59.1956 242.71 60.71V332.09C242.71 333.604 242.108 335.057 241.038 336.128C239.967 337.198 238.514 337.8 237 337.8V337.8ZM43.91 55.2C42.4637 55.2026 41.0774 55.7791 40.0557 56.8027C39.0339 57.8264 38.46 59.2136 38.46 60.66V332.09C38.46 333.536 39.0339 334.924 40.0557 335.947C41.0774 336.971 42.4637 337.547 43.91 337.55H237C238.447 337.547 239.835 336.971 240.858 335.948C241.881 334.924 242.457 333.537 242.46 332.09V60.66C242.457 59.2127 241.881 57.8255 240.858 56.8021C239.835 55.7787 238.447 55.2026 237 55.2H43.91Z" fill="#EBEBEB"/>
<path d="M453.31 337.8H260.21C258.696 337.797 257.246 337.195 256.175 336.125C255.105 335.054 254.503 333.604 254.5 332.09V60.66C254.516 59.1551 255.124 57.7171 256.193 56.6576C257.262 55.5981 258.705 55.0025 260.21 55H453.31C454.812 55.0052 456.252 55.6022 457.317 56.6617C458.382 57.7212 458.987 59.1578 459 60.66V332.09C459 333.601 458.401 335.05 457.335 336.121C456.268 337.191 454.821 337.795 453.31 337.8V337.8ZM260.21 55.2C258.763 55.2026 257.375 55.7787 256.352 56.8021C255.329 57.8255 254.753 59.2127 254.75 60.66V332.09C254.753 333.537 255.329 334.924 256.352 335.948C257.375 336.971 258.763 337.547 260.21 337.55H453.31C454.757 337.547 456.145 336.971 457.168 335.948C458.191 334.924 458.767 333.537 458.77 332.09V60.66C458.767 59.2127 458.191 57.8255 457.168 56.8021C456.145 55.7787 454.757 55.2026 453.31 55.2H260.21Z" fill="#EBEBEB"/>
<path d="M390.11 352.87C390.11 352.87 395.76 340.54 389.3 328.39C382.84 316.24 380.98 313.39 385.09 310.89C389.2 308.39 391.09 320.61 391.09 320.61C391.09 320.61 394.55 312.21 391.69 303.42C388.83 294.63 387 280.31 391 278.77C395 277.23 391.75 296.64 395.14 303.25C396.869 298.608 397.985 293.76 398.46 288.83C398.93 281.77 398.2 270.49 401.29 267.6C404.38 264.71 406.35 266.71 403.29 282.29C401.469 291.601 400.466 301.054 400.29 310.54C400.29 310.54 407 290.1 411.5 289.54C416 288.98 415.99 295.54 412.14 301.31C408.29 307.08 400.86 317.31 399.64 322.62C399.64 322.62 407 307.24 413.64 311.96C420.28 316.68 407.88 325.96 402.36 329.32C396.84 332.68 393.01 353.72 393.01 353.72L390.11 352.87Z" fill="#E0E0E0"/>
<path d="M394.57 357.92C394.57 357.92 389.07 345.51 395.67 333.46C402.27 321.41 404.17 318.57 400.09 316.02C396.01 313.47 393.97 325.65 393.97 325.65C393.97 325.65 390.6 317.2 393.57 308.45C396.54 299.7 398.51 285.45 394.62 283.82C390.73 282.19 393.62 301.67 390.18 308.23C388.494 303.566 387.425 298.701 387 293.76C386.61 286.7 387.48 275.43 384.43 272.5C381.38 269.57 379.37 271.5 382.22 287.15C383.933 296.484 384.827 305.95 384.89 315.44C384.89 315.44 378.43 294.91 373.94 294.24C369.45 293.57 369.38 300.24 373.16 306C376.94 311.76 384.24 322.19 385.4 327.5C385.4 327.5 378.23 312.01 371.55 316.63C364.87 321.25 377.14 330.72 382.62 334.15C388.1 337.58 391.68 358.69 391.68 358.69L394.57 357.92Z" fill="#EBEBEB"/>
<path d="M369.2 349.08H414.64L410.96 381.6H372.88L369.2 349.08Z" fill="#EBEBEB"/>
<path d="M258.371 123.515C269.294 120.937 276.058 109.993 273.48 99.071C270.902 88.1487 259.958 81.3842 249.036 83.9621C238.114 86.54 231.349 97.4841 233.927 108.406C236.505 119.329 247.449 126.093 258.371 123.515Z" fill="#E0E0E0"/>
<path d="M257.673 120.557C266.961 118.364 272.714 109.058 270.522 99.7693C268.329 90.4811 259.023 84.7286 249.734 86.9208C240.446 89.113 234.694 98.4198 236.886 107.708C239.078 116.996 248.385 122.749 257.673 120.557Z" fill="#F0F0F0"/>
<path d="M252.88 115.58V103.5L244.88 108.03" fill="#F0F0F0"/>
<path d="M252.88 116.44C252.767 116.441 252.654 116.42 252.549 116.377C252.444 116.335 252.349 116.271 252.269 116.191C252.189 116.111 252.125 116.016 252.083 115.911C252.04 115.806 252.019 115.693 252.02 115.58V105L245.3 108.8C245.202 108.857 245.095 108.894 244.983 108.908C244.871 108.923 244.757 108.915 244.648 108.885C244.539 108.856 244.437 108.804 244.348 108.735C244.259 108.665 244.185 108.579 244.13 108.48C244.073 108.382 244.036 108.273 244.021 108.16C244.006 108.048 244.014 107.933 244.044 107.823C244.074 107.713 244.125 107.611 244.195 107.521C244.264 107.431 244.351 107.356 244.45 107.3L252.45 102.77C252.581 102.697 252.729 102.659 252.879 102.661C253.028 102.662 253.175 102.703 253.305 102.778C253.434 102.854 253.541 102.963 253.616 103.093C253.691 103.223 253.73 103.37 253.73 103.52V115.6C253.727 115.824 253.637 116.037 253.478 116.195C253.318 116.352 253.104 116.44 252.88 116.44V116.44Z" fill="#E0E0E0"/>
<path d="M434.63 193.84V128.06H349.98V193.84H434.63Z" fill="#E0E0E0"/>
<path d="M432.07 130.79H352.55V191.13H432.07V130.79Z" fill="#EBEBEB"/>
<path d="M390.85 159.23H381.26V172.79H390.85V159.23Z" fill="#F5F5F5"/>
<path d="M403.35 163.24H393.25V177.75H403.35V163.24Z" fill="#F5F5F5"/>
<path d="M400.981 138.969L390.967 137.653L389.076 152.039L399.09 153.355L400.981 138.969Z" fill="#F5F5F5"/>
<path d="M425.58 137.68H415.48V152.19H425.58V137.68Z" fill="#F5F5F5"/>
<path d="M413.51 136.16H403.41V150.67H413.51V136.16Z" fill="#F5F5F5"/>
<path d="M365.73 135.73H359.46V142H365.73V135.73Z" fill="#F5F5F5"/>
<path d="M374.839 137.633L368.983 135.392L366.742 141.248L372.598 143.489L374.839 137.633Z" fill="#F5F5F5"/>
<path d="M362.6 136.52C362.6 136.569 362.59 136.617 362.572 136.662C362.553 136.707 362.526 136.747 362.492 136.782C362.457 136.816 362.416 136.843 362.372 136.862C362.327 136.88 362.279 136.89 362.23 136.89C362.177 136.899 362.123 136.896 362.071 136.882C362.019 136.867 361.971 136.842 361.93 136.807C361.889 136.773 361.856 136.729 361.834 136.681C361.811 136.632 361.799 136.579 361.799 136.525C361.799 136.471 361.811 136.418 361.834 136.369C361.856 136.321 361.889 136.278 361.93 136.243C361.971 136.208 362.019 136.183 362.071 136.168C362.123 136.154 362.177 136.151 362.23 136.16C362.326 136.16 362.419 136.198 362.488 136.265C362.557 136.332 362.597 136.424 362.6 136.52V136.52Z" fill="#E0E0E0"/>
<path d="M369.81 136.52C369.812 136.594 369.792 136.666 369.753 136.728C369.713 136.79 369.656 136.839 369.589 136.869C369.521 136.898 369.447 136.907 369.374 136.894C369.302 136.881 369.235 136.847 369.182 136.795C369.129 136.744 369.093 136.678 369.078 136.606C369.063 136.534 369.07 136.459 369.097 136.391C369.125 136.323 369.172 136.264 369.233 136.223C369.294 136.182 369.366 136.16 369.44 136.16C369.536 136.16 369.629 136.198 369.698 136.265C369.767 136.332 369.807 136.424 369.81 136.52V136.52Z" fill="#E0E0E0"/>
<path d="M396.06 151.62C396.06 151.693 396.038 151.765 395.998 151.826C395.957 151.886 395.899 151.934 395.832 151.962C395.764 151.99 395.69 151.997 395.618 151.983C395.546 151.969 395.48 151.933 395.428 151.882C395.377 151.83 395.341 151.764 395.327 151.692C395.313 151.62 395.32 151.546 395.348 151.478C395.376 151.411 395.424 151.353 395.484 151.312C395.545 151.272 395.617 151.25 395.69 151.25C395.787 151.253 395.88 151.292 395.949 151.361C396.018 151.43 396.057 151.523 396.06 151.62V151.62Z" fill="#E0E0E0"/>
<path d="M386.43 160.22C386.427 160.317 386.388 160.41 386.319 160.479C386.25 160.548 386.157 160.587 386.06 160.59C385.962 160.59 385.868 160.551 385.798 160.482C385.729 160.412 385.69 160.318 385.69 160.22C385.69 160.122 385.729 160.028 385.798 159.958C385.868 159.889 385.962 159.85 386.06 159.85C386.157 159.853 386.25 159.892 386.319 159.961C386.388 160.03 386.427 160.123 386.43 160.22V160.22Z" fill="#E0E0E0"/>
<path d="M391.93 138.72C391.939 138.773 391.936 138.827 391.922 138.879C391.907 138.931 391.882 138.979 391.847 139.02C391.813 139.061 391.769 139.094 391.721 139.116C391.672 139.139 391.619 139.151 391.565 139.151C391.511 139.151 391.458 139.139 391.409 139.116C391.361 139.094 391.317 139.061 391.283 139.02C391.248 138.979 391.223 138.931 391.208 138.879C391.194 138.827 391.191 138.773 391.2 138.72C391.214 138.634 391.259 138.555 391.326 138.498C391.393 138.442 391.477 138.411 391.565 138.411C391.653 138.411 391.737 138.442 391.804 138.498C391.871 138.555 391.916 138.634 391.93 138.72Z" fill="#E0E0E0"/>
<path d="M408.46 137.35C408.664 137.35 408.83 137.184 408.83 136.98C408.83 136.776 408.664 136.61 408.46 136.61C408.256 136.61 408.09 136.776 408.09 136.98C408.09 137.184 408.256 137.35 408.46 137.35Z" fill="#E0E0E0"/>
<path d="M420.89 138.36C420.89 138.433 420.868 138.505 420.828 138.566C420.787 138.626 420.729 138.674 420.662 138.702C420.594 138.73 420.52 138.737 420.448 138.723C420.376 138.709 420.31 138.673 420.258 138.622C420.207 138.57 420.171 138.504 420.157 138.432C420.143 138.36 420.15 138.286 420.178 138.218C420.206 138.151 420.254 138.093 420.314 138.052C420.375 138.012 420.447 137.99 420.52 137.99C420.569 137.989 420.618 137.997 420.663 138.015C420.709 138.033 420.75 138.061 420.785 138.095C420.819 138.13 420.847 138.171 420.865 138.217C420.883 138.262 420.891 138.311 420.89 138.36Z" fill="#E0E0E0"/>
<path d="M427.14 173.84H407.03V186.45H427.14V173.84Z" fill="#E0E0E0"/>
<path d="M378.59 172.24H361.03V186.1H378.59V172.24Z" fill="#E0E0E0"/>
<path d="M135.88 119.35H67.26V243.97H135.88V119.35Z" fill="#E6E6E6"/>
<path d="M131.22 124.28H72.22V239.28H131.22V124.28Z" fill="#F0F0F0"/>
<path d="M101.33 124.28L72.22 233.3V174.28L85.54 124.28H101.33Z" fill="#FAFAFA"/>
<path d="M114.34 124.28L83.64 239.28H77.85L108.55 124.28H114.34Z" fill="#FAFAFA"/>
<path d="M133.72 204.67H69.22V208.67H133.72V204.67Z" fill="#E6E6E6"/>
<path d="M250 427.56C357.082 427.56 443.89 422.492 443.89 416.24C443.89 409.988 357.082 404.92 250 404.92C142.918 404.92 56.11 409.988 56.11 416.24C56.11 422.492 142.918 427.56 250 427.56Z" fill="#F5F5F5"/>
<path d="M169 410.25H174.42V263.93H181.25V410.25H186.67C187.073 410.25 187.46 410.41 187.745 410.695C188.03 410.98 188.19 411.367 188.19 411.77V413.93H167.48V411.77C167.48 411.367 167.64 410.98 167.925 410.695C168.21 410.41 168.597 410.25 169 410.25V410.25Z" fill="#263238"/>
<path d="M297.08 410.25H302.5V263.93H309.33V410.25H314.75C315.153 410.25 315.54 410.41 315.825 410.695C316.11 410.98 316.27 411.367 316.27 411.77V413.93H295.56V411.77C295.56 411.367 295.72 410.98 296.005 410.695C296.29 410.41 296.677 410.25 297.08 410.25V410.25Z" fill="#263238"/>
<g opacity="0.5">
<path opacity="0.5" d="M169 410.25H174.42V263.93H181.25V410.25H186.67C187.073 410.25 187.46 410.41 187.745 410.695C188.03 410.98 188.19 411.367 188.19 411.77V413.93H167.48V411.77C167.48 411.367 167.64 410.98 167.925 410.695C168.21 410.41 168.597 410.25 169 410.25V410.25Z" fill="white"/>
<path opacity="0.5" d="M297.08 410.25H302.5V263.93H309.33V410.25H314.75C315.153 410.25 315.54 410.41 315.825 410.695C316.11 410.98 316.27 411.367 316.27 411.77V413.93H295.56V411.77C295.56 411.367 295.72 410.98 296.005 410.695C296.29 410.41 296.677 410.25 297.08 410.25V410.25Z" fill="white"/>
</g>
<path d="M145.1 273.35H338.65V130.61L145.1 130.61L145.1 273.35Z" fill="#263238"/>
<path opacity="0.6" d="M145.1 273.35H338.65V130.61L145.1 130.61L145.1 273.35Z" fill="white"/>
<path d="M333.65 268.35V135.61H150.1V268.35H333.65Z" fill="#ABC2AD"/>
<path opacity="0.2" d="M333.65 268.35V135.61H150.1V268.35H333.65Z" fill="black"/>
<path opacity="0.1" d="M164.63 202.69C166.18 200.75 167.47 198.59 169.19 196.69C169.518 196.334 169.758 195.906 169.89 195.44C171.254 195.266 172.64 195.477 173.89 196.05C178.73 198.22 183.14 201.89 186.97 205.52C187.79 206.29 188.63 207.02 189.47 207.75C185.69 203.53 181.91 199.3 178.08 195.12C177.517 194.535 177.075 193.844 176.782 193.087C176.488 192.33 176.348 191.522 176.37 190.71C178.134 188.692 180.086 186.847 182.2 185.2C182.59 184.929 182.929 184.59 183.2 184.2C184.7 184.332 186.087 185.05 187.06 186.2C195.25 195.1 203.36 203.84 212.41 211.82C211.68 210.82 210.95 209.82 210.25 208.75C205.5 201.7 200.41 194.93 195.1 188.29C191.36 183.62 184.9 177.86 183.71 171.66C183.95 171.36 184.2 171.06 184.46 170.76C184.79 170.36 185.13 169.98 185.46 169.61C185.796 169.556 186.117 169.429 186.4 169.24C187.99 168.24 189 166.08 187.73 164.34C187.454 163.954 187.116 163.616 186.73 163.34C184.8 160.92 182.91 158.46 181.11 155.93C181.014 155.799 180.927 155.662 180.85 155.52C182.14 151.82 185.22 149.13 188.22 146.59C189.309 146.849 190.293 147.436 191.04 148.27C194.65 152.19 198.79 155.63 202.13 159.79C205.72 164.24 208.68 169.15 212.13 173.73L212.3 173.95C216.42 178.53 220.55 183.1 224.55 187.78C228.03 191.31 231.55 194.78 234.99 198.2C240.42 203.7 245.93 209.2 251.65 214.49C250.23 212.39 248.81 210.3 247.35 208.22C240.91 199.05 233.76 190.4 226.87 181.57C223.47 177.22 220.36 172.67 217.07 168.25C214.47 164.77 210.58 161.59 208.54 157.77C208.122 157.004 207.85 156.166 207.74 155.3C207.97 155.096 208.181 154.872 208.37 154.63C210.079 152.612 212.204 150.988 214.6 149.87C215.133 149.613 215.573 149.197 215.86 148.68C216.824 148.955 217.715 149.44 218.47 150.1C221.703 152.902 224.752 155.908 227.6 159.1C226.666 157.553 225.923 155.897 225.39 154.17C223.77 148.64 229.94 144.57 234.68 147.03L235.09 147.26C235.641 145.673 236.744 144.338 238.198 143.497C239.652 142.656 241.36 142.366 243.01 142.68C244.84 140.24 248.01 138.96 250.92 141.15C262.78 150.21 274.08 160.25 285.27 170.15C286.27 171.04 287.27 171.95 288.27 172.86C286.34 169.86 284.27 166.94 282.01 164.03C279.44 160.78 275.86 157.37 274.49 153.32C274.631 153.235 274.761 153.134 274.88 153.02C277.776 150.352 280.215 147.227 282.1 143.77C282.096 143.74 282.096 143.71 282.1 143.68C287.1 144.8 292.32 148.03 296.54 150.46C302.012 153.665 307.186 157.353 312 161.48C311.995 162.006 312.086 162.528 312.27 163.02C312.385 163.299 312.519 163.569 312.67 163.83V164.72C312.261 165.535 311.926 166.385 311.67 167.26C310.896 167.627 310.238 168.202 309.77 168.92C309.324 169.727 309.107 170.639 309.14 171.56C309.14 171.81 309.2 172.06 309.24 172.31C308.764 172.673 308.414 173.177 308.24 173.75C307.092 173.537 306.023 173.015 305.15 172.24C303.817 171.087 302.483 169.973 301.15 168.9C302.88 171.78 304.53 174.72 306.21 177.54C309.15 182.48 312.21 187.29 315.6 191.96C318.17 195.52 321.6 198.62 322.03 202.57C319.64 204.57 317.98 207.14 315.91 209.48C315.8 209.61 315.71 209.75 315.62 209.88C313.456 209.704 311.381 208.94 309.62 207.67C310.17 208.32 310.7 208.98 311.21 209.67C315.74 215.87 322.14 220.88 326.21 227.34C326.7 228.073 327.04 228.895 327.21 229.76L325.79 231.55C325.387 232.004 325.111 232.557 324.989 233.152C324.868 233.748 324.906 234.364 325.1 234.94L325 235.02L325.5 235.62C326.181 236.478 326.666 237.475 326.92 238.54C325.024 241.513 322.66 244.16 319.92 246.38C316.2 246.1 312.92 243.68 309.63 241.79C307.39 240.497 305.163 239.163 302.95 237.79C304.073 239.196 305.014 240.738 305.75 242.38C306.018 243.019 306.196 243.692 306.28 244.38C306.095 244.484 305.918 244.601 305.75 244.73C302.993 246.734 300.438 249.001 298.12 251.5C297.779 251.365 297.445 251.211 297.12 251.04C294.949 249.861 292.854 248.545 290.85 247.1C291.171 248.026 291.337 249 291.34 249.98C290.841 249.911 290.333 249.952 289.852 250.099C289.37 250.245 288.926 250.495 288.55 250.83C286.75 252.37 285.3 254.35 283.55 255.92C282.976 255.78 282.43 255.54 281.94 255.21C277.23 252.02 273.24 247.82 268.74 244.34L265.33 241.74C265.63 242.634 265.739 243.581 265.65 244.52C265.2 244.64 264.781 244.855 264.42 245.15C262.26 246.89 260.15 248.68 258.01 250.45C257.464 250.25 256.949 249.974 256.48 249.63C254.359 248.114 252.353 246.443 250.48 244.63C250.425 245.002 250.345 245.369 250.24 245.73C249.823 245.543 249.365 245.465 248.91 245.506C248.455 245.546 248.017 245.702 247.64 245.96C245.894 247.192 244.225 248.527 242.64 249.96C240.15 249.3 238.42 247.48 236.41 245.96L235.41 245.17C235.283 245.421 235.135 245.662 234.97 245.89C234.337 245.8 233.694 245.954 233.17 246.32C232.314 246.955 231.499 247.643 230.73 248.38L230.4 248.69C229.548 248.853 228.672 248.829 227.83 248.62C223.21 247.39 219.08 244.2 215.12 241.41C215.9 242.32 216.68 243.22 217.44 244.15C220.33 247.7 224.57 251.56 226.04 256.05C225.847 256.24 225.676 256.451 225.53 256.68C224.98 257.59 224.36 258.5 223.7 259.4C221.516 260.675 219.554 262.296 217.89 264.2C217.57 264.109 217.256 263.999 216.95 263.87C212.3 261.87 208.83 258.13 205.35 254.59C202.86 252.06 200.47 249.46 198.14 246.79C198.001 247.14 197.827 247.475 197.62 247.79C197.052 247.607 196.446 247.575 195.862 247.698C195.278 247.821 194.736 248.094 194.29 248.49C193.29 249.31 192.2 250.07 191.13 250.84C190.178 250.781 189.249 250.515 188.41 250.061C187.571 249.607 186.84 248.975 186.27 248.21C181.08 241.47 166.52 223.06 171.37 212.66C168.949 210.314 166.923 207.592 165.37 204.6C165.039 203.999 164.79 203.357 164.63 202.69V202.69Z" fill="white"/>
<path opacity="0.1" d="M320.73 202.05C319.18 204 317.89 206.16 316.17 208.05C315.843 208.405 315.6 208.829 315.46 209.29C314.096 209.475 312.707 209.264 311.46 208.68C306.62 206.51 302.21 202.84 298.37 199.22C297.56 198.45 296.72 197.72 295.87 196.98C299.66 201.2 303.43 205.43 307.26 209.61C307.825 210.196 308.268 210.889 308.563 211.647C308.858 212.406 309 213.216 308.98 214.03C307.214 216.045 305.262 217.89 303.15 219.54C302.762 219.813 302.424 220.152 302.15 220.54C300.649 220.41 299.261 219.691 298.29 218.54C290.12 209.69 282 201 273 193C273.72 194 274.46 195 275.16 196.07C279.91 203.12 285 209.9 290.3 216.53C294.05 221.21 300.51 226.96 301.7 233.16C301.45 233.47 301.21 233.77 300.95 234.07C300.69 234.37 300.27 234.84 299.95 235.21C299.616 235.274 299.297 235.399 299.01 235.58C297.42 236.63 296.41 238.74 297.68 240.48C297.947 240.874 298.286 241.213 298.68 241.48C300.61 243.91 302.49 246.37 304.3 248.89C304.4 249.03 304.48 249.17 304.56 249.3C303.26 253.01 300.19 255.7 297.19 258.24C296.1 257.982 295.115 257.396 294.37 256.56C290.75 252.64 286.62 249.19 283.28 245.04C279.69 240.59 276.73 235.68 273.28 231.04L273.11 230.83C269 226.24 264.87 221.67 260.87 216.99C257.38 213.47 253.87 209.99 250.43 206.58C245 201.08 239.49 195.58 233.77 190.28C235.19 192.38 236.61 194.48 238.07 196.55C244.51 205.72 251.66 214.38 258.55 223.2C261.95 227.55 265.06 232.11 268.35 236.53C270.95 240.01 274.84 243.18 276.88 247.01C277.301 247.775 277.573 248.613 277.68 249.48C277.448 249.677 277.236 249.899 277.05 250.14C275.34 252.163 273.211 253.791 270.81 254.91C270.282 255.17 269.846 255.585 269.56 256.1C268.596 255.819 267.705 255.331 266.95 254.67C263.713 251.887 260.66 248.898 257.81 245.72C258.746 247.268 259.491 248.923 260.03 250.65C261.65 256.18 255.48 260.25 250.74 257.8L250.33 257.57C249.779 259.157 248.676 260.492 247.222 261.333C245.768 262.174 244.06 262.464 242.41 262.15C240.58 264.59 237.41 265.87 234.5 263.67C222.64 254.61 211.34 244.58 200.14 234.67L197.14 231.95C199.076 234.997 201.166 237.944 203.4 240.78C205.97 244.04 209.55 247.44 210.91 251.49C210.78 251.59 210.65 251.67 210.52 251.79C207.632 254.463 205.197 257.587 203.31 261.04C203.31 261.04 203.31 261.1 203.31 261.13C198.31 260.01 193.09 256.78 188.86 254.35C183.423 251.119 178.286 247.407 173.51 243.26C173.516 242.738 173.425 242.219 173.24 241.73C173.123 241.452 172.989 241.182 172.84 240.92C172.84 240.62 172.84 240.32 172.84 240.02C173.256 239.208 173.591 238.357 173.84 237.48C174.617 237.116 175.275 236.541 175.74 235.82C176.187 235.014 176.404 234.101 176.37 233.18C176.37 232.93 176.31 232.69 176.27 232.44C176.746 232.072 177.095 231.565 177.27 230.99C178.42 231.207 179.49 231.729 180.37 232.5C181.69 233.65 183.03 234.76 184.37 235.85C182.65 232.96 180.99 230.02 179.37 227.21C176.43 222.21 173.37 217.46 169.97 212.79C167.41 209.22 163.97 206.12 163.55 202.18C165.94 200.18 167.55 197.61 169.67 195.26C169.778 195.135 169.875 195.001 169.96 194.86C172.122 195.045 174.194 195.809 175.96 197.07C175.41 196.42 174.87 195.76 174.37 195.07C169.84 188.86 163.44 183.86 159.37 177.4C158.883 176.665 158.544 175.844 158.37 174.98L159.79 173.18C160.191 172.726 160.465 172.175 160.586 171.582C160.707 170.989 160.671 170.374 160.48 169.8C160.509 169.768 160.542 169.741 160.58 169.72L160.08 169.12C159.4 168.257 158.912 167.257 158.65 166.19C160.547 163.221 162.911 160.577 165.65 158.36C169.37 158.63 172.65 161.05 175.94 162.94C178.18 164.23 180.41 165.55 182.62 166.94C181.495 165.532 180.554 163.986 179.82 162.34C179.55 161.702 179.371 161.028 179.29 160.34C179.471 160.232 179.645 160.111 179.81 159.98C182.572 157.982 185.131 155.718 187.45 153.22C187.795 153.347 188.129 153.501 188.45 153.68C190.619 154.859 192.713 156.172 194.72 157.61C194.393 156.685 194.228 155.711 194.23 154.73C194.728 154.799 195.235 154.76 195.717 154.615C196.198 154.47 196.643 154.223 197.02 153.89C198.82 152.35 200.27 150.36 202.02 148.79C202.593 148.934 203.137 149.174 203.63 149.5C208.34 152.69 212.33 156.89 216.83 160.38C217.957 161.253 219.093 162.117 220.24 162.97C219.935 162.08 219.826 161.136 219.92 160.2C220.369 160.072 220.787 159.854 221.15 159.56C223.31 157.82 225.42 156.03 227.55 154.26C228.097 154.466 228.614 154.741 229.09 155.08C231.209 156.599 233.214 158.27 235.09 160.08C235.139 159.704 235.219 159.333 235.33 158.97C235.745 159.162 236.203 159.242 236.659 159.204C237.115 159.165 237.553 159.009 237.93 158.75C239.679 157.502 241.349 156.146 242.93 154.69C245.43 155.36 247.16 157.17 249.17 158.69L250.17 159.48C250.295 159.227 250.442 158.987 250.61 158.76C251.243 158.849 251.886 158.695 252.41 158.33C253.268 157.695 254.084 157.003 254.85 156.26L255.18 155.96C256.031 155.794 256.908 155.815 257.75 156.02C262.36 157.26 266.49 160.44 270.45 163.24C269.68 162.33 268.9 161.42 268.14 160.5C265.25 156.94 261.01 153.09 259.54 148.59C259.733 148.399 259.904 148.188 260.05 147.96C260.6 147.06 261.22 146.14 261.87 145.25C264.056 143.974 266.022 142.353 267.69 140.45C268.008 140.536 268.319 140.646 268.62 140.78C273.27 142.78 276.75 146.52 280.23 150.06C282.71 152.593 285.11 155.193 287.43 157.86C287.573 157.51 287.75 157.175 287.96 156.86C288.528 157.043 289.134 157.075 289.718 156.952C290.302 156.829 290.844 156.556 291.29 156.16C292.29 155.34 293.37 154.57 294.45 153.8C295.402 153.859 296.331 154.125 297.17 154.579C298.009 155.033 298.74 155.665 299.31 156.43C304.5 163.18 319.06 181.59 314.21 191.99C316.633 194.335 318.659 197.057 320.21 200.05C320.47 200.691 320.645 201.363 320.73 202.05Z" fill="white"/>
<g opacity="0.6">
<path opacity="0.6" d="M296.27 233.29C296.057 233.303 295.85 233.362 295.662 233.462C295.474 233.562 295.31 233.701 295.18 233.87L294.97 231.53L294.3 231.59L294.82 237.19L295.41 237.13V236.66C295.563 236.812 295.746 236.93 295.948 237.006C296.149 237.082 296.365 237.114 296.58 237.1C296.821 237.069 297.053 236.989 297.261 236.865C297.47 236.741 297.651 236.575 297.794 236.378C297.936 236.182 298.037 235.958 298.089 235.721C298.142 235.484 298.146 235.238 298.1 235C298.094 234.767 298.041 234.538 297.945 234.325C297.849 234.113 297.713 233.922 297.542 233.763C297.372 233.604 297.172 233.48 296.954 233.399C296.735 233.318 296.503 233.281 296.27 233.29ZM296.49 236.51C295.95 236.56 295.37 236.22 295.28 235.3C295.244 235.141 295.242 234.977 295.273 234.818C295.305 234.658 295.371 234.507 295.465 234.375C295.56 234.243 295.681 234.132 295.822 234.05C295.962 233.968 296.118 233.917 296.28 233.9C296.92 233.84 297.37 234.36 297.44 235.1C297.476 235.255 297.48 235.417 297.451 235.574C297.423 235.73 297.362 235.88 297.272 236.012C297.183 236.144 297.068 236.257 296.933 236.343C296.799 236.428 296.648 236.485 296.49 236.51V236.51Z" fill="white"/>
<path opacity="0.6" d="M166.32 215.29C166.109 215.282 165.899 215.321 165.704 215.402C165.509 215.483 165.334 215.605 165.19 215.76V213.42H164.51V219H165.11L165.19 218.53C165.33 218.694 165.503 218.826 165.698 218.919C165.893 219.012 166.104 219.063 166.32 219.07C166.791 219.044 167.232 218.833 167.547 218.482C167.861 218.132 168.025 217.671 168 217.2C168.02 216.963 167.993 216.725 167.919 216.499C167.844 216.273 167.725 216.064 167.568 215.886C167.411 215.708 167.22 215.563 167.005 215.46C166.791 215.358 166.558 215.3 166.32 215.29V215.29ZM166.24 218.51C165.7 218.51 165.15 218.12 165.15 217.2C165.129 217.041 165.141 216.88 165.186 216.726C165.23 216.572 165.306 216.429 165.408 216.306C165.511 216.183 165.637 216.083 165.781 216.011C165.924 215.939 166.08 215.898 166.24 215.89C166.89 215.89 167.24 216.45 167.24 217.2C167.24 217.95 166.89 218.51 166.24 218.51V218.51Z" fill="white"/>
<path opacity="0.6" d="M279.68 234.37C278.87 234.45 278.44 233.96 278.36 233.16C278.318 232.994 278.313 232.821 278.348 232.654C278.382 232.486 278.454 232.329 278.558 232.193C278.662 232.057 278.795 231.947 278.948 231.87C279.101 231.793 279.269 231.752 279.44 231.75C279.78 231.715 280.123 231.763 280.44 231.89V231.27C280.071 231.141 279.677 231.103 279.29 231.16C279.04 231.171 278.795 231.236 278.572 231.351C278.35 231.465 278.154 231.625 277.998 231.821C277.843 232.018 277.731 232.245 277.671 232.488C277.611 232.731 277.604 232.984 277.65 233.23C277.652 233.48 277.707 233.727 277.812 233.954C277.917 234.182 278.069 234.384 278.259 234.548C278.448 234.711 278.67 234.833 278.91 234.904C279.15 234.975 279.402 234.994 279.65 234.96C280.043 234.954 280.424 234.824 280.74 234.59L280.6 234.06C280.321 234.232 280.006 234.338 279.68 234.37V234.37Z" fill="white"/>
<path opacity="0.6" d="M166.2 226.89C166.546 226.884 166.888 226.96 167.2 227.11L167.3 226.51C166.947 226.346 166.559 226.27 166.17 226.29C165.92 226.276 165.671 226.316 165.438 226.407C165.205 226.499 164.995 226.64 164.822 226.82C164.649 227.001 164.517 227.217 164.436 227.453C164.354 227.69 164.325 227.941 164.35 228.19C164.329 228.44 164.36 228.691 164.444 228.928C164.527 229.165 164.659 229.381 164.832 229.562C165.005 229.744 165.215 229.887 165.447 229.981C165.68 230.075 165.929 230.119 166.18 230.11C166.571 230.141 166.961 230.042 167.29 229.83L167.2 229.29C166.891 229.45 166.547 229.529 166.2 229.52C165.39 229.52 165 228.99 165 228.19C165 227.39 165.39 226.89 166.2 226.89Z" fill="white"/>
<path opacity="0.6" d="M262.29 232L262.22 231.25C262.1 229.93 261.7 229.53 260.77 229.62C260.328 229.659 259.909 229.834 259.57 230.12L259.72 230.65C259.977 230.415 260.303 230.267 260.65 230.23C261.16 230.23 261.46 230.31 261.52 231C260.59 231.1 259.36 231.48 259.46 232.51C259.466 232.66 259.505 232.806 259.572 232.94C259.639 233.074 259.734 233.192 259.85 233.286C259.967 233.381 260.101 233.45 260.246 233.488C260.391 233.527 260.542 233.534 260.69 233.51C260.902 233.486 261.107 233.417 261.29 233.306C261.473 233.196 261.63 233.047 261.75 232.87C261.94 233.19 262.09 233.37 262.75 233.31H262.81L262.86 232.76H262.79C262.4 232.75 262.34 232.51 262.29 232ZM260.76 232.92C260.684 232.937 260.606 232.936 260.531 232.918C260.456 232.9 260.386 232.865 260.326 232.816C260.266 232.767 260.218 232.705 260.186 232.634C260.154 232.564 260.138 232.487 260.14 232.41C260.09 231.87 260.5 231.6 261.57 231.47L261.65 232.34C261.554 232.496 261.425 232.629 261.271 232.727C261.116 232.826 260.942 232.888 260.76 232.91V232.92Z" fill="white"/>
<path opacity="0.6" d="M165.37 208.12C165.587 208.119 165.8 208.071 165.996 207.977C166.191 207.884 166.364 207.748 166.5 207.58C166.65 207.92 166.79 208.12 167.44 208.12H167.49L167.6 207.58H167.53C167.14 207.58 167.11 207.33 167.11 206.8V206.06C167.11 204.73 166.74 204.29 165.81 204.29C165.366 204.284 164.931 204.421 164.57 204.68L164.67 205.22C164.957 205 165.309 204.884 165.67 204.89C166.18 204.89 166.47 205.04 166.47 205.74C165.53 205.74 164.27 206.02 164.27 207.05C164.267 207.194 164.294 207.337 164.348 207.47C164.403 207.603 164.485 207.723 164.588 207.824C164.691 207.924 164.813 208.002 164.948 208.053C165.083 208.104 165.226 208.127 165.37 208.12ZM166.44 206.21V207.08C166.332 207.23 166.192 207.353 166.028 207.44C165.865 207.527 165.685 207.575 165.5 207.58C165.423 207.59 165.344 207.582 165.271 207.557C165.197 207.531 165.13 207.49 165.075 207.435C165.02 207.38 164.979 207.313 164.953 207.239C164.928 207.166 164.92 207.087 164.93 207.01C164.93 206.47 165.37 206.24 166.44 206.21Z" fill="white"/>
<path opacity="0.6" d="M202.24 190.5C203.172 190.294 204.091 190.03 204.99 189.71C208.22 188.589 211.132 186.705 213.478 184.217C215.823 181.729 217.532 178.711 218.46 175.42C219.182 172.712 219.298 169.878 218.8 167.12L219.8 166.9C219.866 166.885 219.928 166.858 219.983 166.82C220.038 166.781 220.085 166.732 220.121 166.676C220.158 166.619 220.182 166.556 220.194 166.49C220.206 166.423 220.204 166.356 220.19 166.29C220.176 166.224 220.148 166.162 220.11 166.107C220.071 166.052 220.022 166.005 219.966 165.969C219.909 165.932 219.846 165.908 219.78 165.896C219.714 165.884 219.646 165.885 219.58 165.9L218.58 166.12C216.44 156.77 207.86 149.88 198.5 150.05C197.419 150.068 196.342 150.179 195.28 150.38V150.32C195.267 150.256 195.241 150.195 195.204 150.141C195.167 150.087 195.12 150.041 195.065 150.006C195.01 149.97 194.949 149.946 194.884 149.935C194.82 149.924 194.754 149.925 194.69 149.94C194.626 149.954 194.564 149.981 194.51 150.019C194.456 150.057 194.41 150.105 194.375 150.161C194.34 150.217 194.316 150.279 194.305 150.344C194.293 150.409 194.295 150.476 194.31 150.54V150.6C190.909 151.483 187.797 153.239 185.284 155.695C182.77 158.151 180.942 161.22 179.98 164.6C177.24 173.48 180.04 182.46 187.13 187.49C189.293 189.031 191.758 190.096 194.362 190.615C196.967 191.134 199.652 191.095 202.24 190.5V190.5ZM217.62 166.35L206 168.91C205.427 169.048 204.863 169.218 204.31 169.42C202.62 169.99 200.71 170.64 199.56 169.82C198.23 168.87 197.89 165.48 197.68 162.82C197.705 162.9 197.75 162.973 197.812 163.031C197.873 163.089 197.948 163.13 198.03 163.15C198.102 163.17 198.178 163.17 198.25 163.15C198.342 163.13 198.426 163.085 198.493 163.019C198.56 162.954 198.608 162.871 198.63 162.78C199.565 158.976 201.266 155.403 203.63 152.28C203.693 152.197 203.728 152.095 203.728 151.99C203.728 151.885 203.693 151.783 203.63 151.7C204.659 151.971 205.662 152.329 206.63 152.77C205.607 155.23 204.889 157.806 204.49 160.44V160.61C203.95 163.61 203.39 166.61 201.49 168.82C201.398 168.915 201.346 169.042 201.346 169.175C201.346 169.307 201.398 169.435 201.49 169.53C201.549 169.583 201.619 169.621 201.696 169.64C201.773 169.659 201.853 169.659 201.93 169.64C202.033 169.618 202.127 169.566 202.2 169.49C204.33 167.11 204.91 163.9 205.48 160.79V160.61C205.852 158.076 206.523 155.595 207.48 153.22C210.011 154.556 212.226 156.419 213.976 158.684C215.725 160.949 216.968 163.563 217.62 166.35V166.35ZM199.05 151.09C200.356 151.11 201.657 151.268 202.93 151.56C202.871 151.592 202.82 151.636 202.78 151.69C200.336 154.922 198.583 158.622 197.63 162.56V162.56C197.63 162.5 197.63 162.43 197.63 162.37C197.578 161.364 197.465 160.362 197.29 159.37L197 158C197.078 157.938 197.137 157.854 197.17 157.76C197.757 155.712 198.486 153.707 199.35 151.76C199.377 151.697 199.391 151.628 199.39 151.559C199.389 151.49 199.375 151.422 199.346 151.359C199.318 151.296 199.277 151.24 199.226 151.194C199.175 151.147 199.115 151.112 199.05 151.09ZM198.53 151.09H198.7C198.633 151.112 198.57 151.147 198.517 151.193C198.464 151.239 198.421 151.296 198.39 151.36C197.698 152.967 197.09 154.609 196.57 156.28L195.5 151.41C196.499 151.216 197.513 151.102 198.53 151.07V151.09ZM180.93 165C181.833 161.778 183.563 158.849 185.949 156.504C188.335 154.158 191.293 152.478 194.53 151.63L196.28 159.63C196.436 160.577 196.543 161.532 196.6 162.49C196.84 165.57 197.15 169.4 198.93 170.67C199.444 170.968 200.014 171.157 200.604 171.224C201.194 171.291 201.792 171.235 202.36 171.06C203.12 170.89 203.88 170.63 204.58 170.4C205.098 170.209 205.625 170.046 206.16 169.91L217.82 167.36C218.286 169.963 218.174 172.636 217.49 175.19C216.607 178.325 214.978 181.2 212.742 183.568C210.506 185.937 207.729 187.728 204.65 188.79C201.878 189.869 198.884 190.251 195.931 189.903C192.977 189.554 190.154 188.485 187.71 186.79C181 182 178.32 173.42 180.93 165Z" fill="white"/>
<path opacity="0.6" d="M253.91 158.15L261.63 155.59C261.977 155.432 262.362 155.376 262.74 155.43C263.16 155.56 263.39 156.06 263.66 156.64C263.74 157.032 263.918 157.397 264.177 157.703C264.435 158.008 264.766 158.244 265.139 158.388C265.512 158.533 265.916 158.581 266.313 158.529C266.709 158.477 267.087 158.326 267.41 158.09C267.896 157.808 268.47 157.715 269.02 157.83C269.163 157.909 269.297 158.002 269.42 158.11C269.588 158.26 269.773 158.391 269.97 158.5C270.556 158.738 271.2 158.797 271.82 158.67C272.24 158.573 272.679 158.59 273.09 158.72C273.368 158.882 273.61 159.1 273.8 159.36C273.929 159.523 274.07 159.676 274.22 159.82C274.625 160.188 275.098 160.471 275.613 160.655C276.128 160.839 276.674 160.918 277.22 160.89C278.404 160.841 279.578 160.656 280.72 160.34L281.16 160.24C283.896 159.694 286.68 159.426 289.47 159.44L309.64 158.86C309.773 158.86 309.9 158.807 309.994 158.713C310.087 158.62 310.14 158.493 310.14 158.36C310.14 158.227 310.087 158.1 309.994 158.006C309.9 157.913 309.773 157.86 309.64 157.86L289.47 158.44C286.613 158.43 283.762 158.705 280.96 159.26L280.52 159.37C278.52 159.84 276.26 160.37 274.93 159.1C274.805 158.977 274.689 158.847 274.58 158.71C274.271 158.264 273.829 157.927 273.317 157.747C272.805 157.567 272.25 157.554 271.73 157.71C271.306 157.809 270.863 157.789 270.45 157.65C270.317 157.57 270.189 157.48 270.07 157.38C269.883 157.217 269.679 157.076 269.46 156.96C269.065 156.832 268.648 156.787 268.235 156.828C267.822 156.869 267.422 156.996 267.06 157.2C266.581 157.491 266.008 157.587 265.46 157.47C265.06 157.3 264.83 156.79 264.58 156.26C264.468 155.875 264.273 155.52 264.009 155.22C263.744 154.919 263.417 154.68 263.05 154.52C262.477 154.395 261.88 154.451 261.34 154.68L253.62 157.24C253.495 157.285 253.392 157.377 253.332 157.496C253.273 157.615 253.261 157.753 253.3 157.88C253.351 157.992 253.441 158.082 253.553 158.132C253.666 158.181 253.793 158.188 253.91 158.15V158.15Z" fill="white"/>
<path opacity="0.6" d="M251.34 169.11L264.04 168.52C264.51 168.453 264.99 168.512 265.43 168.69C265.517 168.739 265.592 168.805 265.652 168.884C265.713 168.963 265.756 169.053 265.78 169.15C265.798 169.189 265.807 169.232 265.807 169.275C265.807 169.318 265.798 169.361 265.78 169.4C265.72 169.488 265.689 169.593 265.693 169.699C265.696 169.805 265.734 169.908 265.8 169.992C265.865 170.075 265.956 170.136 266.059 170.164C266.161 170.193 266.27 170.188 266.37 170.15C269.37 169.04 272.37 168.02 275.37 167.1C275.469 168.182 275.739 169.242 276.17 170.24C276.204 170.318 276.256 170.386 276.322 170.438C276.388 170.49 276.467 170.525 276.55 170.54H276.63C276.702 170.539 276.772 170.524 276.838 170.495C276.903 170.465 276.962 170.423 277.01 170.37C277.792 169.495 278.66 168.701 279.6 168C279.778 168.369 279.88 168.771 279.9 169.18C279.9 169.268 279.925 169.355 279.971 169.431C280.016 169.507 280.082 169.568 280.16 169.61C280.235 169.652 280.319 169.674 280.405 169.674C280.491 169.674 280.575 169.652 280.65 169.61C281.267 169.242 281.796 168.744 282.2 168.15C283.2 168.32 284.26 168.49 285.29 168.64C293.431 169.815 301.693 169.875 309.85 168.82C309.981 168.803 310.1 168.734 310.181 168.629C310.261 168.524 310.297 168.391 310.28 168.26C310.274 168.194 310.255 168.13 310.223 168.072C310.191 168.013 310.147 167.963 310.094 167.922C310.042 167.882 309.981 167.853 309.917 167.837C309.852 167.821 309.785 167.819 309.72 167.83C301.656 168.87 293.488 168.81 285.44 167.65C284.3 167.48 283.17 167.3 282.04 167.11C281.941 167.091 281.838 167.104 281.746 167.147C281.654 167.19 281.579 167.261 281.53 167.35C281.321 167.697 281.062 168.01 280.76 168.28C280.641 167.817 280.437 167.38 280.16 166.99C280.124 166.936 280.077 166.89 280.021 166.856C279.966 166.821 279.904 166.799 279.84 166.79C279.708 166.77 279.573 166.799 279.46 166.87C278.517 167.542 277.639 168.302 276.84 169.14C276.551 168.274 276.39 167.372 276.36 166.46C276.36 166.383 276.34 166.307 276.304 166.239C276.267 166.171 276.214 166.113 276.15 166.07C276.089 166.025 276.019 165.994 275.944 165.98C275.87 165.967 275.793 165.97 275.72 165.99C272.72 166.88 269.72 167.88 266.72 168.99C266.663 168.761 266.56 168.547 266.418 168.359C266.275 168.172 266.095 168.016 265.89 167.9C265.287 167.623 264.618 167.523 263.96 167.61L251.26 168.19C251.127 168.197 251.003 168.256 250.914 168.354C250.825 168.453 250.778 168.582 250.785 168.715C250.792 168.848 250.851 168.972 250.949 169.061C251.048 169.15 251.177 169.197 251.31 169.19L251.34 169.11Z" fill="white"/>
<path opacity="0.6" d="M264.31 182C265.26 181.84 266.38 182 266.6 182.68C266.6 182.79 266.6 182.92 266.67 183.04C266.675 183.263 266.729 183.482 266.827 183.683C266.926 183.883 267.067 184.059 267.24 184.2C267.432 184.328 267.659 184.394 267.89 184.39C268.239 184.375 268.581 184.283 268.89 184.12L273.13 182.12C273.31 182.015 273.512 181.953 273.72 181.94C273.896 181.996 274.057 182.092 274.19 182.22C274.31 182.31 274.43 182.4 274.56 182.48C275.211 182.801 275.938 182.933 276.66 182.86C279.89 182.78 283.11 182.58 286.23 182.38C290.31 182.13 294.53 181.86 298.77 181.88C298.902 181.877 299.028 181.824 299.121 181.731C299.214 181.637 299.267 181.512 299.27 181.38C299.27 181.247 299.217 181.12 299.124 181.026C299.03 180.933 298.903 180.88 298.77 180.88C294.49 180.88 290.25 181.13 286.15 181.38C283.05 181.58 279.84 181.78 276.63 181.86C276.098 181.926 275.558 181.843 275.07 181.62C274.971 181.566 274.877 181.502 274.79 181.43C274.526 181.183 274.196 181.016 273.84 180.95C273.438 180.922 273.037 181.016 272.69 181.22L268.44 183.22C268.01 183.43 267.86 183.4 267.81 183.37C267.76 183.34 267.7 183.09 267.66 182.88C267.642 182.711 267.609 182.543 267.56 182.38C267.13 181.02 265.46 180.79 264.15 181.01C260.906 181.455 257.634 181.669 254.36 181.65H253.66C253.527 181.65 253.4 181.703 253.306 181.796C253.213 181.89 253.16 182.017 253.16 182.15C253.16 182.283 253.213 182.41 253.306 182.503C253.4 182.597 253.527 182.65 253.66 182.65H254.36C257.688 182.67 261.013 182.453 264.31 182V182Z" fill="white"/>
<path opacity="0.6" d="M286.52 196C293.165 194.964 299.91 194.736 306.61 195.32C306.675 195.328 306.742 195.323 306.805 195.305C306.868 195.286 306.927 195.255 306.978 195.213C307.029 195.17 307.07 195.118 307.1 195.059C307.129 195 307.146 194.936 307.15 194.87C307.161 194.739 307.12 194.609 307.036 194.508C306.952 194.406 306.831 194.343 306.7 194.33C299.921 193.731 293.094 193.959 286.37 195.01C285.85 195.09 285.25 195.06 285.18 194.8C285.17 194.744 285.17 194.686 285.18 194.63C285.171 194.436 285.123 194.246 285.04 194.07C284.975 193.95 284.887 193.845 284.78 193.761C284.674 193.677 284.551 193.615 284.42 193.58C284.118 193.544 283.811 193.572 283.52 193.662C283.229 193.751 282.96 193.901 282.73 194.1C281.623 194.69 280.384 194.99 279.13 194.97L270.45 195.57C270.218 195.594 269.984 195.571 269.761 195.504C269.538 195.438 269.33 195.327 269.15 195.18C269.15 195.18 269.15 195.18 269.15 195.07C269.187 194.997 269.206 194.917 269.206 194.835C269.206 194.753 269.187 194.673 269.15 194.6C269.104 194.531 269.044 194.474 268.973 194.432C268.902 194.391 268.822 194.366 268.74 194.36L260.1 194.09C257.98 194.02 255.4 194.2 254.29 196.16C254.257 196.217 254.235 196.28 254.226 196.345C254.218 196.41 254.223 196.477 254.24 196.54C254.258 196.604 254.288 196.663 254.33 196.715C254.371 196.766 254.422 196.809 254.48 196.84C254.552 196.886 254.635 196.91 254.72 196.91C254.81 196.911 254.899 196.888 254.977 196.842C255.054 196.796 255.118 196.73 255.16 196.65C256.01 195.16 258.23 195.03 260.07 195.09L268.18 195.35C268.205 195.492 268.263 195.625 268.35 195.74C268.626 196.038 268.968 196.268 269.348 196.412C269.727 196.556 270.136 196.61 270.54 196.57L279.22 195.97C280.647 195.996 282.056 195.652 283.31 194.97C283.85 194.6 284.14 194.56 284.17 194.58C284.184 194.639 284.184 194.701 284.17 194.76C284.175 194.879 284.196 194.996 284.23 195.11C284.44 195.85 285.28 196.18 286.52 196Z" fill="white"/>
<path opacity="0.6" d="M173.08 208.25C175.062 207.957 177.084 208.073 179.02 208.59H179.21C179.766 208.814 180.37 208.895 180.966 208.825C181.562 208.755 182.131 208.537 182.62 208.19C182.984 207.96 183.383 207.787 183.8 207.68C184.575 207.614 185.354 207.763 186.05 208.11C186.44 208.25 186.85 208.4 187.27 208.51C189.87 209.15 192.38 207.93 194.75 206.51L195.35 208.1C195.389 208.203 195.461 208.291 195.555 208.349C195.65 208.406 195.76 208.432 195.87 208.42C195.979 208.408 196.082 208.36 196.161 208.285C196.241 208.209 196.293 208.109 196.31 208C196.394 207.758 196.54 207.542 196.733 207.374C196.926 207.205 197.159 207.09 197.41 207.038C197.661 206.987 197.921 207.001 198.165 207.081C198.408 207.16 198.627 207.301 198.8 207.49C198.866 207.593 198.968 207.669 199.086 207.702C199.204 207.735 199.33 207.724 199.44 207.67C200.573 207.325 201.788 207.36 202.9 207.77C206.714 208.647 210.616 209.09 214.53 209.09C216.327 209.091 218.123 208.998 219.91 208.81C220.041 208.795 220.161 208.729 220.243 208.626C220.326 208.523 220.364 208.391 220.35 208.26C220.344 208.194 220.325 208.131 220.293 208.073C220.262 208.015 220.22 207.964 220.168 207.923C220.117 207.882 220.058 207.852 219.995 207.834C219.931 207.816 219.865 207.812 219.8 207.82C214.21 208.417 208.559 208.079 203.08 206.82C201.886 206.423 200.604 206.367 199.38 206.66C199.091 206.397 198.743 206.209 198.364 206.111C197.986 206.013 197.59 206.01 197.21 206.1C196.716 206.194 196.261 206.431 195.9 206.78L195.47 205.63C195.443 205.561 195.402 205.5 195.348 205.45C195.294 205.399 195.23 205.362 195.16 205.34C195.094 205.31 195.022 205.295 194.95 205.295C194.878 205.295 194.806 205.31 194.74 205.34C192.4 206.79 189.92 208.16 187.51 207.56C187.134 207.456 186.763 207.333 186.4 207.19C185.535 206.768 184.566 206.605 183.61 206.72C183.09 206.84 182.593 207.046 182.14 207.33C181.735 207.591 181.284 207.771 180.81 207.86C180.358 207.869 179.907 207.798 179.48 207.65L179.28 207.59C177.21 207.036 175.049 206.913 172.93 207.23C172.8 207.252 172.683 207.324 172.605 207.43C172.527 207.536 172.493 207.669 172.51 207.8C172.516 207.868 172.536 207.933 172.568 207.993C172.601 208.053 172.645 208.105 172.698 208.148C172.752 208.19 172.813 208.22 172.879 208.238C172.944 208.256 173.013 208.26 173.08 208.25Z" fill="white"/>
<path opacity="0.6" d="M220.26 218.77L199.44 218.99C196.394 218.965 193.348 219.118 190.32 219.45C189.43 219.57 188.54 219.72 187.64 219.87C185.546 220.288 183.415 220.492 181.28 220.48C181.038 220.5 180.795 220.44 180.59 220.31C180.51 220.191 180.453 220.059 180.42 219.92C180.352 219.648 180.23 219.393 180.06 219.17C179.848 218.974 179.596 218.826 179.322 218.736C179.048 218.646 178.757 218.617 178.47 218.65H174.18C174.047 218.65 173.92 218.703 173.826 218.796C173.733 218.89 173.68 219.017 173.68 219.15C173.683 219.282 173.736 219.407 173.829 219.501C173.923 219.594 174.048 219.647 174.18 219.65H178.47C178.83 219.65 179.16 219.65 179.3 219.83C179.38 219.949 179.437 220.081 179.47 220.22C179.537 220.499 179.667 220.759 179.85 220.98C180.036 221.15 180.253 221.282 180.49 221.368C180.727 221.454 180.978 221.492 181.23 221.48H181.96C183.925 221.426 185.881 221.208 187.81 220.83C188.69 220.69 189.57 220.54 190.45 220.42C193.439 220.096 196.444 219.946 199.45 219.97L220.26 219.75C220.325 219.75 220.39 219.737 220.45 219.712C220.51 219.686 220.564 219.649 220.61 219.603C220.656 219.556 220.692 219.501 220.716 219.441C220.74 219.38 220.751 219.315 220.75 219.25C220.75 219.117 220.697 218.99 220.604 218.896C220.51 218.803 220.383 218.75 220.25 218.75L220.26 218.77Z" fill="white"/>
<path opacity="0.6" d="M223.7 230.19C223.693 230.124 223.672 230.06 223.64 230.003C223.608 229.945 223.564 229.894 223.512 229.853C223.46 229.812 223.4 229.782 223.336 229.764C223.272 229.746 223.206 229.742 223.14 229.75C216.371 230.601 209.534 230.779 202.73 230.28H202.62C201.695 230.169 200.758 230.192 199.84 230.35C199.593 230.401 199.349 230.468 199.11 230.55C198.683 230.704 198.234 230.785 197.78 230.79C197.346 230.725 196.924 230.593 196.53 230.4C195.94 230.082 195.28 229.92 194.61 229.93C193.91 230.049 193.248 230.334 192.68 230.76C192.05 231.16 191.51 231.51 190.98 231.36C190.747 231.269 190.531 231.141 190.34 230.98L189.99 230.75C188.83 230.01 186.24 229.63 184.89 230.53C181.463 230.611 178.036 230.349 174.66 229.75C174.53 229.727 174.396 229.756 174.288 229.83C174.179 229.905 174.104 230.02 174.08 230.15C174.06 230.281 174.091 230.415 174.167 230.523C174.244 230.631 174.36 230.706 174.49 230.73C177.98 231.358 181.526 231.623 185.07 231.52C185.178 231.517 185.282 231.482 185.37 231.42C186.21 230.75 188.45 230.96 189.46 231.59L189.75 231.8C190.051 232.03 190.389 232.206 190.75 232.32C190.926 232.368 191.108 232.391 191.29 232.39C192.019 232.325 192.714 232.051 193.29 231.6C193.723 231.269 194.226 231.04 194.76 230.93C195.262 230.948 195.754 231.077 196.2 231.31C196.698 231.562 197.236 231.725 197.79 231.79C198.36 231.797 198.926 231.699 199.46 231.5L200.12 231.32C200.949 231.199 201.791 231.199 202.62 231.32H202.72C209.594 231.819 216.501 231.641 223.34 230.79C223.465 230.755 223.572 230.673 223.639 230.561C223.706 230.45 223.728 230.317 223.7 230.19Z" fill="white"/>
<path opacity="0.6" d="M230.32 245.7H226.4C226.146 245.722 225.89 245.688 225.65 245.6C225.51 245.515 225.385 245.406 225.28 245.28C225.16 245.16 225.03 245.05 224.9 244.94C224.162 244.496 223.286 244.34 222.44 244.5C221.905 244.583 221.358 244.546 220.84 244.39L220.69 244.33C220.475 244.221 220.24 244.153 220 244.13C219.688 244.143 219.385 244.236 219.12 244.4L218.61 244.71C218.178 245.026 217.684 245.248 217.16 245.36C216.997 245.373 216.834 245.352 216.68 245.297C216.527 245.241 216.387 245.154 216.27 245.04C216.219 244.99 216.18 244.928 216.158 244.861C216.135 244.793 216.129 244.721 216.14 244.65C216.153 244.572 216.149 244.491 216.126 244.415C216.104 244.339 216.064 244.268 216.01 244.21C215.956 244.152 215.888 244.108 215.813 244.082C215.739 244.056 215.658 244.048 215.58 244.06C214.342 244.237 213.132 244.573 211.98 245.06C211.86 245.113 211.766 245.21 211.717 245.332C211.669 245.453 211.67 245.589 211.72 245.71C211.773 245.832 211.872 245.929 211.995 245.979C212.118 246.03 212.257 246.03 212.38 245.98C213.282 245.593 214.225 245.308 215.19 245.13C215.268 245.344 215.387 245.541 215.54 245.71C215.764 245.942 216.038 246.119 216.342 246.228C216.645 246.337 216.97 246.376 217.29 246.34C217.956 246.213 218.587 245.943 219.14 245.55L219.61 245.26C219.717 245.185 219.841 245.137 219.97 245.12C220.077 245.146 220.18 245.183 220.28 245.23L220.46 245.31C221.105 245.516 221.788 245.577 222.46 245.49C223.067 245.361 223.699 245.446 224.25 245.73C224.345 245.808 224.435 245.892 224.52 245.98C224.7 246.177 224.909 246.345 225.14 246.48C225.485 246.637 225.862 246.709 226.24 246.69H226.36H230.27C230.403 246.69 230.53 246.637 230.624 246.544C230.717 246.45 230.77 246.323 230.77 246.19C230.77 246.057 230.717 245.93 230.624 245.836C230.53 245.743 230.403 245.69 230.27 245.69L230.32 245.7Z" fill="white"/>
<path opacity="0.6" d="M225.62 250.86C223.997 250.83 222.384 251.129 220.88 251.74C219.422 252.357 217.841 252.631 216.26 252.54C215.903 252.516 215.557 252.414 215.244 252.241C214.931 252.068 214.66 251.829 214.45 251.54C214.416 251.483 214.371 251.434 214.318 251.395C214.265 251.355 214.205 251.327 214.14 251.311C214.076 251.295 214.01 251.292 213.944 251.302C213.879 251.313 213.816 251.335 213.76 251.37C213.704 251.403 213.654 251.447 213.615 251.499C213.576 251.551 213.548 251.611 213.532 251.674C213.516 251.738 213.513 251.803 213.523 251.868C213.533 251.932 213.556 251.994 213.59 252.05C213.876 252.47 214.251 252.821 214.688 253.078C215.125 253.336 215.614 253.494 216.12 253.54C216.415 253.579 216.712 253.6 217.01 253.6C218.442 253.521 219.853 253.218 221.19 252.7C222.571 252.138 224.049 251.853 225.54 251.86C225.673 251.871 225.804 251.828 225.905 251.742C226.007 251.656 226.069 251.533 226.08 251.4C226.091 251.267 226.048 251.136 225.962 251.035C225.876 250.933 225.753 250.871 225.62 250.86V250.86Z" fill="white"/>
<path opacity="0.6" d="M171.39 245C171.443 245.01 171.497 245.01 171.55 245L175.82 243.52C176.23 243.38 176.35 243.44 176.36 243.44C176.37 243.506 176.37 243.574 176.36 243.64C176.396 243.916 176.523 244.173 176.72 244.37C176.901 244.499 177.112 244.579 177.333 244.602C177.554 244.625 177.777 244.589 177.98 244.5L181.62 243.36C181.735 243.318 181.857 243.298 181.98 243.3C182.06 243.3 182.17 243.46 182.27 243.58L182.39 243.73C182.773 244.159 183.279 244.46 183.839 244.592C184.398 244.724 184.985 244.682 185.52 244.47C185.63 244.412 185.714 244.315 185.756 244.198C185.798 244.081 185.795 243.952 185.748 243.837C185.7 243.722 185.612 243.629 185.499 243.576C185.387 243.523 185.259 243.514 185.14 243.55C184.797 243.682 184.422 243.707 184.065 243.622C183.708 243.536 183.385 243.343 183.14 243.07L183.04 242.95C182.847 242.663 182.566 242.445 182.24 242.33C181.929 242.265 181.606 242.293 181.31 242.41L177.67 243.55C177.46 243.62 177.38 243.61 177.38 243.63C177.36 243.568 177.343 243.504 177.33 243.44C177.3 243.22 177.217 243.011 177.09 242.83C176.86 242.53 176.39 242.24 175.43 242.57L171.23 244C171.167 244.021 171.11 244.055 171.06 244.099C171.011 244.142 170.97 244.196 170.941 244.255C170.913 244.315 170.896 244.379 170.892 244.445C170.888 244.511 170.898 244.578 170.92 244.64C170.948 244.743 171.01 244.834 171.094 244.899C171.179 244.964 171.283 244.999 171.39 245V245Z" fill="white"/>
<path opacity="0.6" d="M170.25 252C171.096 252.405 172.022 252.615 172.96 252.615C173.898 252.615 174.824 252.405 175.67 252L175.85 251.91C176.107 251.743 176.404 251.647 176.71 251.63C176.999 251.724 177.258 251.893 177.46 252.12C177.58 252.23 177.7 252.34 177.83 252.44C178.223 252.756 178.693 252.962 179.192 253.037C179.691 253.113 180.201 253.055 180.67 252.87C180.95 252.738 181.214 252.577 181.46 252.39C181.627 252.267 181.801 252.154 181.98 252.05C182.146 251.972 182.327 251.932 182.51 251.93C182.288 252.368 182.009 252.775 181.68 253.14C181.633 253.186 181.596 253.24 181.571 253.3C181.546 253.36 181.533 253.425 181.533 253.49C181.533 253.555 181.546 253.62 181.571 253.68C181.596 253.74 181.633 253.794 181.68 253.84C181.773 253.924 181.894 253.971 182.02 253.97C182.089 253.971 182.158 253.957 182.222 253.93C182.286 253.902 182.343 253.861 182.39 253.81C182.904 253.249 183.311 252.598 183.59 251.89C183.626 251.804 183.637 251.709 183.621 251.617C183.605 251.525 183.563 251.439 183.5 251.37C183.236 251.121 182.897 250.966 182.535 250.928C182.174 250.89 181.81 250.971 181.5 251.16C181.274 251.281 181.057 251.418 180.85 251.57C180.659 251.716 180.455 251.843 180.24 251.95C179.936 252.063 179.608 252.095 179.287 252.045C178.967 251.994 178.664 251.861 178.41 251.66L178.1 251.38C177.757 251.005 177.307 250.746 176.81 250.64C176.304 250.618 175.803 250.747 175.37 251.01L175.2 251.1C174.493 251.44 173.719 251.617 172.935 251.617C172.151 251.617 171.377 251.44 170.67 251.1C170.611 251.071 170.547 251.054 170.481 251.05C170.415 251.046 170.349 251.054 170.287 251.076C170.225 251.097 170.168 251.131 170.118 251.174C170.069 251.218 170.029 251.271 170 251.33C169.97 251.39 169.953 251.456 169.95 251.522C169.946 251.589 169.956 251.656 169.98 251.719C170.003 251.782 170.039 251.839 170.086 251.888C170.132 251.936 170.188 251.974 170.25 252V252Z" fill="white"/>
<path opacity="0.6" d="M188.15 259.25C185.38 258.16 182.36 258.38 179.44 258.6L177.72 258.72C175.22 258.86 172.67 258.79 170.2 258.72C170.071 258.729 169.949 258.782 169.856 258.872C169.763 258.962 169.704 259.081 169.69 259.21C169.689 259.276 169.7 259.341 169.724 259.402C169.748 259.463 169.784 259.519 169.829 259.566C169.875 259.614 169.929 259.652 169.989 259.678C170.05 259.704 170.114 259.719 170.18 259.72C172.67 259.78 175.24 259.85 177.78 259.72L179.52 259.6C182.32 259.39 185.23 259.17 187.79 260.18H187.97C188.071 260.179 188.17 260.148 188.254 260.092C188.337 260.035 188.402 259.954 188.44 259.86C188.477 259.74 188.467 259.611 188.414 259.499C188.36 259.386 188.266 259.297 188.15 259.25Z" fill="white"/>
<path opacity="0.6" d="M204.4 168.09C204.366 168.217 204.384 168.353 204.45 168.467C204.515 168.581 204.623 168.665 204.75 168.7C204.829 168.715 204.911 168.715 204.99 168.7C205.078 168.677 205.158 168.632 205.223 168.569C205.288 168.506 205.335 168.427 205.36 168.34C206.362 164.653 208.059 161.19 210.36 158.14C210.405 158.089 210.439 158.029 210.46 157.964C210.481 157.899 210.488 157.83 210.481 157.762C210.475 157.694 210.454 157.628 210.421 157.569C210.388 157.509 210.343 157.457 210.289 157.415C210.235 157.373 210.173 157.343 210.107 157.326C210.041 157.309 209.972 157.306 209.905 157.317C209.837 157.328 209.773 157.352 209.715 157.389C209.658 157.425 209.608 157.473 209.57 157.53C207.186 160.686 205.431 164.271 204.4 168.09V168.09Z" fill="white"/>
<path opacity="0.6" d="M209.21 166.73C209.304 166.759 209.406 166.759 209.5 166.73C209.579 166.712 209.653 166.675 209.716 166.623C209.778 166.571 209.828 166.505 209.86 166.43C210.778 164.204 211.865 162.051 213.11 159.99C213.186 159.991 213.262 159.973 213.33 159.938C213.398 159.903 213.456 159.852 213.5 159.79C213.562 159.71 213.601 159.614 213.612 159.514C213.622 159.413 213.605 159.311 213.56 159.22C213.507 159.134 213.436 159.062 213.351 159.008C213.266 158.955 213.17 158.921 213.07 158.91C212.937 158.903 212.804 158.931 212.685 158.99C212.566 159.05 212.464 159.139 212.39 159.25C211.059 161.422 209.902 163.696 208.93 166.05C208.901 166.113 208.885 166.181 208.883 166.25C208.882 166.319 208.895 166.387 208.921 166.451C208.947 166.515 208.987 166.573 209.036 166.621C209.086 166.669 209.145 166.706 209.21 166.73V166.73Z" fill="white"/>
<path opacity="0.6" d="M213.82 166.06C213.918 166.089 214.022 166.089 214.12 166.06C214.199 166.042 214.273 166.005 214.336 165.953C214.398 165.901 214.448 165.835 214.48 165.76L215.93 162.2C215.965 162.138 215.986 162.069 215.992 161.998C215.998 161.928 215.989 161.856 215.966 161.789C215.942 161.722 215.905 161.661 215.855 161.609C215.806 161.558 215.747 161.518 215.681 161.491C215.615 161.465 215.544 161.452 215.473 161.455C215.402 161.459 215.332 161.477 215.269 161.509C215.205 161.541 215.149 161.586 215.105 161.641C215.06 161.697 215.028 161.761 215.01 161.83L213.55 165.38C213.521 165.442 213.504 165.509 213.502 165.578C213.5 165.647 213.512 165.715 213.537 165.779C213.562 165.842 213.601 165.9 213.649 165.949C213.698 165.997 213.756 166.035 213.82 166.06V166.06Z" fill="white"/>
<path opacity="0.6" d="M314.58 223.58C312.996 220.584 310.7 218.022 307.895 216.12C305.089 214.218 301.86 213.033 298.49 212.67C291.795 212.025 285.103 213.928 279.75 218C277.183 214.714 273.815 212.142 269.97 210.53C263.91 208.14 257.54 209.08 251.55 213.26C248.738 215.154 246.436 217.712 244.845 220.706C243.255 223.7 242.425 227.04 242.43 230.43C242.35 238.65 246.76 247.01 253.94 252.22C256.928 254.354 260.519 255.479 264.19 255.43C268.614 255.366 272.924 254.022 276.6 251.56C277.14 251.21 277.66 250.84 278.16 250.46C279.792 252.21 281.757 253.618 283.939 254.6C286.121 255.582 288.478 256.119 290.87 256.18C291.384 256.183 291.899 256.157 292.41 256.1C302.41 255.1 311.41 249.62 315.32 242.17C318.35 236.43 318.1 230 314.58 223.58ZM276.06 250.74C268.85 255.43 260.39 255.74 254.53 251.44C247.6 246.44 243.35 238.37 243.43 230.44C243.429 227.21 244.22 224.029 245.736 221.177C247.251 218.324 249.443 215.887 252.12 214.08C257.82 210.08 263.87 209.2 269.6 211.46C273.266 213.024 276.476 215.49 278.93 218.63C277.734 219.581 276.617 220.628 275.59 221.76C270.44 227.45 269.74 236.32 273.81 244.37C274.791 246.311 276.025 248.113 277.48 249.73C277 250.09 276.55 250.43 276.06 250.74ZM279.55 219.43C282.36 223.151 284.322 227.441 285.3 232C286.58 238 283.84 244.51 278.3 249.09C276.891 247.526 275.697 245.78 274.75 243.9C270.86 236.22 271.5 227.79 276.37 222.41C277.348 221.333 278.411 220.336 279.55 219.43V219.43ZM314.43 241.73C310.73 248.78 301.84 254.16 292.31 255.13C287.51 255.62 282.71 253.63 278.95 249.86C284.78 245.04 287.63 238.22 286.28 231.86C285.282 227.147 283.265 222.71 280.37 218.86C284.814 215.505 290.212 213.655 295.78 213.58C296.649 213.58 297.517 213.63 298.38 213.73C301.59 214.076 304.666 215.204 307.339 217.016C310.012 218.827 312.199 221.266 313.71 224.12C317.05 230.16 317.3 236.27 314.43 241.73V241.73Z" fill="white"/>
<path opacity="0.6" d="M274 228.23L273.3 227.51C275.381 225.495 277.621 223.652 280 222L280.58 222.82C278.241 224.439 276.041 226.248 274 228.23V228.23Z" fill="white"/>
<path opacity="0.6" d="M273.22 233.57L272.54 232.84L277.54 228.1C278.739 226.844 280.126 225.782 281.65 224.95L282.09 225.85C280.657 226.65 279.352 227.661 278.22 228.85L273.22 233.57Z" fill="white"/>
<path opacity="0.6" d="M283.266 234.236L274.645 240.608L275.24 241.413L283.86 235.041L283.266 234.236Z" fill="white"/>
<path opacity="0.6" d="M276.92 245.3L276.15 244.66C277.809 242.653 279.781 240.927 281.99 239.55L282.52 240.39C280.404 241.718 278.513 243.375 276.92 245.3V245.3Z" fill="white"/>
</g>
<path d="M394 164.22C394 164.22 396.49 165.5 396.48 167.35C396.48 167.35 402.05 164.85 404.09 168.29C406.13 171.73 403.34 172.55 403.34 172.55C403.34 172.55 408.57 174.81 409.29 177.61C410.01 180.41 406.08 182.26 406.08 182.26C406.08 182.26 406.54 190.96 400.28 192.34C394.02 193.72 388.17 195.11 384.69 191.73C381.21 188.35 379.31 184.23 381.16 181.38C380.731 181.38 380.312 181.253 379.956 181.014C379.6 180.776 379.323 180.437 379.16 180.04C378.47 178.61 381.59 176.67 381.59 176.67C381.59 176.67 380.95 176.49 382.05 172.37C383.15 168.25 394 164.22 394 164.22Z" fill="#263238"/>
<path d="M371.7 161.39C369.42 160.26 369.92 156.24 369.92 156.24C369.92 156.24 367.41 157.24 367.16 154.24C366.91 151.24 370.52 148.89 370.52 148.89C370.52 148.89 368.67 149.21 370.52 145.58C372.37 141.95 380.06 138.47 386.74 141.89C387.642 141.404 388.636 141.113 389.657 141.036C390.679 140.958 391.705 141.096 392.67 141.44C396.25 142.59 395.81 145.19 395.81 145.19C395.81 145.19 399.75 146.45 400.64 152.37C401.53 158.29 400 165 398.1 164.59C398.1 164.59 397.57 169 390.63 172.59C383.69 176.18 376.92 166.22 377.89 160.3C377.89 160.27 374.23 162.66 371.7 161.39Z" fill="#263238"/>
<path d="M370.77 200.75C367.079 203.44 363.214 205.882 359.2 208.06C354.42 210.5 349.9 212.89 344.15 213.39C336.09 213.83 325.93 202.51 321.04 196.82C320.645 196.326 320.439 195.707 320.461 195.075C320.482 194.443 320.729 193.839 321.156 193.373C321.584 192.907 322.164 192.609 322.792 192.533C323.42 192.458 324.054 192.609 324.58 192.96C330.38 196.73 336.36 201.62 342.79 203.83C343.11 203.93 343.44 203.9 343.21 203.83C343.36 203.83 343.59 203.77 343.81 203.71C351.13 201.43 358.21 196.23 364.69 192.05C370.49 188.35 376.22 196.49 370.77 200.71V200.75Z" fill="#B65B52"/>
<path d="M373.6 187.61C365.09 186.08 361.78 190.94 351.79 199.42C352.045 202.095 352.896 204.679 354.281 206.982C355.665 209.285 357.548 211.249 359.79 212.73C359.79 212.73 380.62 199.18 373.6 187.61Z" fill="#ABC2AD"/>
<path opacity="0.6" d="M373.2 199.18C369.6 205.81 361.86 211.34 360.2 212.5L359.86 212.73C357.616 211.248 355.733 209.283 354.349 206.978C352.964 204.673 352.114 202.087 351.86 199.41C361.86 190.94 365.17 186.07 373.67 187.61C375.93 191.44 375.2 195.48 373.2 199.18Z" fill="white"/>
<path d="M315.91 187.56L318.52 187.38C319.003 187.345 319.487 187.428 319.931 187.622C320.375 187.815 320.766 188.113 321.07 188.49L324 192C324.573 192.699 324.97 193.525 325.158 194.409C325.346 195.292 325.319 196.209 325.08 197.08L324.78 198.18C320.48 198.77 315.4 196.23 315.4 196.23L313.87 195.67C313.553 195.563 313.261 195.394 313.009 195.174C312.758 194.953 312.553 194.685 312.406 194.385C312.259 194.084 312.173 193.758 312.154 193.424C312.134 193.09 312.18 192.756 312.29 192.44L313.36 189.44C313.56 188.915 313.907 188.459 314.359 188.126C314.811 187.792 315.349 187.596 315.91 187.56V187.56Z" fill="#B55B52"/>
<path opacity="0.2" d="M373.2 199.18C369.6 205.81 361.86 211.34 360.2 212.5C360.8 209.5 362.7 203.08 368.32 198.99C369.013 198.413 369.895 198.114 370.796 198.149C371.698 198.184 372.554 198.551 373.2 199.18V199.18Z" fill="black"/>
<path d="M403.61 188.4C402.197 194.06 401.089 199.791 400.29 205.57C399.83 208.79 399.38 212.38 399.02 216.26C398.266 224.149 397.978 232.077 398.16 240H364.32C364.32 240 358.98 200.42 367.8 187.66C367.8 187.66 385.15 179.49 403.61 188.4Z" fill="#ABC2AD"/>
<path opacity="0.6" d="M403.61 188.4C402.197 194.06 401.089 199.791 400.29 205.57C399.83 208.79 399.38 212.38 399.02 216.26C398.266 224.149 397.978 232.077 398.16 240H364.32C364.32 240 358.98 200.42 367.8 187.66C367.8 187.66 385.15 179.49 403.61 188.4Z" fill="white"/>
<path opacity="0.2" d="M400.29 205.57C399.83 208.79 399.38 212.38 399.02 216.26C396.52 210.491 396.165 204.018 398.02 198.01L400.29 205.57Z" fill="black"/>
<path d="M383.84 218.39H386.45C386.934 218.391 387.41 218.509 387.838 218.733C388.267 218.958 388.634 219.283 388.91 219.68L391.55 223.44C392.071 224.179 392.408 225.033 392.531 225.929C392.655 226.825 392.562 227.737 392.26 228.59L391.88 229.66C387.54 229.92 382.66 227.02 382.66 227.02L381.18 226.34C380.872 226.211 380.592 226.023 380.358 225.785C380.123 225.547 379.938 225.265 379.813 224.955C379.689 224.646 379.627 224.314 379.631 223.98C379.636 223.646 379.707 223.316 379.84 223.01L381.14 220.01C381.386 219.509 381.772 219.089 382.251 218.802C382.73 218.514 383.282 218.371 383.84 218.39V218.39Z" fill="#B55B52"/>
<path d="M386.1 181.92C396.72 181.92 398.05 190.65 398.05 190.65L393.05 188.51L378.47 198.26L374.88 188.42L370.39 189.25C370.39 189.25 376.88 181.92 386.1 181.92Z" fill="#ABC2AD"/>
<path opacity="0.4" d="M386.1 181.92C396.72 181.92 398.05 190.65 398.05 190.65L393.05 188.51L378.47 198.26L374.88 188.42L370.39 189.25C370.39 189.25 376.88 181.92 386.1 181.92Z" fill="white"/>
<path d="M379 197.68L392.69 185.77C389.36 182.36 391.06 172.99 392.44 167.88L382.07 176.21C382.76 180.21 382.6 184.41 376.79 185.78C376.77 185.78 379 197.64 379 197.68Z" fill="#B55B52"/>
<path opacity="0.2" d="M388.19 171.28L382.05 176.2C382.226 177.133 382.32 178.08 382.33 179.03C384.53 178.71 387.7 176.32 388.11 174.03C388.306 173.126 388.333 172.194 388.19 171.28Z" fill="black"/>
<path d="M394.11 155.49C394.26 163.89 394.5 167.43 390.69 172.26C384.95 179.53 374.78 178.41 372.16 170.36C369.81 163.11 369.96 150.59 377.74 146.19C379.38 145.191 381.258 144.65 383.178 144.621C385.098 144.592 386.991 145.076 388.66 146.025C390.33 146.974 391.716 148.351 392.674 150.016C393.632 151.68 394.128 153.57 394.11 155.49V155.49Z" fill="#B55B52"/>
<path d="M386 151.08C391.65 155.92 383.85 164.43 392.94 162.15C402.03 159.87 395.63 147.7 389.58 145.89C383.53 144.08 386 151.08 386 151.08Z" fill="#263238"/>
<path d="M381.58 159.48C381.58 160.18 381.29 160.8 380.85 160.86C380.41 160.92 380.01 160.39 379.97 159.69C379.93 158.99 380.25 158.37 380.69 158.31C381.13 158.25 381.53 158.77 381.58 159.48Z" fill="#263238"/>
<path d="M373.22 160.7C373.22 161.4 372.93 162.02 372.49 162.08C372.05 162.14 371.65 161.61 371.6 160.91C371.55 160.21 371.89 159.59 372.33 159.53C372.77 159.47 373.17 160 373.22 160.7Z" fill="#263238"/>
<path d="M372.53 159.54L370.87 159.27C370.87 159.27 371.79 160.48 372.53 159.54Z" fill="#263238"/>
<path d="M375.62 161.55C375.11 163.238 374.388 164.854 373.47 166.36C373.84 166.57 374.252 166.694 374.677 166.722C375.101 166.75 375.526 166.681 375.92 166.52L375.62 161.55Z" fill="#A02724"/>
<path d="M380 168.61C379.628 168.728 379.247 168.812 378.86 168.86C378.834 168.863 378.808 168.86 378.783 168.853C378.759 168.845 378.736 168.832 378.716 168.815C378.696 168.798 378.68 168.778 378.669 168.754C378.658 168.731 378.651 168.706 378.65 168.68C378.644 168.623 378.661 168.566 378.696 168.522C378.732 168.477 378.783 168.448 378.84 168.44C379.71 168.329 380.545 168.025 381.282 167.549C382.019 167.073 382.641 166.438 383.1 165.69C383.111 165.665 383.126 165.643 383.146 165.625C383.165 165.606 383.189 165.592 383.214 165.583C383.239 165.573 383.266 165.569 383.293 165.57C383.319 165.572 383.346 165.578 383.37 165.59C383.417 165.617 383.451 165.662 383.466 165.714C383.481 165.766 383.475 165.822 383.45 165.87C382.674 167.174 381.446 168.149 380 168.61V168.61Z" fill="#263238"/>
<path d="M396.5 163.12C396.317 163.902 395.973 164.637 395.489 165.278C395.005 165.918 394.392 166.451 393.69 166.84C391.91 167.73 390.69 165.74 390.83 163.46C390.99 161.4 392.11 158.46 394.05 158.55C395.99 158.64 397.06 161 396.5 163.12Z" fill="#B55B52"/>
<path d="M383.12 155.33C383.068 155.341 383.014 155.34 382.962 155.328C382.911 155.316 382.862 155.293 382.82 155.26C382.424 154.953 381.958 154.75 381.464 154.67C380.969 154.59 380.463 154.634 379.99 154.8C379.942 154.821 379.89 154.831 379.837 154.831C379.784 154.83 379.732 154.819 379.685 154.797C379.637 154.775 379.594 154.744 379.558 154.705C379.523 154.666 379.497 154.62 379.48 154.57C379.447 154.465 379.454 154.351 379.5 154.251C379.546 154.151 379.628 154.072 379.73 154.03C380.324 153.811 380.963 153.746 381.589 153.841C382.215 153.935 382.807 154.186 383.31 154.57C383.393 154.64 383.446 154.739 383.459 154.846C383.472 154.954 383.444 155.062 383.38 155.15C383.315 155.236 383.224 155.299 383.12 155.33V155.33Z" fill="#263238"/>
<path d="M370.55 157.15C370.502 157.17 370.451 157.18 370.4 157.18C370.349 157.18 370.298 157.17 370.25 157.15C370.204 157.122 370.164 157.086 370.133 157.042C370.101 156.999 370.078 156.95 370.066 156.898C370.054 156.845 370.053 156.791 370.062 156.738C370.071 156.686 370.091 156.635 370.12 156.59C370.43 156.002 370.872 155.495 371.412 155.108C371.952 154.721 372.574 154.465 373.23 154.36C373.282 154.354 373.334 154.36 373.384 154.376C373.434 154.392 373.479 154.418 373.518 154.453C373.557 154.488 373.588 154.531 373.609 154.579C373.63 154.626 373.64 154.678 373.64 154.73C373.643 154.84 373.605 154.948 373.533 155.031C373.46 155.114 373.36 155.168 373.25 155.18C372.733 155.275 372.245 155.487 371.822 155.799C371.4 156.11 371.053 156.514 370.81 156.98C370.746 157.065 370.654 157.125 370.55 157.15V157.15Z" fill="#263238"/>
<path d="M380.89 158.32L379.23 158.05C379.23 158.05 380.15 159.26 380.89 158.32Z" fill="#263238"/>
<path d="M380.6 147.56C380.6 147.56 382.5 154.33 384.32 150.87C384.32 150.87 384.45 155.97 385.9 156.48C387.35 156.99 387.48 155.33 387.48 155.33C387.48 155.33 388.21 159.41 390.81 159.52C392.18 159.58 393.94 155.76 394.06 154.52C394.29 152.17 392.33 148.33 391.2 146.59C389.61 144.15 385.6 143.38 379.85 143.89C374.1 144.4 369.69 149.61 370.65 152.25C371.61 154.89 376.41 148.38 376.41 148.38C376.41 148.38 375.79 149.76 376.77 150.03C377.75 150.3 380.6 147.56 380.6 147.56Z" fill="#263238"/>
<path d="M409.76 197.42C412.844 205.969 415.022 214.817 416.26 223.82C415.04 236.25 395.4 231.24 387.71 228.82C387.117 228.612 386.618 228.2 386.301 227.657C385.984 227.115 385.869 226.477 385.979 225.859C386.088 225.24 386.414 224.68 386.897 224.279C387.381 223.879 387.992 223.663 388.62 223.67C392.62 223.79 396.82 223.91 400.78 223.67C403.1 223.47 405.85 223.36 407.49 222.31C407.23 222.22 406.67 223.31 406.7 223.65L406.79 224.65C404.79 216.91 402.18 208.5 399.79 200.85C397.92 194.28 407.22 191.08 409.79 197.39L409.76 197.42Z" fill="#B65B52"/>
<path d="M401.49 187.63C407.18 188.51 410.32 192.95 414.97 204.4C409.59 213.67 401.57 214.93 401.57 214.93C401.57 214.93 393.66 200.88 401.49 187.63Z" fill="#ABC2AD"/>
<path opacity="0.6" d="M401.49 187.63C407.18 188.51 410.32 192.95 414.97 204.4C409.59 213.67 401.57 214.93 401.57 214.93C401.57 214.93 393.66 200.88 401.49 187.63Z" fill="white"/>
<path opacity="0.2" d="M378.79 201.21C378.79 201.343 378.751 201.472 378.677 201.582C378.603 201.692 378.499 201.778 378.376 201.829C378.254 201.88 378.119 201.893 377.989 201.867C377.859 201.841 377.74 201.778 377.646 201.684C377.553 201.59 377.489 201.471 377.463 201.341C377.437 201.211 377.45 201.076 377.501 200.954C377.552 200.831 377.638 200.727 377.748 200.653C377.858 200.579 377.987 200.54 378.12 200.54C378.298 200.54 378.468 200.611 378.594 200.736C378.719 200.862 378.79 201.032 378.79 201.21V201.21Z" fill="black"/>
<path opacity="0.2" d="M377.46 211C377.46 211.133 377.421 211.262 377.347 211.372C377.273 211.482 377.169 211.568 377.046 211.619C376.924 211.67 376.789 211.683 376.659 211.657C376.529 211.631 376.41 211.567 376.316 211.474C376.223 211.38 376.159 211.261 376.133 211.131C376.107 211.001 376.12 210.866 376.171 210.744C376.222 210.621 376.308 210.517 376.418 210.443C376.528 210.369 376.657 210.33 376.79 210.33C376.968 210.33 377.138 210.401 377.264 210.526C377.389 210.652 377.46 210.822 377.46 211V211Z" fill="black"/>
<path opacity="0.2" d="M376.68 221.21C376.68 221.298 376.663 221.385 376.629 221.466C376.595 221.548 376.546 221.622 376.484 221.684C376.422 221.746 376.348 221.795 376.266 221.829C376.185 221.863 376.098 221.88 376.01 221.88C375.922 221.88 375.836 221.863 375.755 221.829C375.674 221.795 375.601 221.746 375.54 221.683C375.478 221.621 375.43 221.547 375.397 221.466C375.365 221.384 375.349 221.298 375.35 221.21C375.349 221.123 375.365 221.037 375.397 220.956C375.43 220.875 375.479 220.802 375.54 220.74C375.602 220.679 375.675 220.63 375.756 220.597C375.837 220.565 375.923 220.549 376.01 220.55C376.098 220.549 376.184 220.565 376.266 220.597C376.347 220.63 376.421 220.678 376.483 220.74C376.545 220.801 376.595 220.874 376.629 220.955C376.663 221.036 376.68 221.122 376.68 221.21V221.21Z" fill="black"/>
<path opacity="0.2" d="M376.68 232.06C376.68 232.148 376.663 232.235 376.629 232.316C376.595 232.398 376.546 232.472 376.484 232.534C376.422 232.596 376.348 232.645 376.266 232.679C376.185 232.713 376.098 232.73 376.01 232.73C375.877 232.73 375.748 232.691 375.638 232.617C375.528 232.543 375.442 232.439 375.391 232.316C375.34 232.194 375.327 232.059 375.353 231.929C375.379 231.799 375.443 231.68 375.536 231.586C375.63 231.493 375.749 231.429 375.879 231.403C376.009 231.377 376.144 231.39 376.266 231.441C376.389 231.492 376.493 231.578 376.567 231.688C376.641 231.798 376.68 231.927 376.68 232.06V232.06Z" fill="black"/>
<path d="M321.8 189.4L307.8 195.78L305.66 195.92L307.17 194.4L321.17 188.03C321.304 187.969 321.457 187.962 321.595 188.013C321.734 188.063 321.847 188.167 321.91 188.3L322.07 188.66C322.132 188.794 322.138 188.947 322.087 189.086C322.037 189.224 321.933 189.337 321.8 189.4V189.4Z" fill="white"/>
<path d="M363.42 241.91L363.98 237.19H398.58L399.85 241.31L363.42 241.91Z" fill="#263238"/>
<path d="M331.83 413.93C338.39 413.93 339.26 413.82 342.95 413.7C346.11 413.59 346.86 413.98 349.4 413.93C351.52 413.88 351.45 411.85 350.79 409.51C350.46 408.34 349.96 405.86 349.51 403.97L339.89 403.27C338.54 405.85 335.48 409.54 331.78 410.03C328.25 410.51 329.21 413.93 331.83 413.93Z" fill="#ABC2AD"/>
<path d="M379.4 413.93C385.96 413.93 386.83 413.82 390.52 413.7C393.68 413.59 394.43 413.98 396.97 413.93C399.09 413.88 398.97 411.85 398.36 409.51C398.03 408.34 397.53 405.86 397.08 403.97L387.46 403.27C386.1 405.85 383.05 409.54 379.35 410.03C375.82 410.51 376.78 413.93 379.4 413.93Z" fill="#ABC2AD"/>
<path opacity="0.4" d="M331.83 413.93C338.39 413.93 339.26 413.82 342.95 413.7C346.11 413.59 346.86 413.98 349.4 413.93C351.52 413.88 351.45 411.85 350.79 409.51C350.46 408.34 349.96 405.86 349.51 403.97L339.89 403.27C338.54 405.85 335.48 409.54 331.78 410.03C328.25 410.51 329.21 413.93 331.83 413.93Z" fill="white"/>
<path opacity="0.4" d="M379.4 413.93C385.96 413.93 386.83 413.82 390.52 413.7C393.68 413.59 394.43 413.98 396.97 413.93C399.09 413.88 398.97 411.85 398.36 409.51C398.03 408.34 397.53 405.86 397.08 403.97L387.46 403.27C386.1 405.85 383.05 409.54 379.35 410.03C375.82 410.51 376.78 413.93 379.4 413.93Z" fill="white"/>
<path d="M388.46 238.57H364C362.52 247.64 355.63 290.92 354.38 314.48C352.86 342.22 344 386.65 339.27 404C340.59 405.19 346.81 405.69 349.75 404.22C349.75 404.22 375.41 352.98 372.08 320.95C391.49 266.3 389.09 242.59 388.46 238.57Z" fill="#263238"/>
<path opacity="0.2" d="M378.43 301.73C381.48 291.67 383.68 282.95 385.24 275.48C383.69 269.63 381.5 264.63 378.53 261.62C378.53 261.62 374.24 277.9 378.43 301.73Z" fill="black"/>
<path d="M398.49 238.57H373C374.75 252 380.14 292.99 383.47 314.65C387.69 342.11 388.23 386.16 387.17 404.12C388.71 405.01 394.32 406.12 397.35 405.12C397.35 405.12 411.67 349.59 402.16 317.34C410.15 258.7 400.08 240.94 398.49 238.57Z" fill="#263238"/>
<path d="M387.94 241.06H399.39L398.69 237.8H387.94V241.06Z" fill="#263238"/>
<path d="M367.14 237.8H363.71L363.42 241.06H367.14V237.8Z" fill="#263238"/>
<path d="M386.82 237.8H368.28V241.06H386.82V237.8Z" fill="#263238"/>
<path opacity="0.6" d="M387.94 241.06H399.39L398.69 237.8H387.94V241.06Z" fill="white"/>
<path opacity="0.6" d="M367.14 237.8H363.71L363.42 241.06H367.14V237.8Z" fill="white"/>
<path opacity="0.6" d="M386.82 237.8H368.28V241.06H386.82V237.8Z" fill="white"/>
<path d="M378.58 237.55H373.44C373.131 237.55 372.88 237.801 372.88 238.11V240.75C372.88 241.059 373.131 241.31 373.44 241.31H378.58C378.889 241.31 379.14 241.059 379.14 240.75V238.11C379.14 237.801 378.889 237.55 378.58 237.55Z" fill="white"/>
<path d="M113.259 295.242L108.543 295.888L117.877 364.032L122.593 363.386L113.259 295.242Z" fill="#263238"/>
<path d="M83.7816 295.243L79.0656 295.889L88.4001 364.033L93.1161 363.387L83.7816 295.243Z" fill="#263238"/>
<g opacity="0.3">
<path opacity="0.3" d="M113.259 295.242L108.543 295.888L117.877 364.032L122.593 363.386L113.259 295.242Z" fill="white"/>
</g>
<g opacity="0.6">
<path opacity="0.6" d="M83.7816 295.243L79.0656 295.889L88.4001 364.033L93.1161 363.387L83.7816 295.243Z" fill="white"/>
</g>
<path d="M116.8 413.57H123.43L124.24 378.53L124.59 363.72H115.65L115.99 378.53L116.8 413.57Z" fill="#263238"/>
<path opacity="0.6" d="M116.8 413.57H123.43L124.24 378.53L124.59 363.72H115.65L115.99 378.53L116.8 413.57Z" fill="white"/>
<path opacity="0.2" d="M124.59 363.72L124.24 378.94H115.99L115.65 363.72H124.59Z" fill="black"/>
<path d="M150.65 413.57L147.77 364.76H140L144.04 413.57H150.65Z" fill="#263238"/>
<path opacity="0.7" d="M144.03 413.57H150.65L148.2 371.99L147.78 364.67H140.01L140.6 371.99L144.03 413.57Z" fill="white"/>
<path opacity="0.2" d="M140.01 364.67L140.6 372.28H148.2L147.78 364.67H140.01Z" fill="black"/>
<path d="M96.19 413.57L100.22 364.76H92.46L89.57 413.57H96.19Z" fill="#263238"/>
<path opacity="0.7" d="M96.2 413.57L99.62 371.99L100.22 364.67H92.45L92.02 371.99L89.58 413.57H96.2Z" fill="white"/>
<path opacity="0.2" d="M100.22 364.67L99.62 372.28H92.02L92.45 364.67H100.22Z" fill="black"/>
<path d="M93.65 356.43H146.58C147.284 356.43 147.981 356.569 148.631 356.838C149.281 357.107 149.872 357.502 150.37 358C150.868 358.498 151.263 359.089 151.532 359.739C151.801 360.389 151.94 361.086 151.94 361.79V367.55H88.29V361.79C88.29 360.368 88.8547 359.005 89.8599 358C90.8651 356.995 92.2284 356.43 93.65 356.43V356.43Z" fill="#263238"/>
<path d="M116.68 318.35H81.53C80.419 318.351 79.3465 317.944 78.5153 317.207C77.6842 316.469 77.1521 315.453 77.02 314.35L74.55 295.05C74.5109 294.665 74.5528 294.276 74.6732 293.909C74.7935 293.541 74.9895 293.202 75.2486 292.915C75.5076 292.628 75.824 292.398 76.1774 292.24C76.5307 292.083 76.9131 292.001 77.3 292H112.46C113.571 291.999 114.644 292.406 115.475 293.143C116.306 293.881 116.838 294.897 116.97 296L119.44 315.3C119.476 315.685 119.432 316.074 119.31 316.441C119.187 316.808 118.99 317.145 118.731 317.432C118.471 317.719 118.155 317.949 117.802 318.107C117.449 318.265 117.067 318.348 116.68 318.35V318.35Z" fill="#263238"/>
<path opacity="0.8" d="M116.68 318.35H81.53C80.419 318.351 79.3465 317.944 78.5153 317.207C77.6842 316.469 77.1521 315.453 77.02 314.35L74.55 295.05C74.5109 294.665 74.5528 294.276 74.6732 293.909C74.7935 293.541 74.9895 293.202 75.2486 292.915C75.5076 292.628 75.824 292.398 76.1774 292.24C76.5307 292.083 76.9131 292.001 77.3 292H112.46C113.571 291.999 114.644 292.406 115.475 293.143C116.306 293.881 116.838 294.897 116.97 296L119.44 315.3C119.476 315.685 119.432 316.074 119.31 316.441C119.187 316.808 118.99 317.145 118.731 317.432C118.471 317.719 118.155 317.949 117.802 318.107C117.449 318.265 117.067 318.348 116.68 318.35V318.35Z" fill="white"/>
<path opacity="0.2" d="M93.65 356.43H146.58C147.284 356.43 147.981 356.569 148.631 356.838C149.281 357.107 149.872 357.502 150.37 358C150.868 358.498 151.263 359.089 151.532 359.739C151.801 360.389 151.94 361.086 151.94 361.79V367.55H88.29V361.79C88.29 360.368 88.8547 359.005 89.8599 358C90.8651 356.995 92.2284 356.43 93.65 356.43V356.43Z" fill="white"/>
<path d="M152.82 361.99H87.4C86.2071 361.99 85.24 362.957 85.24 364.15V365.39C85.24 366.583 86.2071 367.55 87.4 367.55H152.82C154.013 367.55 154.98 366.583 154.98 365.39V364.15C154.98 362.957 154.013 361.99 152.82 361.99Z" fill="#263238"/>
<path opacity="0.8" d="M152.82 361.99H87.4C86.2071 361.99 85.24 362.957 85.24 364.15V365.39C85.24 366.583 86.2071 367.55 87.4 367.55H152.82C154.013 367.55 154.98 366.583 154.98 365.39V364.15C154.98 362.957 154.013 361.99 152.82 361.99Z" fill="white"/>
<path d="M138.18 293.47L144.5 300C146.59 302.16 148.73 304.35 150.82 306.2C151.09 306.45 151.33 306.64 151.58 306.85L151.95 307.17L152.28 307.4C152.474 307.556 152.678 307.7 152.89 307.83C153.08 307.96 153.41 308.11 153.66 308.26C154.84 308.87 156.23 309.44 157.6 310.02C160.38 311.17 163.26 312.33 166.08 313.57C166.544 313.782 166.92 314.148 167.144 314.606C167.368 315.064 167.426 315.585 167.307 316.081C167.189 316.577 166.903 317.017 166.496 317.325C166.09 317.633 165.589 317.79 165.08 317.77C161.892 317.594 158.721 317.193 155.59 316.57C153.95 316.248 152.331 315.831 150.74 315.32C150.29 315.16 149.89 315.03 149.39 314.8L148.65 314.46L147.99 314.07L147.34 313.68L146.78 313.3C146.41 313.05 146.03 312.79 145.7 312.54C143.125 310.557 140.665 308.431 138.33 306.17C136.04 303.97 133.87 301.73 131.73 299.36C130.934 298.514 130.507 297.387 130.543 296.226C130.579 295.065 131.074 293.966 131.92 293.17C132.766 292.374 133.894 291.947 135.054 291.983C136.215 292.019 137.314 292.514 138.11 293.36L138.18 293.47Z" fill="#E9B376"/>
<path opacity="0.1" d="M138.18 293.47L144.5 300C146.59 302.16 148.73 304.35 150.82 306.2C151.09 306.45 151.33 306.64 151.58 306.85L151.95 307.17L152.28 307.4C152.474 307.556 152.678 307.7 152.89 307.83C153.08 307.96 153.41 308.11 153.66 308.26C154.84 308.87 156.23 309.44 157.6 310.02C160.38 311.17 163.26 312.33 166.08 313.57C166.544 313.782 166.92 314.148 167.144 314.606C167.368 315.064 167.426 315.585 167.307 316.081C167.189 316.577 166.903 317.017 166.496 317.325C166.09 317.633 165.589 317.79 165.08 317.77C161.892 317.594 158.721 317.193 155.59 316.57C153.95 316.248 152.331 315.831 150.74 315.32C150.29 315.16 149.89 315.03 149.39 314.8L148.65 314.46L147.99 314.07L147.34 313.68L146.78 313.3C146.41 313.05 146.03 312.79 145.7 312.54C143.125 310.557 140.665 308.431 138.33 306.17C136.04 303.97 133.87 301.73 131.73 299.36C130.934 298.514 130.507 297.387 130.543 296.226C130.579 295.065 131.074 293.966 131.92 293.17C132.766 292.374 133.894 291.947 135.054 291.983C136.215 292.019 137.314 292.514 138.11 293.36L138.18 293.47Z" fill="black"/>
<path d="M169.17 312.85L167.33 311.74C166.99 311.533 166.606 311.411 166.209 311.383C165.813 311.355 165.415 311.423 165.05 311.58L161.58 313.07C160.896 313.365 160.292 313.82 159.819 314.395C159.346 314.971 159.017 315.652 158.86 316.38L158.67 317.29C161.59 319.35 166.26 319.42 166.26 319.42L167.59 319.59C167.862 319.633 168.14 319.621 168.407 319.555C168.675 319.489 168.926 319.371 169.148 319.207C169.369 319.044 169.556 318.838 169.697 318.601C169.838 318.365 169.931 318.103 169.97 317.83L170.34 315.2C170.392 314.737 170.309 314.269 170.101 313.853C169.894 313.436 169.57 313.088 169.17 312.85V312.85Z" fill="#EBB376"/>
<path opacity="0.1" d="M169.17 312.85L167.33 311.74C166.99 311.533 166.606 311.411 166.209 311.383C165.813 311.355 165.415 311.423 165.05 311.58L161.58 313.07C160.896 313.365 160.292 313.82 159.819 314.395C159.346 314.971 159.017 315.652 158.86 316.38L158.67 317.29C161.59 319.35 166.26 319.42 166.26 319.42L167.59 319.59C167.862 319.633 168.14 319.621 168.407 319.555C168.675 319.489 168.926 319.371 169.148 319.207C169.369 319.044 169.556 318.838 169.697 318.601C169.838 318.365 169.931 318.103 169.97 317.83L170.34 315.2C170.392 314.737 170.309 314.269 170.101 313.853C169.894 313.436 169.57 313.088 169.17 312.85V312.85Z" fill="black"/>
<path d="M161.54 396.29L160.53 402.6L159.61 408.42H151.18L151.91 400.97L152.6 393.84L161.54 396.29Z" fill="#EBB376"/>
<path d="M159.13 405.11L150.57 404.58C150.428 404.566 150.287 404.609 150.176 404.699C150.066 404.788 149.995 404.918 149.98 405.06V405.06L149.14 411.81C149.115 412.164 149.232 412.513 149.464 412.781C149.697 413.049 150.026 413.214 150.38 413.24C153.38 413.38 154.81 413.3 158.58 413.5C161.902 413.844 165.243 413.951 168.58 413.82C171.77 413.51 171.38 410.37 170.01 410.22C166.74 409.85 162.41 407.44 160.37 405.62C160.021 405.323 159.587 405.145 159.13 405.11V405.11Z" fill="#263238"/>
<path d="M161.76 406.58C161.081 406.522 160.41 406.387 159.76 406.18C159.727 406.172 159.697 406.155 159.673 406.13C159.65 406.105 159.635 406.074 159.63 406.04C159.629 406.006 159.636 405.972 159.65 405.941C159.664 405.91 159.684 405.882 159.71 405.86C159.97 405.7 162.22 404.37 163.13 404.78C163.235 404.829 163.326 404.904 163.392 404.999C163.459 405.094 163.5 405.205 163.51 405.32C163.571 405.495 163.577 405.685 163.527 405.864C163.477 406.043 163.373 406.202 163.23 406.32C162.792 406.593 162.265 406.686 161.76 406.58ZM162.96 405.14C162.48 404.91 161.17 405.47 160.25 405.98C161.59 406.34 162.6 406.36 162.98 405.98C163.057 405.897 163.113 405.796 163.143 405.686C163.173 405.576 163.175 405.461 163.15 405.35C163.144 405.294 163.123 405.24 163.09 405.194C163.057 405.149 163.012 405.113 162.96 405.09V405.14Z" fill="#ABC2AD"/>
<path d="M159.78 406.18C159.768 406.187 159.754 406.191 159.74 406.191C159.726 406.191 159.712 406.187 159.7 406.18C159.653 406.147 159.621 406.097 159.61 406.04C159.61 405.97 159.61 403.74 160.39 403.04C160.496 402.952 160.62 402.889 160.753 402.855C160.886 402.82 161.025 402.815 161.16 402.84C161.313 402.854 161.457 402.918 161.57 403.023C161.682 403.128 161.756 403.268 161.78 403.42C161.9 404.26 160.66 405.78 159.87 406.18C159.857 406.189 159.841 406.194 159.825 406.194C159.809 406.194 159.793 406.189 159.78 406.18ZM161.01 403.18C160.868 403.172 160.729 403.219 160.62 403.31C160.155 404.017 159.93 404.855 159.98 405.7C160.715 405.156 161.227 404.364 161.42 403.47C161.42 403.36 161.35 403.23 161.1 403.19L161.01 403.18Z" fill="#ABC2AD"/>
<path opacity="0.2" d="M161.54 396.29L160.53 402.6L151.91 400.97L152.6 393.84L161.54 396.29Z" fill="black"/>
<path d="M162.71 400.93L162.4 401.76L149.27 398.59C149.27 398.59 156.49 368.46 153.78 364.59C151.49 361.3 140.62 360.59 125.3 359.85L116.3 359.4C96.3 358.4 138.08 338.1 138.08 338.1C138.08 338.1 164.81 339.22 171.78 348.42C178.19 356.84 164.9 394.84 162.71 400.93Z" fill="#ABC2AD"/>
<path opacity="0.2" d="M158.4 397.92L162.71 400.92L162.4 401.75L149.27 398.58C149.27 398.58 156.49 368.45 153.78 364.58C151.49 361.29 140.62 360.58 125.3 359.84L123.51 354.59L134.94 341.29C134.94 341.29 159.44 344.29 164.32 354.02C169.2 363.75 158.4 397.92 158.4 397.92Z" fill="black"/>
<path d="M149.25 303.45L141.59 312L141.41 311.91L141.18 311.8H141.13C140.83 311.65 140.39 311.42 139.86 311.12L139.34 310.84L139.21 310.76L138.66 310.44L137.93 310C136.486 309.141 135.118 308.161 133.84 307.07C133.63 306.87 133.42 306.68 133.23 306.48C132.837 306.102 132.482 305.687 132.17 305.24C132.123 305.174 132.082 305.104 132.05 305.03C132.018 304.987 131.991 304.94 131.97 304.89C131.915 304.79 131.869 304.687 131.83 304.58L131.74 304.35L131.68 304.16L131.56 303.76C131.56 303.61 131.5 303.46 131.46 303.3C131.42 303.14 131.41 302.99 131.38 302.83C131.35 302.67 131.38 302.74 131.38 302.7C131.38 302.58 131.38 302.46 131.33 302.34C131.28 302.22 131.33 301.99 131.28 301.81C131.23 301.63 131.28 301.45 131.28 301.27C131.28 301.09 131.28 300.89 131.28 300.7C131.15 295.43 132.88 288.19 135.42 289.02C140.49 290.7 146.79 299.66 148.73 302.58C149 303.11 149.25 303.45 149.25 303.45Z" fill="#ABC2AD"/>
<path opacity="0.6" d="M149.25 303.45L141.59 312L141.41 311.91L141.18 311.8C140.88 311.65 140.44 311.42 139.91 311.12L139.39 310.84L139.26 310.76L138.71 310.44L137.98 310C136.536 309.141 135.168 308.161 133.89 307.07C133.68 306.87 133.47 306.68 133.28 306.48C132.887 306.102 132.532 305.687 132.22 305.24C132.173 305.174 132.132 305.104 132.1 305.03C132.068 304.987 132.041 304.94 132.02 304.89C131.965 304.79 131.919 304.687 131.88 304.58L131.79 304.35L131.73 304.16L131.61 303.76C131.61 303.61 131.55 303.46 131.51 303.3C131.47 303.14 131.46 302.99 131.43 302.83C131.4 302.67 131.43 302.74 131.43 302.7C131.43 302.58 131.43 302.46 131.38 302.34C131.33 302.22 131.38 301.99 131.33 301.81C131.28 301.63 131.33 301.45 131.33 301.27C131.33 301.09 131.33 300.89 131.33 300.7C131.2 295.43 132.93 288.19 135.47 289.02C140.54 290.7 146.84 299.66 148.78 302.58C149 303.11 149.25 303.45 149.25 303.45Z" fill="white"/>
<path d="M150.11 303.81L142.56 313.32L141.1 312.65L140.59 312.42L141.13 311.76L141.19 311.69L148.65 302.53L148.85 302.28L150.11 303.81Z" fill="#ABC2AD"/>
<path opacity="0.2" d="M141.19 311.69C141.195 311.72 141.195 311.75 141.19 311.78C141.19 311.78 141.19 311.78 141.19 311.78C141.178 312.068 141.151 312.355 141.11 312.64L140.6 312.41L141.14 311.75C140.84 311.6 140.4 311.37 139.87 311.07L139.35 310.79L139.22 310.71L138.67 310.39L137.94 309.95C136.496 309.091 135.128 308.111 133.85 307.02C133.64 306.82 133.43 306.63 133.24 306.43C132.847 306.052 132.492 305.637 132.18 305.19C132.133 305.125 132.092 305.054 132.06 304.98C132.028 304.937 132.001 304.89 131.98 304.84C131.925 304.74 131.879 304.637 131.84 304.53L131.75 304.3L131.69 304.11L131.57 303.71C131.57 303.56 131.51 303.41 131.47 303.25C131.43 303.09 131.42 302.94 131.39 302.78C131.36 302.62 131.39 302.69 131.39 302.65L135.92 294.08C135.92 294.08 141.83 302.05 141.19 311.69Z" fill="black"/>
<path d="M96.88 334.41C96.88 334.41 88.04 359.41 113.11 359.41C138.18 359.41 140.2 349.64 138.11 338.12L96.88 334.41Z" fill="#ABC2AD"/>
<path d="M137.77 396.29L136.76 402.6L135.84 408.42H127.4L128.13 400.97L128.83 393.84L137.77 396.29Z" fill="#EBB376"/>
<path d="M135.36 405.11L126.8 404.58C126.729 404.572 126.657 404.578 126.588 404.597C126.52 404.617 126.456 404.65 126.4 404.695C126.344 404.739 126.298 404.795 126.263 404.857C126.229 404.92 126.207 404.989 126.2 405.06V405.06L125.36 411.81C125.348 411.986 125.37 412.163 125.427 412.33C125.483 412.497 125.572 412.652 125.688 412.785C125.804 412.918 125.945 413.026 126.104 413.104C126.262 413.183 126.434 413.229 126.61 413.24C129.61 413.38 131.03 413.3 134.8 413.5C138.141 413.846 141.503 413.953 144.86 413.82C148.05 413.51 147.66 410.37 146.28 410.22C143.01 409.85 138.69 407.44 136.64 405.62C136.28 405.316 135.831 405.136 135.36 405.11V405.11Z" fill="#263238"/>
<path d="M138 406.58C137.321 406.52 136.65 406.386 136 406.18C135.967 406.173 135.938 406.156 135.916 406.131C135.894 406.105 135.882 406.073 135.88 406.04C135.874 406.005 135.879 405.97 135.893 405.938C135.907 405.906 135.931 405.879 135.96 405.86C136.21 405.7 138.46 404.37 139.38 404.78C139.484 404.83 139.573 404.906 139.64 405.001C139.706 405.095 139.748 405.205 139.76 405.32C139.809 405.496 139.809 405.683 139.76 405.859C139.711 406.036 139.614 406.195 139.48 406.32C139.039 406.596 138.508 406.689 138 406.58ZM139.21 405.14C138.72 404.91 137.41 405.47 136.49 405.98C137.84 406.34 138.84 406.36 139.22 405.98C139.301 405.899 139.36 405.799 139.39 405.688C139.42 405.577 139.42 405.461 139.39 405.35C139.384 405.295 139.365 405.242 139.333 405.197C139.302 405.152 139.259 405.115 139.21 405.09V405.14Z" fill="#ABC2AD"/>
<path d="M136 406.18C135.99 406.187 135.978 406.191 135.965 406.191C135.952 406.191 135.94 406.187 135.93 406.18C135.905 406.166 135.884 406.145 135.868 406.121C135.852 406.097 135.843 406.069 135.84 406.04C135.84 405.97 135.84 403.74 136.61 403.04C136.719 402.954 136.845 402.892 136.979 402.858C137.113 402.824 137.253 402.817 137.39 402.84C137.541 402.856 137.683 402.921 137.794 403.026C137.904 403.131 137.977 403.27 138 403.42C138.12 404.26 136.88 405.78 136.1 406.18C136.085 406.19 136.068 406.195 136.05 406.195C136.032 406.195 136.015 406.19 136 406.18ZM137.24 403.18C137.098 403.17 136.958 403.217 136.85 403.31C136.386 404.018 136.158 404.855 136.2 405.7C136.935 405.157 137.447 404.364 137.64 403.47C137.64 403.36 137.58 403.23 137.33 403.19L137.24 403.18Z" fill="#ABC2AD"/>
<path opacity="0.2" d="M137.77 396.29L136.76 402.6L128.13 400.97L128.83 393.84L137.77 396.29Z" fill="black"/>
<path d="M148 348.39C144.09 343.24 134 340.62 125.85 339.31L114.1 359.42C126.42 359.93 130.21 363.53 130.49 364.67C131.82 370.13 125.49 398.59 125.49 398.59L138.62 401.76C138.62 401.76 155 357.59 148 348.39Z" fill="#ABC2AD"/>
<path d="M94.46 339.31C94.46 339.31 99.05 305.62 102.25 298.71C105.45 291.8 110.61 282.34 132.97 287.81C132.97 287.81 141.45 290.2 139.97 300.65C138.49 311.1 138.05 338.22 138.05 338.22L94.46 339.31Z" fill="#ABC2AD"/>
<path opacity="0.6" d="M140 300.65C139.57 303.73 139.23 308.24 139 313.08C138.94 314.2 138.88 315.35 138.82 316.5C138.69 319.16 138.58 321.84 138.49 324.36C138.49 324.8 138.49 325.24 138.44 325.67C138.21 332.67 138.11 338.22 138.11 338.22L94.49 339.32C94.49 339.32 99.08 305.61 102.28 298.71C105.48 291.81 110.64 282.34 133 287.82C133 287.82 141.45 290.2 140 300.65Z" fill="white"/>
<path d="M129.58 294.08L132.17 289.88L135.73 294.08C135.73 294.08 134.73 282.94 121.78 282.69C120.356 282.591 118.94 282.968 117.752 283.76C116.565 284.553 115.675 285.717 115.22 287.07C117.49 290.74 123.5 294.72 123.5 294.72L125.89 291.1L129.58 294.08Z" fill="#ABC2AD"/>
<path d="M154.476 300.108L152.48 300.879L158.778 317.185L160.775 316.414L154.476 300.108Z" fill="#263238"/>
<path d="M119.5 273.26C119.859 275.79 119.966 278.349 119.82 280.9C119.758 282.624 119.372 284.32 118.68 285.9C118.68 285.9 122.13 289.24 125.25 289.96L128.7 292.52L128.47 289.02C128.47 289.02 128.47 288.84 128.47 288.53C128.39 287.18 128.47 282.94 132.33 281.35C137.57 279.11 119.5 273.26 119.5 273.26Z" fill="#EBB376"/>
<path opacity="0.2" d="M119.5 273.26C119.859 275.79 119.966 278.349 119.82 280.9C122.01 284.16 124.82 287.28 128.43 288.5C128.35 287.15 128.43 282.91 132.29 281.32C137.57 279.11 119.5 273.26 119.5 273.26Z" fill="black"/>
<path d="M133.48 253.14C133.48 253.14 138.9 256.21 137.98 262.43C137.06 268.65 126.91 258.07 126.91 258.07L133.48 253.14Z" fill="#263238"/>
<path d="M112.66 269.43C116.47 276.86 118.27 281.43 124.29 283.43C133.35 286.52 142.46 278.48 141.29 269.96C140.22 262.29 134.15 251.46 124.43 252.03C114.71 252.6 108.86 262 112.66 269.43Z" fill="#EBB376"/>
<path d="M127.5 268.47C127.77 269.25 128.41 269.76 128.92 269.57C129.43 269.38 129.63 268.57 129.37 267.82C129.11 267.07 128.46 266.54 127.94 266.71C127.42 266.88 127.23 267.68 127.5 268.47Z" fill="#263238"/>
<path d="M135.09 264.38C135.36 265.17 136 265.67 136.51 265.49C137.02 265.31 137.22 264.49 136.96 263.74C136.7 262.99 136.05 262.46 135.53 262.63C135.01 262.8 134.82 263.59 135.09 264.38Z" fill="#263238"/>
<path d="M127.28 262.2C127.309 262.102 127.309 261.998 127.28 261.9C127.26 261.839 127.227 261.782 127.185 261.734C127.143 261.685 127.092 261.645 127.034 261.617C126.977 261.588 126.914 261.571 126.85 261.566C126.786 261.561 126.721 261.57 126.66 261.59C125.914 261.813 125.234 262.213 124.677 262.757C124.119 263.3 123.702 263.97 123.46 264.71C123.443 264.772 123.439 264.837 123.448 264.901C123.457 264.965 123.478 265.027 123.51 265.083C123.543 265.138 123.586 265.187 123.637 265.226C123.689 265.265 123.748 265.294 123.81 265.31V265.31C123.936 265.338 124.067 265.318 124.179 265.253C124.29 265.188 124.373 265.083 124.41 264.96C124.611 264.373 124.954 263.845 125.407 263.421C125.86 262.997 126.411 262.691 127.01 262.53C127.076 262.498 127.135 262.452 127.181 262.395C127.228 262.338 127.261 262.271 127.28 262.2V262.2Z" fill="#263238"/>
<path d="M136.9 258.45C136.989 258.4 137.059 258.323 137.1 258.23C137.138 258.105 137.126 257.971 137.066 257.855C137.006 257.739 136.904 257.651 136.78 257.61C136.047 257.349 135.261 257.271 134.491 257.382C133.72 257.494 132.989 257.792 132.36 258.25C132.31 258.291 132.269 258.341 132.238 258.398C132.207 258.454 132.188 258.516 132.182 258.58C132.175 258.645 132.182 258.709 132.2 258.771C132.219 258.833 132.249 258.89 132.29 258.94V258.94C132.373 259.036 132.49 259.096 132.616 259.109C132.742 259.122 132.869 259.087 132.97 259.01V259.01C133.481 258.657 134.07 258.432 134.686 258.355C135.302 258.279 135.928 258.352 136.51 258.57C136.58 258.581 136.651 258.575 136.719 258.555C136.786 258.534 136.848 258.498 136.9 258.45V258.45Z" fill="#263238"/>
<path d="M134 267.18L136.91 268.18C136.91 268.18 136.63 269.32 134.53 270.31L134 267.18Z" fill="#D58745"/>
<path d="M110.07 264.19C109.538 263.563 109.143 262.832 108.91 262.043C108.676 261.255 108.609 260.426 108.714 259.61C108.818 258.795 109.092 258.01 109.516 257.305C109.941 256.601 110.507 255.993 111.18 255.52C116.18 251.46 128.18 248.66 130.93 245.14C130.93 245.14 134.61 248.94 134.81 251.63L136.43 249.68C136.43 249.68 135.66 255.68 130.65 257.25C125.64 258.82 120.45 258.25 122.16 265.08C123.87 271.91 120.29 274.26 120.29 274.26L120.02 281.06C117.96 280.716 116.022 279.853 114.39 278.551C112.757 277.249 111.484 275.552 110.69 273.62C107.6 266.75 110.07 264.19 110.07 264.19Z" fill="#263238"/>
<path d="M121.21 272C121.21 272 117.91 268.19 116.07 270.3C114.23 272.41 117.07 279.64 120.42 278.57C123.77 277.5 123.5 273.88 121.21 272Z" fill="#EBB376"/>
<path d="M131.34 273.88C129.718 273.931 128.115 273.519 126.72 272.69C126.69 272.672 126.663 272.647 126.643 272.619C126.622 272.59 126.608 272.557 126.6 272.522C126.593 272.488 126.592 272.452 126.599 272.417C126.606 272.382 126.62 272.349 126.64 272.32C126.679 272.261 126.739 272.219 126.809 272.204C126.878 272.189 126.95 272.202 127.01 272.24C130.39 274.42 135.59 272.68 135.64 272.67C135.673 272.657 135.708 272.652 135.743 272.653C135.778 272.654 135.812 272.662 135.844 272.677C135.876 272.692 135.904 272.714 135.928 272.74C135.951 272.766 135.969 272.797 135.98 272.83C135.993 272.863 135.998 272.898 135.997 272.933C135.996 272.968 135.988 273.002 135.973 273.034C135.958 273.066 135.936 273.094 135.91 273.118C135.884 273.141 135.853 273.159 135.82 273.17C134.371 273.629 132.86 273.869 131.34 273.88Z" fill="#263238"/>
<path d="M160.35 311.26L158.35 310.43C157.984 310.273 157.586 310.207 157.189 310.237C156.792 310.266 156.409 310.391 156.07 310.6L152.85 312.6C152.215 312.99 151.683 313.527 151.298 314.166C150.914 314.805 150.688 315.526 150.64 316.27L150.58 317.2C153.77 318.81 158.4 318.2 158.4 318.2H159.74C160.016 318.203 160.289 318.151 160.544 318.047C160.8 317.943 161.032 317.789 161.227 317.594C161.423 317.4 161.577 317.169 161.683 316.914C161.788 316.659 161.841 316.386 161.84 316.11V313.45C161.834 312.979 161.689 312.52 161.424 312.131C161.16 311.741 160.786 311.439 160.35 311.26V311.26Z" fill="#EBB376"/>
<path opacity="0.2" d="M139 313.08C138.94 314.2 138.88 315.35 138.82 316.5C138.69 319.16 138.58 321.84 138.49 324.36C138.49 324.8 138.49 325.24 138.44 325.67C110 324.37 105.55 303.36 105.55 303.36C105.55 303.36 112.93 295.66 117.07 296.49C121.21 297.32 130.6 308.66 130.6 308.66L130.21 310.23C131.26 311.41 136.53 312.59 139 313.08Z" fill="black"/>
<path d="M115.72 299.87C120.59 304.94 126.06 309.99 132.25 313.39L131.46 313.12C133.01 313.431 134.589 313.582 136.17 313.57C139.86 313.62 143.65 313.44 147.38 313.27L153.08 313C153.612 312.968 154.138 313.133 154.557 313.462C154.976 313.792 155.26 314.264 155.355 314.788C155.45 315.313 155.349 315.854 155.072 316.31C154.794 316.765 154.36 317.103 153.85 317.26C151.96 317.85 150.08 318.33 148.18 318.81C143.319 320.06 138.343 320.814 133.33 321.06C131.84 321.159 130.344 320.98 128.92 320.53C121.352 317.029 114.618 311.953 109.17 305.64C108.472 304.763 108.138 303.651 108.237 302.534C108.336 301.417 108.86 300.381 109.701 299.64C110.542 298.899 111.636 298.51 112.757 298.553C113.877 298.595 114.938 299.067 115.72 299.87V299.87Z" fill="#E9B376"/>
<path d="M107.69 291.52C114.06 285.65 126.99 307.52 126.99 307.52L119.17 317.16C119.17 317.16 93.89 304.26 107.69 291.52Z" fill="#ABC2AD"/>
<path opacity="0.6" d="M107.69 291.52C114.06 285.65 126.99 307.52 126.99 307.52L119.17 317.16C119.17 317.16 93.89 304.26 107.69 291.52Z" fill="white"/>
<path d="M117.53 317.64L126.99 306.13L128.75 308.69L120.56 319.54L117.53 317.64Z" fill="#ABC2AD"/>
<path d="M140.17 318C140.17 318 151.74 315.32 158.67 315.52C165.6 315.72 166.44 316.75 166.44 316.75C166.44 316.75 170.44 314.89 173.51 315.51C176.58 316.13 181.74 317.23 181.74 317.23V319.57L140.59 320.03L140.17 318Z" fill="#ABC2AD"/>
<path opacity="0.7" d="M140.17 318C140.17 318 151.74 315.32 158.67 315.52C165.6 315.72 166.44 316.75 166.44 316.75C166.44 316.75 170.44 314.89 173.51 315.51C176.58 316.13 181.74 317.23 181.74 317.23V319.57L140.59 320.03L140.17 318Z" fill="white"/>
<path d="M144.39 320L141.15 332.67C140.912 333.607 140.367 334.438 139.602 335.031C138.838 335.623 137.897 335.943 136.93 335.94H86.08L85.24 331.24H132.86C133.111 331.242 133.355 331.16 133.553 331.005C133.751 330.851 133.891 330.634 133.95 330.39L136.47 320H144.39Z" fill="#263238"/>
<path opacity="0.6" d="M144.39 320L141.15 332.67C140.912 333.607 140.367 334.438 139.602 335.031C138.838 335.623 137.897 335.943 136.93 335.94H86.08L85.24 331.24H132.86C133.111 331.242 133.355 331.16 133.553 331.005C133.751 330.851 133.891 330.634 133.95 330.39L136.47 320H144.39Z" fill="white"/>
<path d="M187.67 317.97H121.83C120.979 317.97 120.29 318.66 120.29 319.51V320.49C120.29 321.341 120.979 322.03 121.83 322.03H187.67C188.521 322.03 189.21 321.341 189.21 320.49V319.51C189.21 318.66 188.521 317.97 187.67 317.97Z" fill="#263238"/>
<path opacity="0.7" d="M189.21 319.33V320.67C189.21 320.849 189.175 321.027 189.106 321.193C189.037 321.358 188.935 321.509 188.808 321.635C188.681 321.762 188.53 321.862 188.364 321.929C188.197 321.997 188.019 322.031 187.84 322.03H121.65C121.471 322.03 121.295 321.995 121.13 321.926C120.965 321.858 120.815 321.758 120.688 321.632C120.562 321.505 120.462 321.355 120.394 321.19C120.325 321.025 120.29 320.849 120.29 320.67V319.33C120.29 319.151 120.325 318.975 120.394 318.81C120.462 318.645 120.562 318.495 120.688 318.368C120.815 318.242 120.965 318.142 121.13 318.074C121.295 318.005 121.471 317.97 121.65 317.97H187.84C188.019 317.969 188.197 318.003 188.364 318.071C188.53 318.138 188.681 318.238 188.808 318.365C188.935 318.491 189.037 318.642 189.106 318.807C189.175 318.973 189.21 319.151 189.21 319.33V319.33Z" fill="white"/>
<path opacity="0.5" d="M189.21 319.33V320.67C189.21 320.849 189.175 321.027 189.106 321.193C189.037 321.358 188.935 321.509 188.808 321.635C188.681 321.762 188.53 321.862 188.364 321.929C188.197 321.997 188.019 322.031 187.84 322.03H155.84C155.661 322.03 155.485 321.995 155.32 321.926C155.155 321.858 155.005 321.758 154.878 321.632C154.752 321.505 154.652 321.355 154.584 321.19C154.515 321.025 154.48 320.849 154.48 320.67V319.33C154.48 319.151 154.515 318.975 154.584 318.81C154.652 318.645 154.752 318.495 154.878 318.368C155.005 318.242 155.155 318.142 155.32 318.074C155.485 318.005 155.661 317.97 155.84 317.97H187.84C188.019 317.969 188.197 318.003 188.364 318.071C188.53 318.138 188.681 318.238 188.808 318.365C188.935 318.491 189.037 318.642 189.106 318.807C189.175 318.973 189.21 319.151 189.21 319.33V319.33Z" fill="white"/>
</svg>
