<svg width="500" height="500" viewBox="0 0 500 500" fill="none" xmlns="http://www.w3.org/2000/svg">
<path d="M500 382.4H0V382.65H500V382.4Z" fill="#EBEBEB"/>
<path d="M449.9 398.49H416.78V398.74H449.9V398.49Z" fill="#EBEBEB"/>
<path d="M331.22 401.21H322.53V401.46H331.22V401.21Z" fill="#EBEBEB"/>
<path d="M415.78 389.21H396.59V389.46H415.78V389.21Z" fill="#EBEBEB"/>
<path d="M95.65 390.89H52.46V391.14H95.65V390.89Z" fill="#EBEBEB"/>
<path d="M110.89 390.89H104.56V391.14H110.89V390.89Z" fill="#EBEBEB"/>
<path d="M225.15 395.11H131.47V395.36H225.15V395.11Z" fill="#EBEBEB"/>
<path d="M237 337.8H43.91C42.3973 337.797 40.9476 337.195 39.8789 336.124C38.8102 335.054 38.21 333.603 38.21 332.09V60.66C38.2232 59.156 38.8292 57.718 39.8964 56.6582C40.9637 55.5985 42.406 55.0026 43.91 55H237C238.514 55 239.967 55.6016 241.038 56.6724C242.108 57.7433 242.71 59.1956 242.71 60.71V332.09C242.71 333.604 242.108 335.057 241.038 336.128C239.967 337.198 238.514 337.8 237 337.8V337.8ZM43.91 55.2C42.4637 55.2026 41.0774 55.7791 40.0557 56.8027C39.0339 57.8264 38.46 59.2136 38.46 60.66V332.09C38.46 333.536 39.0339 334.924 40.0557 335.947C41.0774 336.971 42.4637 337.547 43.91 337.55H237C238.447 337.547 239.835 336.971 240.858 335.948C241.881 334.924 242.457 333.537 242.46 332.09V60.66C242.457 59.2127 241.881 57.8255 240.858 56.8021C239.835 55.7787 238.447 55.2026 237 55.2H43.91Z" fill="#EBEBEB"/>
<path d="M453.31 337.8H260.21C258.696 337.797 257.246 337.195 256.175 336.125C255.105 335.054 254.503 333.604 254.5 332.09V60.66C254.516 59.1551 255.124 57.7171 256.193 56.6576C257.262 55.5981 258.705 55.0025 260.21 55H453.31C454.812 55.0052 456.252 55.6022 457.317 56.6617C458.382 57.7212 458.987 59.1578 459 60.66V332.09C459 333.601 458.401 335.05 457.335 336.121C456.268 337.191 454.821 337.795 453.31 337.8V337.8ZM260.21 55.2C258.763 55.2026 257.375 55.7787 256.352 56.8021C255.329 57.8255 254.753 59.2127 254.75 60.66V332.09C254.753 333.537 255.329 334.924 256.352 335.948C257.375 336.971 258.763 337.547 260.21 337.55H453.31C454.757 337.547 456.145 336.971 457.168 335.948C458.191 334.924 458.767 333.537 458.77 332.09V60.66C458.767 59.2127 458.191 57.8255 457.168 56.8021C456.145 55.7787 454.757 55.2026 453.31 55.2H260.21Z" fill="#EBEBEB"/>
<path d="M85.38 345.83C85.38 345.43 86.73 306.15 93.12 299.94C99.33 293.94 106.46 299.71 106.76 299.94L107.4 299.17C107.32 299.11 99.27 292.54 92.4 299.17C85.72 305.66 84.4 344.11 84.4 345.74L85.38 345.83Z" fill="#E0E0E0"/>
<path d="M84.84 353.54C84.84 353.08 89.2 306.39 72.15 286.82L71.4 287.48C88.17 306.72 83.89 352.98 83.84 353.48L84.84 353.54Z" fill="#E0E0E0"/>
<path d="M85.47 348.61L86.47 348.54C86.47 348.01 83.14 295.46 95.64 283.96L94.97 283.22C82.1 295.05 85.32 346.42 85.47 348.61Z" fill="#E0E0E0"/>
<path d="M83.84 348.58H84.84C84.84 347.13 84.43 313.09 74.75 307.58C73.832 306.988 72.786 306.624 71.6989 306.518C70.6118 306.412 69.5151 306.567 68.5 306.97C62.65 309.39 59.75 319.8 59.63 320.24L60.63 320.51C60.63 320.4 63.52 310.13 68.91 307.9C69.7858 307.557 70.7309 307.428 71.6666 307.524C72.6023 307.619 73.5017 307.937 74.29 308.45C83.43 313.66 83.84 348.23 83.84 348.58Z" fill="#E0E0E0"/>
<path d="M87.6 348.6L88.6 348.54C88.6 348.28 87.14 321.64 94.33 312.26C96.07 310 98 308.9 100 309C104.71 309.33 108.66 316.22 108.7 316.29L109.57 315.8C109.4 315.49 105.32 308.37 100.07 308C97.73 307.83 95.54 309 93.58 311.61C86.12 321.33 87.54 347.49 87.6 348.6Z" fill="#E0E0E0"/>
<path d="M86 352.22C86.19 349.64 90.7 288.82 82.77 278.11L81.97 278.7C89.67 289.12 85.05 351.52 84.97 352.15L86 352.22Z" fill="#E0E0E0"/>
<path d="M66.34 313.09C66.34 313.09 71.1 314.84 69.68 318.98C68.26 323.12 53.24 329.92 53.24 329.92C53.24 329.92 46.94 324.15 52.72 314.77C58.5 305.39 66.21 310.13 66.34 313.09Z" fill="#EBEBEB"/>
<path d="M87 305.21C87 305.21 82 305 81.66 309.36C81.32 313.72 92.66 325.79 92.66 325.79C92.66 325.79 100.66 322.89 98.97 312C97.28 301.11 88.27 302.53 87 305.21Z" fill="#EBEBEB"/>
<path d="M91.29 284.33C91.29 284.33 87.92 283.97 88.19 281.91C88.46 279.85 101.31 274.57 108.89 283.12C108.89 283.12 104.04 291.46 97.02 291.57C90 291.68 91.29 284.33 91.29 284.33Z" fill="#EBEBEB"/>
<path d="M85 279.34C85 279.34 88.06 280.81 88.92 278.93C89.78 277.05 81.67 265.75 70.71 269C70.71 269 70.42 278.65 76.32 282.45C82.22 286.25 85 279.34 85 279.34Z" fill="#EBEBEB"/>
<path d="M101 311.42C101 311.42 98.67 309.54 101.19 308.63C103.71 307.72 116.03 307.97 116.19 320.19C116.19 320.19 101.83 322.57 100.05 317.92C98.27 313.27 101 311.42 101 311.42Z" fill="#EBEBEB"/>
<path d="M71.69 284C71.69 284 74.02 282.12 71.51 281.2C69 280.28 56.66 280.55 56.51 292.76C56.51 292.76 70.88 295.15 72.65 290.5C74.42 285.85 71.69 284 71.69 284Z" fill="#EBEBEB"/>
<path d="M79.28 293.86C79.28 293.86 79.49 291.58 77.64 292.47C75.79 293.36 69.37 300.31 76.03 306.89C76.03 306.89 85.03 300.24 83.39 296.78C81.75 293.32 79.28 293.86 79.28 293.86Z" fill="#EBEBEB"/>
<path d="M103.07 297.12C103.07 297.12 101.67 295.3 103.71 295.07C105.75 294.84 114.89 297.28 112.76 306.41C112.76 306.41 101.63 305.57 101.15 301.78C100.67 297.99 103.07 297.12 103.07 297.12Z" fill="#EBEBEB"/>
<path d="M65.45 382.44H103.65L107.77 340.62H61.33L65.45 382.44Z" fill="#F0F0F0"/>
<path d="M59.3 345.24H109.82V336.01H59.3V345.24Z" fill="#E6E6E6"/>
<path d="M414.22 345.83C414.22 345.43 412.88 306.15 406.49 299.94C400.28 293.94 393.14 299.71 392.85 299.94L392.2 299.17C392.29 299.11 400.33 292.54 407.2 299.17C413.88 305.66 415.2 344.11 415.2 345.74L414.22 345.83Z" fill="#E0E0E0"/>
<path d="M414.77 353.54C414.77 353.08 410.41 306.39 427.46 286.82L428.21 287.48C411.44 306.72 415.72 352.98 415.77 353.48L414.77 353.54Z" fill="#E0E0E0"/>
<path d="M414.14 348.61L413.14 348.54C413.14 348.01 416.48 295.46 403.97 283.96L404.65 283.22C417.51 295.05 414.29 346.42 414.14 348.61Z" fill="#E0E0E0"/>
<path d="M415.77 348.58H414.77C414.77 347.13 415.18 313.09 424.85 307.58C425.77 306.988 426.818 306.624 427.906 306.518C428.995 306.412 430.093 306.567 431.11 306.97C436.96 309.39 439.86 319.8 439.98 320.24L438.98 320.51C438.98 320.4 436.09 310.13 430.7 307.9C429.824 307.557 428.879 307.428 427.943 307.524C427.008 307.619 426.108 307.937 425.32 308.45C416.17 313.66 415.77 348.23 415.77 348.58Z" fill="#E0E0E0"/>
<path d="M412 348.6L411 348.54C411 348.28 412.46 321.64 405.27 312.26C403.53 309.98 401.63 308.9 399.64 309.04C394.93 309.37 390.98 316.26 390.94 316.33L390.07 315.84C390.24 315.53 394.32 308.41 399.57 308.04C401.91 307.87 404.1 309.04 406.06 311.65C413.48 321.33 412.07 347.49 412 348.6Z" fill="#E0E0E0"/>
<path d="M413.58 352.22C413.38 349.64 408.88 288.82 416.81 278.11L417.61 278.7C409.9 289.12 414.53 351.52 414.61 352.15L413.58 352.22Z" fill="#E0E0E0"/>
<path d="M433.27 313.09C433.27 313.09 428.51 314.84 429.93 318.98C431.35 323.12 446.37 329.92 446.37 329.92C446.37 329.92 452.67 324.15 446.88 314.77C441.09 305.39 433.39 310.13 433.27 313.09Z" fill="#EBEBEB"/>
<path d="M412.6 305.21C412.6 305.21 417.66 305 417.95 309.36C418.24 313.72 406.95 325.79 406.95 325.79C406.95 325.79 398.95 322.89 400.65 312C402.35 301.11 411.34 302.53 412.6 305.21Z" fill="#EBEBEB"/>
<path d="M408.32 284.33C408.32 284.33 411.69 283.97 411.42 281.91C411.15 279.85 398.3 274.57 390.72 283.12C390.72 283.12 395.57 291.46 402.59 291.57C409.61 291.68 408.32 284.33 408.32 284.33Z" fill="#EBEBEB"/>
<path d="M414.6 279.34C414.6 279.34 411.55 280.81 410.69 278.93C409.83 277.05 417.94 265.75 428.9 269C428.9 269 429.19 278.65 423.29 282.45C417.39 286.25 414.6 279.34 414.6 279.34Z" fill="#EBEBEB"/>
<path d="M398.63 311.42C398.63 311.42 400.96 309.54 398.44 308.63C395.92 307.72 383.59 307.97 383.44 320.19C383.44 320.19 397.8 322.57 399.58 317.92C401.36 313.27 398.63 311.42 398.63 311.42Z" fill="#EBEBEB"/>
<path d="M427.92 284C427.92 284 425.59 282.12 428.1 281.2C430.61 280.28 442.95 280.55 443.1 292.76C443.1 292.76 428.73 295.15 426.96 290.5C425.19 285.85 427.92 284 427.92 284Z" fill="#EBEBEB"/>
<path d="M420.32 293.86C420.32 293.86 420.12 291.58 421.96 292.47C423.8 293.36 430.24 300.31 423.58 306.89C423.58 306.89 414.58 300.24 416.22 296.78C417.86 293.32 420.32 293.86 420.32 293.86Z" fill="#EBEBEB"/>
<path d="M396.54 297.12C396.54 297.12 397.94 295.3 395.9 295.07C393.86 294.84 384.72 297.28 386.9 306.41C386.9 306.41 398.03 305.57 398.51 301.78C398.99 297.99 396.54 297.12 396.54 297.12Z" fill="#EBEBEB"/>
<path d="M434.15 382.44H395.96L391.84 340.62H438.28L434.15 382.44Z" fill="#F0F0F0"/>
<path d="M440.32 336H389.8V345.23H440.32V336Z" fill="#E6E6E6"/>
<path d="M237.74 127.77H136.02V332.31H237.74V127.77Z" fill="#FAFAFA"/>
<path d="M240.09 124.99H133.67V135.03H240.09V124.99Z" fill="#F0F0F0"/>
<path d="M240.09 136.14H133.67V141.16H240.09V136.14Z" fill="#F0F0F0"/>
<path d="M240.09 143.59H133.67V148.61H240.09V143.59Z" fill="#F0F0F0"/>
<path d="M240.09 151.04H133.67V156.06H240.09V151.04Z" fill="#F0F0F0"/>
<path d="M240.09 158.49H133.67V163.51H240.09V158.49Z" fill="#F0F0F0"/>
<path d="M240.09 165.93H133.67V170.95H240.09V165.93Z" fill="#F0F0F0"/>
<path d="M240.09 173.38H133.67V178.4H240.09V173.38Z" fill="#F0F0F0"/>
<path d="M240.09 180.83H133.67V185.85H240.09V180.83Z" fill="#F0F0F0"/>
<path d="M240.09 188.28H133.67V193.3H240.09V188.28Z" fill="#F0F0F0"/>
<path d="M240.09 195.73H133.67V200.75H240.09V195.73Z" fill="#F0F0F0"/>
<path d="M240.09 203.18H133.67V208.2H240.09V203.18Z" fill="#F0F0F0"/>
<path d="M240.09 210.62H133.67V215.64H240.09V210.62Z" fill="#F0F0F0"/>
<path d="M240.09 218.07H133.67V223.09H240.09V218.07Z" fill="#F0F0F0"/>
<path d="M240.09 225.52H133.67V230.54H240.09V225.52Z" fill="#F0F0F0"/>
<path d="M240.09 232.97H133.67V237.99H240.09V232.97Z" fill="#F0F0F0"/>
<path d="M240.09 240.42H133.67V245.44H240.09V240.42Z" fill="#F0F0F0"/>
<path d="M240.09 247.86H133.67V252.88H240.09V247.86Z" fill="#F0F0F0"/>
<path d="M240.09 255.31H133.67V260.33H240.09V255.31Z" fill="#F0F0F0"/>
<path d="M240.09 262.76H133.67V267.78H240.09V262.76Z" fill="#F0F0F0"/>
<path d="M240.09 270.21H133.67V275.23H240.09V270.21Z" fill="#F0F0F0"/>
<path d="M240.09 277.66H133.67V282.68H240.09V277.66Z" fill="#F0F0F0"/>
<path d="M240.09 285.11H133.67V290.13H240.09V285.11Z" fill="#F0F0F0"/>
<path d="M240.09 292.55H133.67V297.57H240.09V292.55Z" fill="#F0F0F0"/>
<path d="M240.09 300H133.67V305.02H240.09V300Z" fill="#F0F0F0"/>
<path d="M240.09 307.45H133.67V312.47H240.09V307.45Z" fill="#F0F0F0"/>
<path d="M240.09 314.9H133.67V319.92H240.09V314.9Z" fill="#F0F0F0"/>
<path d="M240.09 322.35H133.67V327.37H240.09V322.35Z" fill="#F0F0F0"/>
<path d="M240.09 329.79H133.67V334.81H240.09V329.79Z" fill="#F0F0F0"/>
<path d="M363.98 127.77H262.26V332.31H363.98V127.77Z" fill="#FAFAFA"/>
<path d="M366.33 124.99H259.91V135.03H366.33V124.99Z" fill="#F0F0F0"/>
<path d="M366.33 136.14H259.91V137.06H366.33V136.14Z" fill="#F0F0F0"/>
<path d="M366.33 138.24H259.91V139.16H366.33V138.24Z" fill="#F0F0F0"/>
<path d="M366.33 140.33H259.91V141.25H366.33V140.33Z" fill="#F0F0F0"/>
<path d="M366.33 142.43H259.91V143.35H366.33V142.43Z" fill="#F0F0F0"/>
<path d="M366.33 144.52H259.91V145.44H366.33V144.52Z" fill="#F0F0F0"/>
<path d="M366.33 146.62H259.91V147.54H366.33V146.62Z" fill="#F0F0F0"/>
<path d="M366.33 148.71H259.91V149.63H366.33V148.71Z" fill="#F0F0F0"/>
<path d="M366.33 150.81H259.91V151.73H366.33V150.81Z" fill="#F0F0F0"/>
<path d="M366.33 152.91H259.91V153.83H366.33V152.91Z" fill="#F0F0F0"/>
<path d="M366.33 155H259.91V155.92H366.33V155Z" fill="#F0F0F0"/>
<path d="M366.33 157.1H259.91V158.02H366.33V157.1Z" fill="#F0F0F0"/>
<path d="M366.33 159.19H259.91V160.11H366.33V159.19Z" fill="#F0F0F0"/>
<path d="M366.33 161.29H259.91V162.21H366.33V161.29Z" fill="#F0F0F0"/>
<path d="M366.33 163.38H259.91V164.3H366.33V163.38Z" fill="#F0F0F0"/>
<path d="M366.33 165.48H259.91V166.4H366.33V165.48Z" fill="#F0F0F0"/>
<path d="M366.33 167.58H259.91V168.5H366.33V167.58Z" fill="#F0F0F0"/>
<path d="M366.33 169.67H259.91V170.59H366.33V169.67Z" fill="#F0F0F0"/>
<path d="M366.33 171.77H259.91V172.69H366.33V171.77Z" fill="#F0F0F0"/>
<path d="M264.987 98.7171C266.329 90.4472 260.713 82.6548 252.443 81.3124C244.173 79.97 236.381 85.5859 235.039 93.8558C233.696 102.126 239.312 109.918 247.582 111.26C255.852 112.603 263.644 106.987 264.987 98.7171Z" fill="#F0F0F0"/>
<path d="M262.746 98.3533C263.887 91.3209 259.112 84.6946 252.079 83.5531C245.047 82.4116 238.421 87.1871 237.279 94.2195C236.138 101.252 240.913 107.878 247.946 109.02C254.978 110.161 261.604 105.386 262.746 98.3533Z" fill="#FAFAFA"/>
<path d="M249.39 87.43V96.45L243.42 93.07" fill="#F0F0F0"/>
<path d="M249.39 87.43V96.45L243.42 93.07" stroke="#E0E0E0" stroke-width="2" stroke-linecap="round" stroke-linejoin="round"/>
<path d="M250 427.56C357.082 427.56 443.89 422.492 443.89 416.24C443.89 409.988 357.082 404.92 250 404.92C142.918 404.92 56.11 409.988 56.11 416.24C56.11 422.492 142.918 427.56 250 427.56Z" fill="#F5F5F5"/>
<path opacity="0.5" d="M438.48 153.76H255.76C253.744 153.76 252.11 155.394 252.11 157.41V356.87C252.11 358.886 253.744 360.52 255.76 360.52H438.48C440.496 360.52 442.13 358.886 442.13 356.87V157.41C442.13 155.394 440.496 153.76 438.48 153.76Z" fill="#ABC2AD"/>
<path d="M432.48 149.76H249.76C247.744 149.76 246.11 151.394 246.11 153.41V352.87C246.11 354.886 247.744 356.52 249.76 356.52H432.48C434.496 356.52 436.13 354.886 436.13 352.87V153.41C436.13 151.394 434.496 149.76 432.48 149.76Z" fill="#ABC2AD"/>
<path opacity="0.8" d="M432.48 149.76H249.76C247.744 149.76 246.11 151.394 246.11 153.41V352.87C246.11 354.886 247.744 356.52 249.76 356.52H432.48C434.496 356.52 436.13 354.886 436.13 352.87V153.41C436.13 151.394 434.496 149.76 432.48 149.76Z" fill="white"/>
<path opacity="0.5" d="M189.1 148.87H96.38C94.3642 148.87 92.73 150.504 92.73 152.52V321.98C92.73 323.996 94.3642 325.63 96.38 325.63H189.1C191.116 325.63 192.75 323.996 192.75 321.98V152.52C192.75 150.504 191.116 148.87 189.1 148.87Z" fill="#ABC2AD"/>
<path d="M183.1 142.87H90.38C88.3642 142.87 86.73 144.504 86.73 146.52V315.98C86.73 317.996 88.3642 319.63 90.38 319.63H183.1C185.116 319.63 186.75 317.996 186.75 315.98V146.52C186.75 144.504 185.116 142.87 183.1 142.87Z" fill="#ABC2AD"/>
<path opacity="0.8" d="M183.1 142.87H90.38C88.3642 142.87 86.73 144.504 86.73 146.52V315.98C86.73 317.996 88.3642 319.63 90.38 319.63H183.1C185.116 319.63 186.75 317.996 186.75 315.98V146.52C186.75 144.504 185.116 142.87 183.1 142.87Z" fill="white"/>
<path d="M433.08 91.31H90.58C88.4537 91.31 86.73 93.0337 86.73 95.16V110.72C86.73 112.846 88.4537 114.57 90.58 114.57H433.08C435.206 114.57 436.93 112.846 436.93 110.72V95.16C436.93 93.0337 435.206 91.31 433.08 91.31Z" fill="#ABC2AD"/>
<path opacity="0.6" d="M401.39 102.94C401.38 103.826 401.108 104.689 400.609 105.421C400.11 106.153 399.405 106.72 398.584 107.052C397.763 107.385 396.861 107.466 395.994 107.288C395.126 107.109 394.331 106.677 393.708 106.047C393.085 105.417 392.662 104.617 392.493 103.748C392.324 102.878 392.416 101.978 392.757 101.16C393.098 100.343 393.674 99.6446 394.411 99.1534C395.148 98.6622 396.014 98.4 396.9 98.4C397.493 98.4026 398.08 98.5222 398.627 98.7519C399.174 98.9816 399.67 99.3169 400.087 99.7386C400.504 100.16 400.834 100.66 401.057 101.209C401.281 101.759 401.394 102.347 401.39 102.94V102.94Z" fill="white"/>
<path opacity="0.6" d="M415.43 102.94C415.42 103.826 415.148 104.689 414.649 105.421C414.15 106.153 413.445 106.72 412.624 107.052C411.803 107.385 410.901 107.466 410.034 107.288C409.166 107.109 408.371 106.677 407.748 106.047C407.125 105.417 406.702 104.617 406.533 103.748C406.364 102.878 406.456 101.978 406.797 101.16C407.138 100.343 407.714 99.6446 408.451 99.1534C409.188 98.6622 410.054 98.4 410.94 98.4C411.533 98.4026 412.12 98.5222 412.667 98.7519C413.214 98.9816 413.71 99.3169 414.127 99.7386C414.544 100.16 414.874 100.66 415.097 101.209C415.321 101.759 415.434 102.347 415.43 102.94V102.94Z" fill="white"/>
<path opacity="0.6" d="M429.46 102.94C429.45 103.827 429.178 104.691 428.677 105.424C428.176 106.156 427.47 106.724 426.647 107.055C425.824 107.386 424.921 107.466 424.053 107.285C423.184 107.104 422.389 106.669 421.767 106.036C421.146 105.404 420.725 104.601 420.559 103.729C420.394 102.858 420.49 101.957 420.836 101.14C421.181 100.323 421.761 99.6263 422.503 99.1388C423.244 98.6512 424.113 98.3941 425 98.4C426.193 98.4132 427.332 98.8983 428.167 99.7491C429.003 100.6 429.468 101.747 429.46 102.94V102.94Z" fill="white"/>
<path opacity="0.6" d="M106.43 97.1H94.89V108.77H106.43V97.1Z" fill="white"/>
<path d="M180.51 171.04H72.67V191.67H180.51V171.04Z" fill="#ABC2AD"/>
<path opacity="0.2" d="M180.51 171.04H72.67V191.67H180.51V171.04Z" fill="black"/>
<path d="M88.19 177.05H79.58V185.66H88.19V177.05Z" fill="white"/>
<path d="M81.46 181.38L83.07 183.44L86.31 179.27" stroke="#ABC2AD" stroke-width="1.5" stroke-linecap="round" stroke-linejoin="round"/>
<path d="M174.83 186.19H166.17V180.33H174.83V186.19ZM170.5 176C169.526 176 168.591 176.386 167.901 177.074C167.212 177.762 166.823 178.696 166.82 179.67H167.82C167.862 178.989 168.162 178.349 168.659 177.882C169.156 177.414 169.813 177.154 170.495 177.154C171.177 177.154 171.834 177.414 172.331 177.882C172.828 178.349 173.128 178.989 173.17 179.67H174.17C174.167 178.697 173.78 177.766 173.092 177.078C172.404 176.39 171.473 176.003 170.5 176Z" fill="#ABC2AD"/>
<path d="M164.66 209.18H56.82V229.81H164.66V209.18Z" fill="#ABC2AD"/>
<path opacity="0.4" d="M164.66 209.18H56.82V229.81H164.66V209.18Z" fill="white"/>
<path d="M72.34 215.18H63.73V223.79H72.34V215.18Z" fill="white"/>
<path d="M158.98 218.47H150.32V224.32H158.98V218.47Z" fill="white"/>
<path d="M158.32 217.83H157.32C157.32 217.122 157.039 216.443 156.538 215.942C156.037 215.441 155.358 215.16 154.65 215.16C153.942 215.16 153.263 215.441 152.762 215.942C152.261 216.443 151.98 217.122 151.98 217.83H150.98C150.98 216.857 151.367 215.923 152.055 215.235C152.743 214.547 153.677 214.16 154.65 214.16C155.623 214.16 156.557 214.547 157.245 215.235C157.933 215.923 158.32 216.857 158.32 217.83Z" fill="white"/>
<path d="M181.07 249.1H73.23V269.73H181.07V249.1Z" fill="#ABC2AD"/>
<path opacity="0.4" d="M181.07 249.1H73.23V269.73H181.07V249.1Z" fill="white"/>
<path d="M88.75 255.11H80.14V263.72H88.75V255.11Z" fill="white"/>
<path d="M82.02 259.43L83.63 261.5L86.87 257.33" stroke="#ABC2AD" stroke-width="1.5" stroke-linecap="round" stroke-linejoin="round"/>
<g opacity="0.6">
<path opacity="0.6" d="M175.39 258.39H166.73V264.24H175.39V258.39Z" fill="white"/>
<path opacity="0.6" d="M174.73 257.76H173.73C173.752 257.395 173.7 257.029 173.575 256.685C173.451 256.341 173.258 256.026 173.007 255.76C172.756 255.494 172.454 255.281 172.118 255.136C171.783 254.991 171.421 254.916 171.055 254.916C170.689 254.916 170.327 254.991 169.992 255.136C169.656 255.281 169.354 255.494 169.103 255.76C168.852 256.026 168.659 256.341 168.535 256.685C168.41 257.029 168.358 257.395 168.38 257.76H167.38C167.354 257.261 167.43 256.762 167.603 256.294C167.776 255.825 168.042 255.397 168.386 255.035C168.73 254.673 169.144 254.384 169.603 254.187C170.061 253.99 170.556 253.888 171.055 253.888C171.554 253.888 172.049 253.99 172.507 254.187C172.966 254.384 173.38 254.673 173.724 255.035C174.068 255.397 174.334 255.825 174.507 256.294C174.68 256.762 174.756 257.261 174.73 257.76Z" fill="white"/>
</g>
<path d="M411.18 226.62H326.97V281.39H411.18V226.62Z" fill="#ABC2AD"/>
<path opacity="0.5" d="M411.18 226.62H326.97V281.39H411.18V226.62Z" fill="white"/>
<path d="M408.1 236.88H330.05V278.64H408.1V236.88Z" fill="#ABC2AD"/>
<path d="M394.14 243.12H336.41V244.92H394.14V243.12Z" fill="white"/>
<path d="M364.11 248.63H336.41V250.43H364.11V248.63Z" fill="white"/>
<path d="M371.3 254.13H336.41V255.93H371.3V254.13Z" fill="white"/>
<path d="M348.71 259.63H336.41V261.43H348.71V259.63Z" fill="white"/>
<path d="M344.37 265.13H336.41V266.93H344.37V265.13Z" fill="white"/>
<path d="M413.59 334.62V365.16C413.592 365.987 413.295 366.787 412.755 367.413C412.215 368.039 411.468 368.45 410.65 368.57C410.477 368.585 410.303 368.585 410.13 368.57H370.9C369.985 368.57 369.107 368.207 368.46 367.56C367.813 366.913 367.45 366.035 367.45 365.12V334.62C367.447 334.096 367.567 333.579 367.8 333.11C368.082 332.527 368.522 332.035 369.07 331.69C369.618 331.345 370.252 331.161 370.9 331.16H386.28C386.998 331.148 387.696 330.918 388.28 330.5C388.869 330.072 389.309 329.47 389.54 328.78C389.766 328.085 390.206 327.48 390.797 327.051C391.388 326.621 392.1 326.39 392.83 326.39H401C401.731 326.389 402.443 326.619 403.035 327.049C403.626 327.478 404.065 328.085 404.29 328.78C404.518 329.473 404.958 330.076 405.549 330.503C406.14 330.931 406.851 331.161 407.58 331.16H410.09C410.548 331.155 411.002 331.24 411.426 331.412C411.851 331.583 412.237 331.837 412.562 332.159C412.888 332.481 413.146 332.864 413.323 333.287C413.499 333.709 413.59 334.162 413.59 334.62V334.62Z" fill="#ABC2AD"/>
<path opacity="0.3" d="M410.65 336.06V368.57H370.9C369.985 368.57 369.107 368.207 368.46 367.56C367.813 366.913 367.45 366.035 367.45 365.12V334.62C367.447 334.096 367.567 333.579 367.8 333.11H407.7C408.478 333.123 409.221 333.438 409.772 333.988C410.322 334.539 410.637 335.282 410.65 336.06V336.06Z" fill="white"/>
<path d="M319.97 289.67V327.86L312.51 335.32H285.15V289.67H319.97Z" fill="#ABC2AD"/>
<path opacity="0.4" d="M319.97 289.67V327.86L312.51 335.32H285.15V289.67H319.97Z" fill="white"/>
<path d="M319.97 327.86H312.51V335.32L319.97 327.86Z" fill="#ABC2AD"/>
<path d="M315.75 297.42H289.49V298.85H315.75V297.42Z" fill="#ABC2AD"/>
<path d="M311.58 301.81H289.49V303.24H311.58V301.81Z" fill="#ABC2AD"/>
<path d="M315.75 306.19H289.49V307.62H315.75V306.19Z" fill="#ABC2AD"/>
<path d="M299.29 310.58H289.49V312.01H299.29V310.58Z" fill="#ABC2AD"/>
<path d="M295.84 314.97H289.49V316.4H295.84V314.97Z" fill="#ABC2AD"/>
<path d="M343.44 143.9H272.25V202.72H343.44V143.9Z" fill="#ABC2AD"/>
<path opacity="0.6" d="M272.25 143.9V202.72H343.44V143.9H272.25ZM341.12 200.4H274.58V146.22H341.12V200.4Z" fill="white"/>
<path opacity="0.3" d="M274.58 184.34L294.98 169.52L310.14 184.34L325.3 175.68L341.12 185.42V200.4H274.58V184.34Z" fill="white"/>
<path opacity="0.6" d="M322.64 159.59C322.638 160.553 322.351 161.493 321.814 162.293C321.278 163.092 320.517 163.715 319.627 164.082C318.737 164.449 317.758 164.544 316.814 164.355C315.87 164.166 315.003 163.702 314.323 163.02C313.643 162.339 313.18 161.471 312.993 160.526C312.806 159.582 312.903 158.603 313.272 157.714C313.641 156.825 314.265 156.065 315.065 155.53C315.866 154.995 316.807 154.71 317.77 154.71C318.41 154.71 319.044 154.836 319.636 155.082C320.227 155.327 320.765 155.687 321.217 156.14C321.67 156.593 322.028 157.131 322.272 157.723C322.516 158.315 322.641 158.95 322.64 159.59V159.59Z" fill="white"/>
<path d="M348.09 205.16V207.16H346.09" stroke="#263238" stroke-miterlimit="10"/>
<path d="M342.95 207.17H271.35" stroke="#263238" stroke-miterlimit="10" stroke-dasharray="4.18 3.14"/>
<path d="M269.78 207.16H267.78V205.16" stroke="#263238" stroke-miterlimit="10"/>
<path d="M267.78 202.27V143.01" stroke="#263238" stroke-miterlimit="10" stroke-dasharray="3.85 2.89"/>
<path d="M267.78 141.56V139.56H269.78" stroke="#263238" stroke-miterlimit="10"/>
<path d="M272.92 139.56H344.52" stroke="#263238" stroke-miterlimit="10" stroke-dasharray="4.18 3.14"/>
<path d="M346.09 139.56H348.09V141.56" stroke="#263238" stroke-miterlimit="10"/>
<path d="M348.09 144.45V203.72" stroke="#263238" stroke-miterlimit="10" stroke-dasharray="3.85 2.89"/>
<path d="M349.66 137.98H346.51V141.13H349.66V137.98Z" fill="#263238"/>
<path d="M349.66 205.59H346.51V208.74H349.66V205.59Z" fill="#263238"/>
<path d="M269.35 205.59H266.2V208.74H269.35V205.59Z" fill="#263238"/>
<path d="M269.35 137.98H266.2V141.13H269.35V137.98Z" fill="#263238"/>
<path d="M309.42 137.98H306.27V141.13H309.42V137.98Z" fill="#263238"/>
<path d="M309.51 205.59H306.36V208.74H309.51V205.59Z" fill="#263238"/>
<path d="M349.66 171.79H346.51V174.94H349.66V171.79Z" fill="#263238"/>
<path d="M269.35 171.79H266.2V174.94H269.35V171.79Z" fill="#263238"/>
<path d="M175 236.62L164.36 245.26C164.36 245.26 161.76 245.31 160.94 246.17C160.12 247.03 156.94 253.42 157.43 254.29C157.92 255.16 163.12 256.88 164.23 255.85C165.34 254.82 167.23 248.91 167.23 248.28L180.83 239.16L175 236.62Z" fill="#EBB376"/>
<path d="M169.28 240.61L171.66 245.8C171.66 245.8 186.29 239 189.46 235C190.27 234 191.39 232.33 192.6 230.46C194.6 227.37 196.84 223.65 198.4 221.04C199.56 219.09 200.34 217.76 200.34 217.76L192.06 204.7C190.25 206.09 184.71 228.41 183.72 229.61C182.73 230.81 169.28 240.61 169.28 240.61Z" fill="#ABC2AD"/>
<path opacity="0.1" d="M192.6 230.42C194.6 227.33 196.84 223.61 198.4 221L194.55 211.5C194.55 211.5 192.46 222.4 192.6 230.42Z" fill="black"/>
<path d="M260.05 187.25L270.53 179.11C270.53 179.11 271.38 176.65 272.45 176.11C273.52 175.57 280.56 174.56 281.25 175.25C281.94 175.94 281.97 181.47 280.65 182.25C279.33 183.03 273.12 183.01 272.53 182.78L261.08 191.14L260.05 187.25Z" fill="#EBB376"/>
<path d="M171.53 411L177.8 412.11L180.38 403.55L182.72 395.69L175.49 393.16L173.39 402.6L171.53 411Z" fill="#EBB376"/>
<path opacity="0.2" d="M173.35 402.8L180.35 403.72L182.71 395.78L175.48 393.2L173.35 402.8Z" fill="black"/>
<path d="M213.43 411.15H219.81L220.85 402.6L221.8 394.62L214.23 393.47L213.81 402.85L213.43 411.15Z" fill="#EBB376"/>
<path opacity="0.2" d="M213.81 403.41L220.85 403.1L221.8 394.87L214.23 393.59L213.81 403.41Z" fill="black"/>
<path d="M172.76 395.93L183.08 397.75C193.49 371.81 200.9 350.15 206.08 332.18C208.9 322.48 211.13 313.86 212.82 306.18L212.38 334.43V398.14H222.79C248.28 277.14 230.22 249.01 230.22 249.01L199.72 243.91C198.51 249.557 197.659 255.275 197.17 261.03L195.79 271.14L183.87 332.72L172.76 395.93Z" fill="#263238"/>
<path d="M184.7 396.48L171.9 392.23L172.07 397.68L182.66 401.05L184.7 396.48Z" fill="#ABC2AD"/>
<path opacity="0.6" d="M184.7 396.48L171.9 392.23L172.07 397.68L182.66 401.05L184.7 396.48Z" fill="white"/>
<path d="M224.21 397.07L210.87 395.11L211.98 400.45L222.99 401.93L224.21 397.07Z" fill="#ABC2AD"/>
<path opacity="0.6" d="M224.21 397.07L210.87 395.11L211.98 400.45L222.99 401.93L224.21 397.07Z" fill="white"/>
<path opacity="0.2" d="M204.73 336.93C205.21 335.31 205.73 333.73 206.17 332.18C208.73 323.37 210.43 315.46 212.43 308.35L213.43 295.27C213.43 295.27 206.9 280.9 209.34 270.79C209.12 271.36 204.8 282.38 206.5 293.39C206.899 307.927 206.307 322.474 204.73 336.93V336.93Z" fill="black"/>
<path d="M203.85 191.53C203.934 191.59 204.025 191.64 204.12 191.68C205.395 192.42 206.807 192.896 208.27 193.08C212.53 193.5 215.27 192.57 216.87 190.46C219.09 187.32 219.08 182.27 217.94 176.32C217.565 173.944 216.816 171.642 215.72 169.5C215.72 169.5 215.72 169.41 215.72 169.39C215.72 169.37 215.63 169.22 215.58 169.15C214.91 167.948 213.949 166.933 212.786 166.197C211.622 165.462 210.293 165.03 208.92 164.94C207.724 164.83 206.52 164.854 205.33 165.01C193.61 166.4 194 186 203.85 191.53Z" fill="#EBB376"/>
<path opacity="0.2" d="M204.12 191.68C205.399 192.368 206.804 192.79 208.25 192.92C212.51 193.34 215.25 192.27 216.83 190.13C214.44 191.065 211.809 191.191 209.34 190.49C208.437 190.278 207.497 190.275 206.592 190.482C205.688 190.688 204.842 191.098 204.12 191.68V191.68Z" fill="black"/>
<path d="M203.24 201.25C202.19 204.51 206.38 206.3 206.38 206.3C213.75 203.97 215.43 200.3 215.43 200.3C209.83 196.64 212.43 188.11 212.43 188.11L211.17 188.58L202.58 189.4C202.58 189.4 204.48 194.12 204.69 195.17C205.72 200.74 203.24 201.25 203.24 201.25Z" fill="#EBB376"/>
<path d="M215.73 169.42C215.73 169.42 217.44 177.53 210.13 182.06C210.13 182.06 207.91 191 203.01 191.76C196.34 192.76 189.21 184.04 190.26 174.04C191.63 161.08 210.55 157.58 215.73 169.42Z" fill="#263238"/>
<path d="M213.76 179.19C213.59 177.91 212.28 175.9 210.33 176.45C208.38 177 207.84 182.24 213.04 182.71C213.78 182.78 214.11 181.86 213.76 179.19Z" fill="#EBB376"/>
<path d="M220.48 410H213.37C213.222 409.997 213.077 410.047 212.962 410.14C212.847 410.233 212.768 410.364 212.74 410.51L211.28 417.1C211.249 417.241 211.247 417.386 211.272 417.527C211.298 417.669 211.351 417.804 211.429 417.925C211.507 418.046 211.609 418.15 211.727 418.232C211.846 418.313 211.979 418.37 212.12 418.4C212.2 418.41 212.28 418.41 212.36 418.4C215.27 418.4 215.51 418.18 219.16 418.18C221.41 418.18 228.21 418.41 231.32 418.41C234.43 418.41 234.83 415.34 233.56 415.06C227.85 413.81 223.56 412.06 221.73 410.45C221.386 410.146 220.939 409.985 220.48 410V410Z" fill="#263238"/>
<path d="M221 411C220.965 410.993 220.933 410.975 220.909 410.948C220.885 410.92 220.872 410.886 220.87 410.85C220.865 410.817 220.87 410.783 220.884 410.753C220.899 410.723 220.921 410.697 220.95 410.68C221.22 410.51 223.61 409.04 224.43 409.47C224.523 409.513 224.6 409.583 224.654 409.67C224.707 409.757 224.734 409.858 224.73 409.96C224.757 410.135 224.737 410.315 224.672 410.48C224.607 410.645 224.5 410.79 224.36 410.9C223.946 411.19 223.443 411.324 222.94 411.28C222.285 411.261 221.634 411.167 221 411ZM221.51 410.76C222.375 411.048 223.317 411.002 224.15 410.63C224.237 410.552 224.303 410.453 224.343 410.343C224.383 410.234 224.396 410.116 224.38 410C224.38 409.85 224.32 409.79 224.27 409.79C224.199 409.754 224.12 409.736 224.04 409.74C223.138 409.906 222.276 410.242 221.5 410.73L221.51 410.76Z" fill="#ABC2AD"/>
<path d="M220.94 411C220.914 410.983 220.893 410.959 220.879 410.931C220.865 410.903 220.858 410.871 220.86 410.84C220.86 410.74 221.05 408.61 221.86 407.91C221.962 407.822 222.082 407.756 222.211 407.718C222.34 407.68 222.477 407.671 222.61 407.69C222.743 407.688 222.872 407.733 222.974 407.817C223.077 407.901 223.146 408.019 223.17 408.15C223.33 408.93 221.85 410.56 221.08 410.97H221C220.982 410.984 220.962 410.994 220.94 411ZM222.13 408.12C221.606 408.785 221.299 409.595 221.25 410.44C222.02 409.86 222.96 408.63 222.87 408.15C222.87 408.1 222.87 407.97 222.61 407.97H222.53C222.381 407.971 222.238 408.028 222.13 408.13V408.12Z" fill="#ABC2AD"/>
<path d="M178.05 410H170.93C170.783 410.001 170.64 410.052 170.526 410.145C170.411 410.237 170.332 410.366 170.3 410.51L168.84 417.1C168.809 417.241 168.807 417.386 168.832 417.527C168.858 417.669 168.911 417.804 168.989 417.925C169.067 418.046 169.169 418.15 169.287 418.232C169.406 418.313 169.539 418.37 169.68 418.4C169.76 418.41 169.84 418.41 169.92 418.4C172.84 418.4 173.07 418.18 176.73 418.18C178.98 418.18 185.73 418.41 188.88 418.41C192.03 418.41 192.4 415.34 191.13 415.06C185.42 413.81 181.13 412.06 179.29 410.45C178.95 410.147 178.506 409.986 178.05 410V410Z" fill="#263238"/>
<path d="M178.55 411C178.515 410.993 178.483 410.975 178.459 410.948C178.435 410.92 178.422 410.886 178.42 410.85C178.417 410.816 178.424 410.782 178.44 410.752C178.456 410.722 178.48 410.697 178.51 410.68C178.77 410.51 181.16 409.04 181.99 409.47C182.08 409.516 182.156 409.586 182.209 409.673C182.262 409.759 182.29 409.859 182.29 409.96C182.317 410.135 182.297 410.315 182.232 410.48C182.167 410.645 182.06 410.79 181.92 410.9C181.505 411.186 181.003 411.321 180.5 411.28C179.841 411.262 179.187 411.168 178.55 411V411ZM179.06 410.76C179.925 411.048 180.867 411.002 181.7 410.63C181.788 410.552 181.855 410.454 181.897 410.344C181.939 410.235 181.954 410.117 181.94 410C181.94 409.85 181.87 409.79 181.82 409.79C181.753 409.753 181.677 409.735 181.6 409.74C180.699 409.909 179.838 410.245 179.06 410.73V410.76Z" fill="#ABC2AD"/>
<path d="M178.51 411C178.481 410.985 178.457 410.962 178.442 410.933C178.426 410.905 178.418 410.872 178.42 410.84C178.42 410.74 178.61 408.61 179.47 407.91C179.569 407.821 179.687 407.755 179.815 407.717C179.943 407.679 180.078 407.669 180.21 407.69C180.344 407.687 180.474 407.732 180.579 407.816C180.683 407.9 180.754 408.019 180.78 408.15C180.93 408.93 179.45 410.56 178.69 410.97H178.6L178.51 411ZM179.69 408.12C179.169 408.786 178.866 409.596 178.82 410.44C179.58 409.86 180.52 408.63 180.43 408.15C180.43 408.1 180.43 407.97 180.18 407.97H180.09C179.941 407.971 179.798 408.028 179.69 408.13V408.12Z" fill="#ABC2AD"/>
<path d="M230.27 249.14C230.27 249.14 236.09 213.69 226.09 197.8C226.09 197.8 206.09 196.56 192.09 204.67C192.09 204.67 197.89 220.45 198.76 249.14H230.27Z" fill="#ABC2AD"/>
<path opacity="0.1" d="M232.09 222C232.52 217.19 231.09 212.56 230.89 208.48C228.389 206.272 226.178 203.755 224.31 200.99C224.31 200.99 222.5 215.36 232.09 222Z" fill="black"/>
<path d="M223.61 197.73C223.61 197.73 243.4 195.41 246.38 194.16C248.24 193.38 262.79 183.87 262.79 183.87L266.2 189C266.2 189 251.32 201 248.8 202.4C242.9 205.64 229.64 210.22 229.64 210.22C229.64 210.22 221.63 204.6 223.61 197.73Z" fill="#ABC2AD"/>
<path d="M215.43 174.79C215.43 174.79 223.66 166.56 215.9 161.02C208.14 155.48 200.34 162.71 200.34 162.71C200.34 162.71 181.78 167.19 185.73 179.54C189.68 191.89 192.26 192.93 186.38 199.26C180.5 205.59 174.5 215 180.51 221C186.52 227 207.51 220.83 213.9 211.78C220.29 202.73 209 183.28 215.43 174.79Z" fill="#263238"/>
<path d="M198.74 249.14L198.61 245.78L230.63 246.59V249.7L198.74 249.14Z" fill="black"/>
<path d="M208.89 246.01H207.6V249.32H208.89V246.01Z" fill="#263238"/>
<path d="M223.67 246.38H222.53V250H223.67V246.38Z" fill="#263238"/>
<path d="M200.58 245.83H199.49V249.7H200.58V245.83Z" fill="#263238"/>
</svg>
