<svg width="500" height="500" viewBox="0 0 500 500" fill="none" xmlns="http://www.w3.org/2000/svg">
<path d="M106.65 396.3C106.65 396.3 149.73 444.85 218.47 443C287.21 441.15 346.13 394.85 394.85 358.61C443.57 322.37 456.99 265.61 429.08 221.08C401.17 176.55 356.19 194.9 299.24 165.7C242.29 136.5 231.55 120.09 167.85 126.7C104.15 133.31 55.17 204.48 61.88 280.8C68.59 357.12 106.65 396.3 106.65 396.3Z" fill="#ABC2AD"/>
<path opacity="0.7" d="M106.65 396.3C106.65 396.3 149.73 444.85 218.47 443C287.21 441.15 346.13 394.85 394.85 358.61C443.57 322.37 456.99 265.61 429.08 221.08C401.17 176.55 356.19 194.9 299.24 165.7C242.29 136.5 231.55 120.09 167.85 126.7C104.15 133.31 55.17 204.48 61.88 280.8C68.59 357.12 106.65 396.3 106.65 396.3Z" fill="white"/>
<path opacity="0.2" d="M325.01 327.12V189.82C325.01 186.788 322.552 184.33 319.52 184.33H260.46C257.428 184.33 254.97 186.788 254.97 189.82V327.12C254.97 330.152 257.428 332.61 260.46 332.61H319.52C322.552 332.61 325.01 330.152 325.01 327.12Z" fill="black"/>
<path d="M322.07 325.37V188.07C322.07 185.038 319.612 182.58 316.58 182.58H257.52C254.488 182.58 252.03 185.038 252.03 188.07V325.37C252.03 328.402 254.488 330.86 257.52 330.86H316.58C319.612 330.86 322.07 328.402 322.07 325.37Z" fill="#B5B5B5" stroke="#263238" stroke-linecap="round" stroke-linejoin="round"/>
<path d="M316.58 182.57H257.51C256.79 182.57 256.076 182.712 255.411 182.988C254.745 183.264 254.14 183.669 253.631 184.179C253.122 184.689 252.719 185.294 252.444 185.96C252.169 186.626 252.029 187.34 252.03 188.06V191.4H322.03V188.06C322.033 186.61 321.461 185.218 320.439 184.189C319.418 183.16 318.03 182.578 316.58 182.57V182.57Z" fill="#ABC2AD" stroke="#263238" stroke-linecap="round" stroke-linejoin="round"/>
<path d="M300.93 198.66H256.13V271.85H300.93V198.66Z" fill="#263238" stroke="#263238" stroke-linecap="round" stroke-linejoin="round"/>
<path d="M252 323V325.4C251.999 326.12 252.139 326.834 252.414 327.5C252.689 328.166 253.093 328.771 253.602 329.281C254.111 329.791 254.715 330.196 255.381 330.472C256.046 330.748 256.76 330.89 257.48 330.89H316.55C317.27 330.89 317.984 330.748 318.649 330.472C319.315 330.196 319.92 329.791 320.429 329.281C320.938 328.771 321.341 328.166 321.616 327.5C321.891 326.834 322.031 326.12 322.03 325.4V323H252Z" fill="#ABC2AD" stroke="#263238" stroke-linecap="round" stroke-linejoin="round"/>
<path d="M296.82 307.82H282.94V322.96H296.82V307.82Z" stroke="#263238" stroke-linecap="round" stroke-linejoin="round"/>
<path d="M293.67 307.82C293.67 307.009 293.43 306.216 292.979 305.542C292.529 304.868 291.888 304.342 291.139 304.032C290.39 303.722 289.565 303.641 288.77 303.799C287.975 303.957 287.244 304.347 286.671 304.921C286.097 305.494 285.707 306.225 285.549 307.02C285.391 307.815 285.472 308.64 285.782 309.389C286.092 310.138 286.618 310.779 287.292 311.229C287.966 311.68 288.759 311.92 289.57 311.92C290.108 311.92 290.642 311.814 291.139 311.608C291.636 311.402 292.088 311.1 292.469 310.719C292.85 310.338 293.152 309.886 293.358 309.389C293.564 308.892 293.67 308.358 293.67 307.82Z" stroke="#263238" stroke-linecap="round" stroke-linejoin="round"/>
<path d="M288.31 303.72V271.85" stroke="#263238" stroke-linecap="round" stroke-linejoin="round"/>
<path d="M269.06 281.32H256.13V297.73H269.06V281.32Z" stroke="#263238" stroke-linecap="round" stroke-linejoin="round"/>
<path d="M302.5 322.96H289.88V330.85H302.5V322.96Z" fill="#263238" stroke="#263238" stroke-linecap="round" stroke-linejoin="round"/>
<path d="M286.9 214.89H280.19L272.33 233.06H278L271.33 250.89L286.67 228.39H280.67L286.9 214.89Z" fill="#ABC2AD"/>
<path opacity="0.2" d="M161.55 341.34H171.84V411.34H161.55C160.83 411.34 160.118 411.198 159.453 410.923C158.788 410.647 158.184 410.244 157.675 409.735C157.166 409.226 156.763 408.622 156.487 407.957C156.212 407.292 156.07 406.58 156.07 405.86V346.83C156.069 346.11 156.209 345.396 156.484 344.73C156.759 344.064 157.163 343.459 157.672 342.949C158.18 342.439 158.785 342.034 159.451 341.758C160.116 341.482 160.83 341.34 161.55 341.34V341.34Z" fill="black"/>
<path d="M159.71 339.81H170V409.81H159.71C158.99 409.81 158.276 409.668 157.611 409.392C156.945 409.116 156.341 408.711 155.832 408.201C155.323 407.691 154.919 407.086 154.644 406.42C154.369 405.754 154.229 405.04 154.23 404.32V345.29C154.23 343.837 154.807 342.443 155.835 341.415C156.863 340.387 158.257 339.81 159.71 339.81V339.81Z" fill="#ABC2AD" stroke="#263238" stroke-linecap="round" stroke-linejoin="round"/>
<path opacity="0.2" d="M361.86 341.57H351.57V371.71C352.467 371.068 353.523 370.686 354.623 370.606C355.723 370.526 356.824 370.75 357.804 371.254C358.785 371.758 359.608 372.523 360.182 373.464C360.757 374.406 361.061 375.487 361.061 376.59C361.061 377.693 360.757 378.774 360.182 379.716C359.608 380.657 358.785 381.422 357.804 381.926C356.824 382.43 355.723 382.654 354.623 382.574C353.523 382.494 352.467 382.112 351.57 381.47V411.61H361.86C363.316 411.61 364.712 411.032 365.742 410.002C366.772 408.972 367.35 407.576 367.35 406.12V347.06C367.35 345.604 366.772 344.208 365.742 343.178C364.712 342.148 363.316 341.57 361.86 341.57Z" fill="black"/>
<path d="M360.1 339.81H349.81V370C350.707 369.358 351.763 368.976 352.863 368.896C353.963 368.816 355.064 369.04 356.044 369.544C357.025 370.048 357.848 370.813 358.422 371.754C358.997 372.696 359.301 373.777 359.301 374.88C359.301 375.983 358.997 377.064 358.422 378.006C357.848 378.947 357.025 379.712 356.044 380.216C355.064 380.72 353.963 380.944 352.863 380.864C351.763 380.784 350.707 380.402 349.81 379.76V409.9H360.1C360.82 409.9 361.534 409.758 362.199 409.482C362.865 409.206 363.469 408.801 363.978 408.291C364.487 407.781 364.891 407.176 365.166 406.51C365.441 405.844 365.581 405.13 365.58 404.41V345.29C365.58 343.837 365.003 342.443 363.975 341.415C362.947 340.387 361.553 339.81 360.1 339.81V339.81Z" fill="#ABC2AD" stroke="#263238" stroke-linecap="round" stroke-linejoin="round"/>
<path opacity="0.2" d="M331.14 342.16H193.84C190.808 342.16 188.35 344.618 188.35 347.65V406.71C188.35 409.742 190.808 412.2 193.84 412.2H331.14C334.172 412.2 336.63 409.742 336.63 406.71V347.65C336.63 344.618 334.172 342.16 331.14 342.16Z" fill="black"/>
<path d="M327.62 339.81H190.32C187.288 339.81 184.83 342.268 184.83 345.3V404.36C184.83 407.392 187.288 409.85 190.32 409.85H327.62C330.652 409.85 333.11 407.392 333.11 404.36V345.3C333.11 342.268 330.652 339.81 327.62 339.81Z" fill="#263238" stroke="#263238" stroke-linecap="round" stroke-linejoin="round"/>
<path d="M325.91 341.38H192.03C188.998 341.38 186.54 343.838 186.54 346.87V402.79C186.54 405.822 188.998 408.28 192.03 408.28H325.91C328.942 408.28 331.4 405.822 331.4 402.79V346.87C331.4 343.838 328.942 341.38 325.91 341.38Z" fill="#ABC2AD" stroke="#263238" stroke-linecap="round" stroke-linejoin="round"/>
<path d="M197 343.91H295.83V406.38H197C195.433 406.38 193.929 405.757 192.821 404.649C191.713 403.541 191.09 402.037 191.09 400.47V349.82C191.09 348.253 191.713 346.749 192.821 345.641C193.929 344.533 195.433 343.91 197 343.91V343.91Z" fill="#B5B5B5" stroke="#263238" stroke-linecap="round" stroke-linejoin="round"/>
<path d="M323.96 378.61C326.224 378.61 328.06 376.774 328.06 374.51C328.06 372.246 326.224 370.41 323.96 370.41C321.696 370.41 319.86 372.246 319.86 374.51C319.86 376.774 321.696 378.61 323.96 378.61Z" fill="#263238" stroke="#263238" stroke-linecap="round" stroke-linejoin="round"/>
<path d="M301.87 394.39H299.03V406.38H301.87V394.39Z" stroke="#263238" stroke-linecap="round" stroke-linejoin="round"/>
<path d="M301.87 376.09H299.03V388.08H301.87V376.09Z" stroke="#263238" stroke-linecap="round" stroke-linejoin="round"/>
<path d="M221.63 280.32H193.63V278.79C193.63 278.392 193.472 278.011 193.191 277.729C192.909 277.448 192.528 277.29 192.13 277.29C191.732 277.29 191.351 277.448 191.069 277.729C190.788 278.011 190.63 278.392 190.63 278.79V302.79C190.63 303.188 190.788 303.569 191.069 303.851C191.351 304.132 191.732 304.29 192.13 304.29C192.528 304.29 192.909 304.132 193.191 303.851C193.472 303.569 193.63 303.188 193.63 302.79V300.64H221.63C222.594 300.637 223.517 300.253 224.197 299.57C224.878 298.888 225.26 297.964 225.26 297V284C225.265 283.519 225.175 283.043 224.995 282.597C224.815 282.151 224.549 281.746 224.212 281.404C223.874 281.062 223.472 280.79 223.029 280.604C222.586 280.418 222.111 280.321 221.63 280.32V280.32ZM193.63 282.32H212.63V298.62H193.63V282.32ZM223.26 297C223.26 297.433 223.089 297.849 222.783 298.156C222.478 298.463 222.063 298.637 221.63 298.64H214.54V282.34H221.63C222.062 282.34 222.477 282.512 222.783 282.817C223.088 283.123 223.26 283.538 223.26 283.97V297Z" fill="#263238"/>
<path d="M205.08 247.56H193.35V272.49H213.85V255.61L205.08 247.56Z" fill="#ABC2AD" stroke="#263238" stroke-linecap="round" stroke-linejoin="round"/>
<path d="M206.44 254.91H199C197.614 254.91 196.49 256.034 196.49 257.42V266.34C196.49 267.726 197.614 268.85 199 268.85H206.44C207.826 268.85 208.95 267.726 208.95 266.34V257.42C208.95 256.034 207.826 254.91 206.44 254.91Z" fill="white" stroke="#263238" stroke-linecap="round" stroke-linejoin="round"/>
<path d="M202.6 255.16V268.86" stroke="#263238" stroke-linecap="round" stroke-linejoin="round"/>
<path d="M196.49 262.14H208.82" stroke="#263238" stroke-linecap="round" stroke-linejoin="round"/>
<path d="M199.48 268.74V265.63C199.48 264.803 199.809 264.009 200.394 263.424C200.979 262.839 201.773 262.51 202.6 262.51H202.71C203.538 262.51 204.333 262.838 204.92 263.423C205.506 264.008 205.837 264.802 205.84 265.63V268.85" stroke="#263238" stroke-linecap="round" stroke-linejoin="round"/>
<path d="M205.84 255.63V258.74C205.837 259.568 205.506 260.362 204.92 260.947C204.333 261.532 203.538 261.86 202.71 261.86H202.6C202.19 261.86 201.785 261.779 201.406 261.623C201.027 261.466 200.684 261.236 200.394 260.946C200.104 260.656 199.874 260.313 199.717 259.934C199.561 259.555 199.48 259.15 199.48 258.74V255.52" stroke="#263238" stroke-linecap="round" stroke-linejoin="round"/>
<path opacity="0.2" d="M401.36 231.73C401.36 231.597 401.307 231.47 401.214 231.376C401.12 231.283 400.993 231.23 400.86 231.23H381C380.868 231.233 380.743 231.286 380.649 231.379C380.556 231.472 380.503 231.598 380.5 231.73V246.4C380.503 246.532 380.557 246.657 380.65 246.75L384.78 297.36C384.775 297.383 384.775 297.407 384.78 297.43V349.75C384.779 349.823 384.795 349.895 384.826 349.961C384.857 350.027 384.903 350.084 384.96 350.13L387.73 367.25C387.749 367.367 387.808 367.473 387.898 367.55C387.988 367.627 388.102 367.669 388.22 367.67H389L389.67 405.92C389.698 406.236 389.844 406.53 390.078 406.744C390.312 406.959 390.618 407.077 390.935 407.077C391.252 407.077 391.558 406.959 391.792 406.744C392.026 406.53 392.172 406.236 392.2 405.92L392.86 367.66H393.63C393.749 367.66 393.865 367.617 393.956 367.541C394.047 367.464 394.109 367.357 394.13 367.24L396.89 350.12C396.948 350.075 396.995 350.017 397.028 349.952C397.061 349.886 397.079 349.814 397.08 349.74V297.43C397.075 297.407 397.075 297.383 397.08 297.36L401.21 246.75C401.301 246.656 401.351 246.53 401.35 246.4L401.36 231.73Z" fill="black"/>
<path d="M388.39 406.67C388.191 406.667 388.001 406.588 387.859 406.448C387.717 406.308 387.635 406.119 387.63 405.92L386.89 363.67H389.89L389.16 405.92C389.155 406.121 389.071 406.311 388.928 406.452C388.784 406.592 388.591 406.67 388.39 406.67V406.67Z" fill="white" stroke="#263238" stroke-miterlimit="10"/>
<path d="M398.2 246.44H378.61L382.77 297.32H382.78V349.75H394.04V297.32H394.05L398.2 246.44Z" fill="#263238" stroke="#263238" stroke-linecap="round" stroke-linejoin="round"/>
<path d="M398.32 231.73H378.49V246.39H398.32V231.73Z" fill="#ABC2AD" stroke="#263238" stroke-linecap="round" stroke-linejoin="round"/>
<path d="M391.1 367.17H385.72L382.92 349.83H393.89L391.1 367.17Z" fill="#ABC2AD" stroke="#263238" stroke-linecap="round" stroke-linejoin="round"/>
<path opacity="0.2" d="M134.82 247C134.81 246.876 134.757 246.759 134.67 246.67C134.553 246.525 134.394 246.421 134.214 246.372C134.034 246.324 133.844 246.333 133.67 246.4C132.23 247 132.09 253.02 132.07 268.8C132.07 278.32 132.07 289.12 131.3 296.22C129.045 315.025 125.367 333.631 120.3 351.88C119.22 355.522 118.411 359.239 117.88 363C117.33 359.249 116.507 355.542 115.42 351.91C110.348 333.662 106.671 315.055 104.42 296.25C103.67 289.15 103.66 278.35 103.65 268.83C103.65 253.05 103.5 247.03 102.06 246.43C101.886 246.367 101.696 246.358 101.517 246.407C101.338 246.455 101.179 246.557 101.06 246.7C100.972 246.787 100.921 246.906 100.92 247.03C100.92 247.54 98.71 298.33 102.42 319.64C104.08 329.14 105.94 338.72 107.74 347.98C110 359.61 111.95 369.66 112.92 376.62C114.3 386.5 114.28 399.01 114.2 403.93C114.199 404.24 114.258 404.547 114.376 404.834C114.493 405.121 114.666 405.382 114.884 405.602C115.102 405.822 115.362 405.997 115.648 406.117C115.933 406.236 116.24 406.299 116.55 406.3H119.17C119.48 406.3 119.787 406.239 120.072 406.119C120.358 406 120.618 405.825 120.835 405.604C121.053 405.384 121.225 405.122 121.341 404.835C121.456 404.547 121.514 404.24 121.51 403.93C121.44 399.01 121.41 386.51 122.79 376.62C123.79 369.62 125.72 359.62 127.98 347.98C129.77 338.72 131.63 329.14 133.29 319.64C137 298.3 134.84 247.51 134.82 247ZM117.88 371.75C117.907 371.868 117.94 371.985 117.98 372.1L117.88 372.19L117.78 372.1C117.81 372 117.84 371.89 117.88 371.75Z" fill="black"/>
<path d="M132.13 247.28C129.13 244.28 131.38 280.03 129.63 296.53C127.387 315.366 123.71 334.004 118.63 352.28C114.13 367.78 116.38 372.53 116.38 372.53L115.69 373.09C115.3 372.76 115 372.53 115 372.53C115 372.53 117.25 367.78 112.75 352.28C107.67 334.004 103.993 315.366 101.75 296.53C100 280.03 102.25 244.28 99.25 247.28C99.25 247.28 97 298.28 100.75 319.78C104.5 341.28 109.5 364.28 111.25 376.78C112.65 386.78 112.61 399.46 112.54 404.16C112.536 404.404 112.581 404.647 112.671 404.873C112.762 405.1 112.897 405.306 113.068 405.481C113.239 405.655 113.444 405.793 113.669 405.887C113.894 405.981 114.136 406.03 114.38 406.03H117C117.244 406.03 117.486 405.981 117.711 405.887C117.936 405.793 118.141 405.655 118.312 405.481C118.483 405.306 118.618 405.1 118.709 404.873C118.799 404.647 118.844 404.404 118.84 404.16C118.77 399.46 118.74 386.76 120.13 376.78C121.88 364.28 126.88 341.28 130.63 319.78C134.38 298.28 132.13 247.28 132.13 247.28Z" fill="#263238" stroke="#263238" stroke-linecap="round" stroke-linejoin="round"/>
<path opacity="0.2" d="M383.34 139.32C388.404 121.307 394.375 103.561 401.23 86.15L360.38 84.56C360.38 84.56 348.52 115.27 343.79 123.79C339.06 132.31 333.06 134.79 326.12 137.67C319.18 140.55 299.62 152.81 297.72 157.55C295.82 162.29 293.62 176.48 291.72 181.21C289.82 185.94 286.04 188.46 280.36 190.04C279.25 190.35 278.12 190.64 277.04 190.92H276.96L275.89 191.2L275.32 191.35L274.95 191.45L274.44 191.6L274.08 191.71L273.57 191.87L273.27 191.96L272.54 192.22L272.4 192.28C272.21 192.35 272.03 192.42 271.86 192.5L271.63 192.6L271.24 192.8L271.03 192.91L270.68 193.12L270.53 193.23C270.385 193.333 270.248 193.447 270.12 193.57V193.57C270.021 193.672 269.931 193.783 269.85 193.9C269.823 193.941 269.799 193.985 269.78 194.03C269.732 194.116 269.692 194.206 269.66 194.3C269.639 194.348 269.622 194.399 269.61 194.45C269.599 194.55 269.599 194.65 269.61 194.75C269.605 194.797 269.605 194.843 269.61 194.89C269.617 195.047 269.647 195.202 269.7 195.35C270.64 198.19 279.79 200.09 288.94 198.83C298.09 197.57 301.56 195.04 304.4 191.25C307.24 187.46 311.97 179.25 313.86 178.32L315.76 177.32C315.76 177.32 315.44 211.08 316.07 215.18C316.7 219.28 313.23 233.48 306.29 250.52C303.974 255.945 302.777 261.781 302.77 267.68V267.76C302.787 269.099 302.89 270.435 303.08 271.76V271.76C303.243 272.903 303.477 274.036 303.78 275.15C303.87 275.47 303.97 275.79 304.06 276.09V276.14C304.26 276.76 304.47 277.33 304.68 277.84C304.78 278.07 304.87 278.29 304.97 278.49L305.03 278.62C305.123 278.813 305.213 278.993 305.3 279.16C305.302 279.187 305.302 279.213 305.3 279.24C305.4 279.43 305.5 279.61 305.61 279.78V279.83C305.7 279.97 305.78 280.11 305.87 280.23L305.95 280.35L306.15 280.62L306.23 280.71L306.49 281C308.7 283.21 313.11 283.21 314.06 282.26C315.01 281.31 314.38 268.69 316.27 260.49C318.16 252.29 329.2 230.49 332.36 226.1C334.77 222.56 336.98 218.887 338.98 215.1C337.501 225.367 334.857 235.432 331.1 245.1C324.79 261.51 318.16 272.23 316.9 276.97C315.64 281.71 320.37 284.54 323.21 283.28C326.05 282.02 332.04 269.39 334.21 264.98C336.38 260.57 342.84 250 342.84 250C344.565 250.207 346.314 249.966 347.918 249.3C349.522 248.635 350.928 247.567 352 246.2C352.46 245.62 352.95 244.97 353.46 244.28C355.309 244.507 357.186 244.298 358.94 243.67C363.67 242.1 363.36 237.36 365.25 232.67C366.05 230.797 367.121 229.051 368.43 227.49C369.846 226.558 371.024 225.308 371.87 223.84C372.81 221.51 374.26 204.19 375.71 190.98C376.128 173.512 378.69 156.162 383.34 139.32V139.32Z" fill="black"/>
<path d="M366.86 219.8C366.86 219.8 362.13 223.9 360.24 228.63C358.35 233.36 358.66 238.1 353.93 239.63C349.2 241.16 346.36 239.63 346.36 239.63C346.36 239.63 350.14 230.17 352.36 227.01C354.58 223.85 366.86 219.8 366.86 219.8Z" fill="#ABC2AD"/>
<path opacity="0.5" d="M366.86 219.8C366.86 219.8 362.13 223.9 360.24 228.63C358.35 233.36 358.66 238.1 353.93 239.63C349.2 241.16 346.36 239.63 346.36 239.63C346.36 239.63 350.14 230.17 352.36 227.01C354.58 223.85 366.86 219.8 366.86 219.8Z" fill="white"/>
<path d="M366.86 219.8C366.86 219.8 362.13 223.9 360.24 228.63C358.35 233.36 358.66 238.1 353.93 239.63C349.2 241.16 346.36 239.63 346.36 239.63C346.36 239.63 350.14 230.17 352.36 227.01C354.58 223.85 366.86 219.8 366.86 219.8Z" stroke="#263238" stroke-linecap="round" stroke-linejoin="round"/>
<path d="M355.38 80.56C355.38 80.56 343.52 111.27 338.79 119.79C334.06 128.31 328.06 130.79 321.12 133.67C314.18 136.55 294.62 148.81 292.72 153.55C290.82 158.29 288.62 172.48 286.72 177.21C284.82 181.94 281.04 184.46 275.36 186.04C269.68 187.62 263.69 188.57 264.64 191.4C265.59 194.23 274.73 196.14 283.88 194.88C293.03 193.62 296.5 191.09 299.34 187.3C302.18 183.51 306.91 175.3 308.8 174.37L310.7 173.37C310.7 173.37 310.38 207.13 311.01 211.23C311.64 215.33 308.17 229.53 301.23 246.57C294.29 263.61 299.34 274.96 301.55 277.17C303.76 279.38 308.17 279.38 309.12 278.43C310.07 277.48 309.44 264.86 311.33 256.66C313.22 248.46 324.26 226.66 327.42 222.27C329.83 218.73 332.04 215.057 334.04 211.27C332.561 221.537 329.917 231.602 326.16 241.27C319.85 257.68 313.22 268.4 311.96 273.14C310.7 277.88 315.43 280.71 318.27 279.45C321.11 278.19 327.1 265.56 329.27 261.15C331.44 256.74 337.84 246 337.84 246C339.565 246.207 341.313 245.966 342.918 245.3C344.522 244.635 345.928 243.567 347 242.2C350.78 237.47 356.78 227.69 356.78 227.69C356.78 227.69 365.61 222.95 366.87 219.8C368.13 216.65 370.34 186.04 372.24 175.31C374.14 164.58 379.49 141.56 382.33 132.41C385.17 123.26 405.87 83.72 405.87 83.72" fill="white"/>
<path d="M299.35 187.3C302.19 183.52 306.92 175.3 308.81 174.37L310.71 173.37C310.71 173.37 306 164.28 301.33 170.95C296.66 177.62 290 187.67 284 188.33C279.84 188.8 276 187.66 272.05 186.92C267.61 188.06 263.89 189.12 264.65 191.4C265.59 194.24 274.74 196.14 283.89 194.88C293.04 193.62 296.51 191.09 299.35 187.3Z" fill="#ABC2AD"/>
<path d="M297.73 262.33C297.5 270.5 300.13 275.79 301.56 277.22C303.77 279.43 308.18 279.43 309.13 278.48C310.08 277.53 309.45 264.91 311.34 256.71C313.23 248.51 324.27 226.71 327.43 222.32C329.84 218.78 332.05 215.107 334.05 211.32C334.05 211.32 326.67 225 318.67 233C311.58 240.09 301.36 247.7 297.73 262.33Z" fill="#ABC2AD"/>
<path d="M392.67 109.67C386.239 120.776 379.112 131.465 371.33 141.67C357.33 160.33 356.67 183.67 354.67 193.67C352.67 203.67 354 213 346.67 223.67C339.34 234.34 334.67 243 334.67 243L334.05 211.28C332.571 221.547 329.927 231.612 326.17 241.28C319.86 257.69 313.23 268.41 311.97 273.15C310.71 277.89 315.44 280.72 318.28 279.46C321.12 278.2 327.11 265.57 329.28 261.16C331.45 256.75 337.84 246 337.84 246C339.565 246.207 341.314 245.966 342.918 245.3C344.522 244.635 345.928 243.567 347 242.2C350.78 237.47 356.78 227.69 356.78 227.69C356.78 227.69 365.61 222.95 366.87 219.8C368.13 216.65 370.34 186.04 372.24 175.31C374.14 164.58 379.49 141.56 382.33 132.41C383.65 128.18 388.2 118.75 392.72 109.83L392.67 109.67Z" fill="#ABC2AD"/>
<g opacity="0.5">
<path opacity="0.5" d="M299.35 187.3C302.19 183.52 306.92 175.3 308.81 174.37L310.71 173.37C310.71 173.37 306 164.28 301.33 170.95C296.66 177.62 290 187.67 284 188.33C279.84 188.8 276 187.66 272.05 186.92C267.61 188.06 263.89 189.12 264.65 191.4C265.59 194.24 274.74 196.14 283.89 194.88C293.04 193.62 296.51 191.09 299.35 187.3Z" fill="white"/>
<path opacity="0.5" d="M297.73 262.33C297.5 270.5 300.13 275.79 301.56 277.22C303.77 279.43 308.18 279.43 309.13 278.48C310.08 277.53 309.45 264.91 311.34 256.71C313.23 248.51 324.27 226.71 327.43 222.32C329.84 218.78 332.05 215.107 334.05 211.32C334.05 211.32 326.67 225 318.67 233C311.58 240.09 301.36 247.7 297.73 262.33Z" fill="white"/>
<path opacity="0.5" d="M392.67 109.67C386.239 120.776 379.112 131.465 371.33 141.67C357.33 160.33 356.67 183.67 354.67 193.67C352.67 203.67 354 213 346.67 223.67C339.34 234.34 334.67 243 334.67 243L334.05 211.28C332.571 221.547 329.927 231.612 326.17 241.28C319.86 257.69 313.23 268.41 311.97 273.15C310.71 277.89 315.44 280.72 318.28 279.46C321.12 278.2 327.11 265.57 329.28 261.16C331.45 256.75 337.84 246 337.84 246C339.565 246.207 341.314 245.966 342.918 245.3C344.522 244.635 345.928 243.567 347 242.2C350.78 237.47 356.78 227.69 356.78 227.69C356.78 227.69 365.61 222.95 366.87 219.8C368.13 216.65 370.34 186.04 372.24 175.31C374.14 164.58 379.49 141.56 382.33 132.41C383.65 128.18 388.2 118.75 392.72 109.83L392.67 109.67Z" fill="white"/>
</g>
<path d="M355.38 80.56C355.38 80.56 343.52 111.27 338.79 119.79C334.06 128.31 328.06 130.79 321.12 133.67C314.18 136.55 294.62 148.81 292.72 153.55C290.82 158.29 288.62 172.48 286.72 177.21C284.82 181.94 281.04 184.46 275.36 186.04C269.68 187.62 263.69 188.57 264.64 191.4C265.59 194.23 274.73 196.14 283.88 194.88C293.03 193.62 296.5 191.09 299.34 187.3C302.18 183.51 306.91 175.3 308.8 174.37L310.7 173.37C310.7 173.37 310.38 207.13 311.01 211.23C311.64 215.33 308.17 229.53 301.23 246.57C294.29 263.61 299.34 274.96 301.55 277.17C303.76 279.38 308.17 279.38 309.12 278.43C310.07 277.48 309.44 264.86 311.33 256.66C313.22 248.46 324.26 226.66 327.42 222.27C329.83 218.73 332.04 215.057 334.04 211.27C332.561 221.537 329.917 231.602 326.16 241.27C319.85 257.68 313.22 268.4 311.96 273.14C310.7 277.88 315.43 280.71 318.27 279.45C321.11 278.19 327.1 265.56 329.27 261.15C331.44 256.74 337.84 246 337.84 246C339.565 246.207 341.313 245.966 342.918 245.3C344.522 244.635 345.928 243.567 347 242.2C350.78 237.47 356.78 227.69 356.78 227.69C356.78 227.69 365.61 222.95 366.87 219.8C368.13 216.65 370.34 186.04 372.24 175.31C374.14 164.58 379.49 141.56 382.33 132.41C385.17 123.26 405.87 83.72 405.87 83.72" stroke="#263238" stroke-linecap="round" stroke-linejoin="round"/>
<path d="M336 206.33C336 206.33 338.67 205 339.33 200.33C339.737 197.46 339.961 194.568 340 191.67" stroke="#263238" stroke-linecap="round" stroke-linejoin="round"/>
<path d="M337.84 246C337.84 246 347.62 228.34 349.2 227.39C350.78 226.44 355.82 223.6 356.14 219.19C356.46 214.78 356.77 209.41 356.77 209.41" stroke="#263238" stroke-linecap="round" stroke-linejoin="round"/>
<path d="M168.39 83C168.39 83 179.15 121.4 181.39 126.13C183.63 130.86 195.58 138.43 197.79 148.84C200 159.25 202.84 163.67 205.36 171.56C207.88 179.45 210.1 179.45 206.31 186.07C202.52 192.69 201.89 196.8 204.42 200.9C206.95 205 219.88 210.36 218.3 213.52C216.72 216.68 215.14 217.62 213.88 217.62H212.62C212.62 217.62 215.46 228.03 213.88 231.82C212.3 235.61 208.52 238.13 207.26 236.23C206 234.33 203.79 231.5 203.79 231.5C203.79 231.5 206.31 236.55 203.16 237.18C200.01 237.81 199.37 236.87 194.64 234.66C189.91 232.45 179.18 230.24 179.18 230.24C179.18 230.24 166.56 235.24 162.46 236.55C158.36 237.86 153.31 236.23 153.31 236.23C153.31 236.23 139.74 241.6 137.53 237.23C135.32 232.86 133.75 214.52 132.8 211.05C131.85 207.58 128.7 204.74 129.33 199.37C129.96 194 131.54 190.85 131.86 188.65C132.18 186.45 140.37 146.37 140.37 137.54C140.37 128.71 124.92 84.54 124.92 84.54" fill="white"/>
<path d="M168.39 83C168.39 83 179.15 121.4 181.39 126.13C183.63 130.86 195.58 138.43 197.79 148.84C200 159.25 202.84 163.67 205.36 171.56C207.88 179.45 210.1 179.45 206.31 186.07C202.52 192.69 201.89 196.8 204.42 200.9C206.95 205 219.88 210.36 218.3 213.52C216.72 216.68 215.14 217.62 213.88 217.62H212.62C212.62 217.62 215.46 228.03 213.88 231.82C212.3 235.61 208.52 238.13 207.26 236.23C206 234.33 203.79 231.5 203.79 231.5C203.79 231.5 206.31 236.55 203.16 237.18C200.01 237.81 199.37 236.87 194.64 234.66C189.91 232.45 179.18 230.24 179.18 230.24C179.18 230.24 166.56 235.24 162.46 236.55C158.36 237.86 153.31 236.23 153.31 236.23C153.31 236.23 139.74 241.6 137.53 237.23C135.32 232.86 133.75 214.52 132.8 211.05C131.85 207.58 128.7 204.74 129.33 199.37C129.96 194 131.54 190.85 131.86 188.65C132.18 186.45 140.37 146.37 140.37 137.54C140.37 128.71 124.92 84.54 124.92 84.54" stroke="#263238" stroke-linecap="round" stroke-linejoin="round"/>
<path d="M182 162.06C182 162.06 187 183.2 189.89 190.46C192.78 197.72 195.56 205.29 198.72 208.13C201.88 210.97 211.34 216.01 212.6 217.59" stroke="#263238" stroke-linecap="round" stroke-linejoin="round"/>
<path d="M160.22 185.73C160.22 185.73 180.41 214.73 183.22 219.17C186.03 223.61 194.58 223.58 196.79 225.48L203.73 231.48" stroke="#263238" stroke-linecap="round" stroke-linejoin="round"/>
<path d="M141 193.93C141 193.93 149.52 204.34 156.46 214.75C163.4 225.16 164.04 227.69 167.46 228.63C170.88 229.57 179.13 230.21 179.13 230.21" stroke="#263238" stroke-linecap="round" stroke-linejoin="round"/>
<path d="M134.35 210C134.35 210 148.86 229.56 150.12 232.4C150.738 233.968 151.846 235.294 153.28 236.18" stroke="#263238" stroke-linecap="round" stroke-linejoin="round"/>
<path d="M159.9 165.53C159.9 165.53 153.28 169.01 154.23 171.84C154.915 173.798 155.758 175.698 156.75 177.52" stroke="#263238" stroke-linecap="round" stroke-linejoin="round"/>
<path d="M142.24 176.26C142.24 176.26 136.24 178.15 135.93 181.62C135.768 183.799 136.203 185.981 137.19 187.93" stroke="#263238" stroke-linecap="round" stroke-linejoin="round"/>
<path d="M255.94 216.89H209.33V222.22H255.94V216.89Z" fill="white" stroke="#263238" stroke-linecap="round" stroke-linejoin="round"/>
<path opacity="0.2" d="M171.44 92.89C171.44 92.89 187.15 128.03 189.36 132.77C191.57 137.51 203.55 145.07 205.76 155.48C207.97 165.89 210.81 170.31 213.33 178.2C215.85 186.09 218.07 186.08 214.28 192.71C210.49 199.34 209.86 203.43 212.39 207.54C214.92 211.65 227.85 217 226.27 220.16C224.69 223.32 223.11 224.26 221.85 224.26H220.59C220.59 224.26 223.43 234.67 221.85 238.45C220.27 242.23 216.49 244.76 215.23 242.87C213.97 240.98 211.76 238.14 211.76 238.14C211.76 238.14 214.28 243.19 211.13 243.82C207.98 244.45 207.34 243.5 202.61 241.29C197.88 239.08 187.15 236.88 187.15 236.88C187.15 236.88 174.53 241.88 170.43 243.19C166.33 244.5 161.28 242.87 161.28 242.87C161.28 242.87 147.71 248.23 145.5 243.82C143.29 239.41 141.72 221.1 140.77 217.63C139.82 214.16 136.67 211.32 137.3 205.96C137.93 200.6 139.51 197.44 139.83 195.23C140.15 193.02 148.34 152.96 148.34 144.12C148.34 135.28 132.89 91.12 132.89 91.12" fill="black"/>
<path d="M168.39 83C168.39 83 179.15 121.4 181.39 126.13C183.63 130.86 195.58 138.43 197.79 148.84C200 159.25 202.84 163.67 205.36 171.56C207.88 179.45 210.1 179.45 206.31 186.07C202.52 192.69 201.89 196.8 204.42 200.9C206.95 205 219.88 210.36 218.3 213.52C216.72 216.68 215.14 217.62 213.88 217.62H212.62C212.62 217.62 215.46 228.03 213.88 231.82C212.3 235.61 208.52 238.13 207.26 236.23C206 234.33 203.79 231.5 203.79 231.5C203.79 231.5 206.31 236.55 203.16 237.18C200.01 237.81 199.37 236.87 194.64 234.66C189.91 232.45 179.18 230.24 179.18 230.24C179.18 230.24 166.56 235.24 162.46 236.55C158.36 237.86 153.31 236.23 153.31 236.23C153.31 236.23 139.74 241.6 137.53 237.23C135.32 232.86 133.75 214.52 132.8 211.05C131.85 207.58 128.7 204.74 129.33 199.37C129.96 194 131.54 190.85 131.86 188.65C132.18 186.45 140.37 146.37 140.37 137.54C140.37 128.71 124.92 84.54 124.92 84.54" fill="white"/>
<path d="M162 231C158.085 231.793 154.112 232.268 150.12 232.42C150.12 232.42 150.34 239.97 137.5 237.15C139.71 241.57 153.28 236.15 153.28 236.15C153.28 236.15 158.33 237.73 162.43 236.47C166.53 235.21 179.15 230.16 179.15 230.16C179.15 230.16 189.88 232.37 194.61 234.58C199.34 236.79 199.97 237.73 203.13 237.1C206.29 236.47 203.76 231.42 203.76 231.42C203.76 231.42 205.97 234.26 207.23 236.15C208.49 238.04 212.23 235.52 213.85 231.74C215.47 227.96 212.59 217.54 212.59 217.54H213.85C215.11 217.54 216.69 216.54 218.27 213.44C219.85 210.34 206.91 204.92 204.39 200.82C201.87 196.72 202.49 192.62 206.28 185.99C210.07 179.36 207.86 179.37 205.33 171.48C202.8 163.59 199.97 159.18 197.76 148.76C195.76 139.34 185.76 132.24 182.23 127.47C184.615 133.824 187.665 139.908 191.33 145.62C200.67 159.62 201.33 172.95 198.67 180.28C196.01 187.61 193.33 193.62 193.33 193.62L184 173C184 173 185.33 193 188 197.67C190.67 202.34 192 207.67 196.67 211.67C201.34 215.67 208 220.33 202.67 220.33C197.34 220.33 183.25 219.17 183.25 219.17C183.25 219.17 184.67 224.33 177.33 224.33C172.164 224.202 167.026 223.532 162 222.33C162 222.33 168.67 229.67 162 231Z" fill="#ABC2AD"/>
<path opacity="0.5" d="M162 231C158.085 231.793 154.112 232.268 150.12 232.42C150.12 232.42 150.34 239.97 137.5 237.15C139.71 241.57 153.28 236.15 153.28 236.15C153.28 236.15 158.33 237.73 162.43 236.47C166.53 235.21 179.15 230.16 179.15 230.16C179.15 230.16 189.88 232.37 194.61 234.58C199.34 236.79 199.97 237.73 203.13 237.1C206.29 236.47 203.76 231.42 203.76 231.42C203.76 231.42 205.97 234.26 207.23 236.15C208.49 238.04 212.23 235.52 213.85 231.74C215.47 227.96 212.59 217.54 212.59 217.54H213.85C215.11 217.54 216.69 216.54 218.27 213.44C219.85 210.34 206.91 204.92 204.39 200.82C201.87 196.72 202.49 192.62 206.28 185.99C210.07 179.36 207.86 179.37 205.33 171.48C202.8 163.59 199.97 159.18 197.76 148.76C195.76 139.34 185.76 132.24 182.23 127.47C184.615 133.824 187.665 139.908 191.33 145.62C200.67 159.62 201.33 172.95 198.67 180.28C196.01 187.61 193.33 193.62 193.33 193.62L184 173C184 173 185.33 193 188 197.67C190.67 202.34 192 207.67 196.67 211.67C201.34 215.67 208 220.33 202.67 220.33C197.34 220.33 183.25 219.17 183.25 219.17C183.25 219.17 184.67 224.33 177.33 224.33C172.164 224.202 167.026 223.532 162 222.33C162 222.33 168.67 229.67 162 231Z" fill="white"/>
<path d="M168.39 83C168.39 83 179.15 121.4 181.39 126.13C183.63 130.86 195.58 138.43 197.79 148.84C200 159.25 202.84 163.67 205.36 171.56C207.88 179.45 210.1 179.45 206.31 186.07C202.52 192.69 201.89 196.8 204.42 200.9C206.95 205 219.88 210.36 218.3 213.52C216.72 216.68 215.14 217.62 213.88 217.62H212.62C212.62 217.62 215.46 228.03 213.88 231.82C212.3 235.61 208.52 238.13 207.26 236.23C206 234.33 203.79 231.5 203.79 231.5C203.79 231.5 206.31 236.55 203.16 237.18C200.01 237.81 199.37 236.87 194.64 234.66C189.91 232.45 179.18 230.24 179.18 230.24C179.18 230.24 166.56 235.24 162.46 236.55C158.36 237.86 153.31 236.23 153.31 236.23C153.31 236.23 139.74 241.6 137.53 237.23C135.32 232.86 133.75 214.52 132.8 211.05C131.85 207.58 128.7 204.74 129.33 199.37C129.96 194 131.54 190.85 131.86 188.65C132.18 186.45 140.37 146.37 140.37 137.54C140.37 128.71 124.92 84.54 124.92 84.54" stroke="#263238" stroke-linecap="round" stroke-linejoin="round"/>
<path d="M182 162.06C182 162.06 187 183.2 189.89 190.46C192.78 197.72 195.56 205.29 198.72 208.13C201.88 210.97 211.34 216.01 212.6 217.59" stroke="#263238" stroke-linecap="round" stroke-linejoin="round"/>
<path d="M160.22 185.73C160.22 185.73 180.41 214.73 183.22 219.17C186.03 223.61 194.58 223.58 196.79 225.48L203.73 231.48" stroke="#263238" stroke-linecap="round" stroke-linejoin="round"/>
<path d="M141 193.93C141 193.93 149.52 204.34 156.46 214.75C163.4 225.16 164.04 227.69 167.46 228.63C170.88 229.57 179.13 230.21 179.13 230.21" stroke="#263238" stroke-linecap="round" stroke-linejoin="round"/>
<path d="M134.35 210C134.35 210 148.86 229.56 150.12 232.4C150.738 233.968 151.846 235.294 153.28 236.18" stroke="#263238" stroke-linecap="round" stroke-linejoin="round"/>
<path d="M159.9 165.53C159.9 165.53 153.28 169.01 154.23 171.84C154.915 173.798 155.758 175.698 156.75 177.52" stroke="#263238" stroke-linecap="round" stroke-linejoin="round"/>
<path d="M142.24 176.26C142.24 176.26 136.24 178.15 135.93 181.62C135.768 183.799 136.203 185.981 137.19 187.93" stroke="#263238" stroke-linecap="round" stroke-linejoin="round"/>
</svg>
